<svg xmlns="http://www.w3.org/2000/svg" width="33.53" height="33.53" viewBox="0 0 33.53 33.53"><defs><style>.a{fill:#dd4b39;}.b{fill:none;stroke:#d74837;fill-rule:evenodd;}.c{fill:#fff;}</style></defs><g transform="translate(0.424 0.424)"><path d="M0,0H32.681V32.681H0Z"/><path class="a" d="M0,0H32.681V32.681H0Z"/><path class="b" d="M.5.5H33.03V33.03H.5Z" transform="translate(-0.424 -0.424)"/><path class="c" d="M65.236,126.8h-3.7l-1.821-3.464H57.291V126.8H54.024V114.282h5.624c3.321,0,5.213,1.607,5.213,4.392a4.23,4.23,0,0,1-2.232,4.035Zm-7.945-9.909v3.838h2.374a1.828,1.828,0,0,0,2.089-1.946c0-1.232-.768-1.892-2.089-1.892H57.291Zm9.659-2.607h9.873v2.607H70.217v2.339H76.18v2.589l-5.963.018v2.357H77V126.8H66.95Z" transform="translate(-45.85 -96.991)"/><path class="c" d="M65.236,126.8h-3.7l-1.821-3.464H57.291V126.8H54.024V114.282h5.624c3.321,0,5.213,1.607,5.213,4.392a4.23,4.23,0,0,1-2.232,4.035Zm-7.945-9.909v3.838h2.374a1.828,1.828,0,0,0,2.089-1.946c0-1.232-.768-1.892-2.089-1.892H57.291Zm9.659-2.607h9.873v2.607H70.217v2.339H76.18v2.589l-5.963.018v2.357H77V126.8H66.95Z" transform="translate(-45.85 -96.991)"/></g></svg>