<svg xmlns="http://www.w3.org/2000/svg" width="87.854" height="33.53" viewBox="0 0 87.854 33.53"><defs><style>.a{fill:#dd4b39;}.b{fill:none;stroke:#d74837;}.b,.c{fill-rule:evenodd;}.c,.d{fill:#fff;}</style></defs><g transform="translate(0.424 0.424)"><path d="M0,0H32.681V32.681H0Z"/><path class="a" d="M0,0H32.681V32.681H0Z"/><path class="b" d="M.5.5H33.03V33.03H.5Z" transform="translate(-0.424 -0.424)"/><path class="c" d="M229.2,126l-.857-2.214h-5.41L222.058,126H218.7l5.374-12.515h3.356L232.681,126Zm-5.285-4.713h3.464l-1.714-4.463Zm19.066-3.946A9.731,9.731,0,0,0,238.946,116c-.786,0-1.3.286-1.3.857,0,2.071,6.588.893,6.588,5.392,0,2.553-2.25,3.856-5.035,3.856a9.4,9.4,0,0,1-5.767-2l1.268-2.553a7.99,7.99,0,0,0,4.535,1.892c.964,0,1.571-.357,1.571-1.018,0-2.125-6.588-.839-6.588-5.267,0-2.339,1.982-3.821,5-3.821a9.6,9.6,0,0,1,5,1.41l-1.232,2.589Zm9.478-3.946c3.874,0,6.766,2.714,6.766,6.338a6.776,6.776,0,0,1-13.533,0c0-3.642,2.892-6.338,6.766-6.338Zm.036,2.785a3.488,3.488,0,0,0-3.446,3.571,3.531,3.531,0,0,0,3.446,3.606,3.6,3.6,0,0,0,0-7.177Zm8.961-2.7h2.874l5.677,7.534v-7.534h3.035V126h-2.857l-5.677-7.5V126h-3.053Z" transform="translate(-185.612 -96.19)"/><path class="d" d="M65.236,126.8h-3.7l-1.821-3.464H57.291V126.8H54.024V114.282h5.624c3.321,0,5.213,1.607,5.213,4.392a4.23,4.23,0,0,1-2.232,4.035Zm-7.945-9.909v3.838h2.374a1.828,1.828,0,0,0,2.089-1.946c0-1.232-.768-1.892-2.089-1.892H57.291Zm9.659-2.607h9.873v2.607H70.217v2.339H76.18v2.589l-5.963.018v2.357H77V126.8H66.95Z" transform="translate(-45.85 -96.991)"/><path class="d" d="M65.236,126.8h-3.7l-1.821-3.464H57.291V126.8H54.024V114.282h5.624c3.321,0,5.213,1.607,5.213,4.392a4.23,4.23,0,0,1-2.232,4.035Zm-7.945-9.909v3.838h2.374a1.828,1.828,0,0,0,2.089-1.946c0-1.232-.768-1.892-2.089-1.892H57.291Zm9.659-2.607h9.873v2.607H70.217v2.339H76.18v2.589l-5.963.018v2.357H77V126.8H66.95Z" transform="translate(-45.85 -96.991)"/></g></svg>