<svg xmlns="http://www.w3.org/2000/svg" width="500" height="117.925" viewBox="0 0 500 117.925">
  <g>
    <path d="M113.911,8.644a21.176,21.176,0,0,0-4.652-4.631C103.75,0,95.881,0,80.144,0H37.759C22.023,0,14.155,0,8.644,4.013A20.679,20.679,0,0,0,4.013,8.644C0,14.154,0,22.022,0,37.78V80.144c0,15.736,0,23.6,4.013,29.115a21.176,21.176,0,0,0,4.631,4.652c5.51,4.014,13.378,4.014,29.115,4.014H80.144c15.736,0,23.6,0,29.115-4.014a21.739,21.739,0,0,0,4.652-4.652c4.014-5.509,4.014-13.378,4.014-29.115V37.78C117.92,22.022,117.92,14.154,113.911,8.644Zm-59.3,71.565c0,3.688,0,5.553-.6,7.01a7.931,7.931,0,0,1-4.288,4.288c-1.458.6-3.3.6-7.011.6-3.688,0-5.553,0-7.01-.6a7.931,7.931,0,0,1-4.288-4.288c-.6-1.457-.6-3.322-.6-7.01V41.318c0-4.46,0-6.689.858-8.382a8,8,0,0,1,3.473-3.474c1.69-.857,3.924-.857,8.362-.857H54.613Zm25.3-23.137a14,14,0,1,1,14-14h0a13.99,13.99,0,0,1-13.981,14Z" fill="#010427"/>
    <g>
      <path d="M236.358,74.279a12.64,12.64,0,0,0,4.647-4.119,1.556,1.556,0,0,1,1.357-.837,1.523,1.523,0,0,1,.939.317l5.008,3.965a2.046,2.046,0,0,1,.731,1.357,1.869,1.869,0,0,1-.317.939,20.981,20.981,0,0,1-8.244,7.512,25.632,25.632,0,0,1-12,2.714,23.493,23.493,0,0,1-13.826-3.915,21.92,21.92,0,0,1-8.086-10.9,37.671,37.671,0,0,1-2.086-12.939,40.951,40.951,0,0,1,1.143-11.062,21.078,21.078,0,0,1,7.826-11.79,22.971,22.971,0,0,1,14.191-4.382q19.515,0,22.853,21.39a81.131,81.131,0,0,1,.73,8.554,1.478,1.478,0,0,1-1.669,1.67h-32.35a.55.55,0,0,0-.624.626,14.083,14.083,0,0,0,.624,4.592,10.307,10.307,0,0,0,4.384,5.841,14.493,14.493,0,0,0,8.033,2.088A15.11,15.11,0,0,0,236.358,74.279ZM221.016,43.5a9.691,9.691,0,0,0-3.5,5.372,15.342,15.342,0,0,0-.834,4.382c-.071.423.106.629.521.629H238.18a.556.556,0,0,0,.627-.472.59.59,0,0,0,0-.157,31.358,31.358,0,0,0-.627-3.753,10.341,10.341,0,0,0-3.7-5.793,11.016,11.016,0,0,0-6.94-2.137A10.514,10.514,0,0,0,221.016,43.5Z" fill="#010427"/>
      <path d="M266.237,83.984a17.842,17.842,0,0,1-7.668-5.324,11.8,11.8,0,0,1-2.713-7.566v-.52a1.478,1.478,0,0,1,1.668-1.67h8.343q1.67,0,1.67.731v.731q0,2.611,2.868,4.541a12.716,12.716,0,0,0,7.254,1.93,12.122,12.122,0,0,0,6.781-1.722,5.07,5.07,0,0,0,2.609-4.33,3.879,3.879,0,0,0-2.14-3.6,34.437,34.437,0,0,0-6.938-2.56l-3.965-1.251a58.355,58.355,0,0,1-8.977-3.34,17.883,17.883,0,0,1-6.157-4.85,12.093,12.093,0,0,1-2.5-7.881,13.863,13.863,0,0,1,5.688-11.633q5.685-4.329,15.076-4.33A28.424,28.424,0,0,1,288.3,33.376a17.517,17.517,0,0,1,7.462,5.637,13.414,13.414,0,0,1,2.66,8.19,1.085,1.085,0,0,1-.47.885,1.882,1.882,0,0,1-1.2.367h-8.025c-1.115,0-1.67-.212-1.67-.629V47.2a5.373,5.373,0,0,0-2.66-4.541,12.658,12.658,0,0,0-7.253-1.825,12.9,12.9,0,0,0-6.625,1.513,4.683,4.683,0,0,0-2.555,4.225,4.125,4.125,0,0,0,2.4,3.809A41.95,41.95,0,0,0,278.4,53.25l2.4.629a78.563,78.563,0,0,1,9.392,3.338,17.34,17.34,0,0,1,6.364,4.8,12.128,12.128,0,0,1,2.609,8.033,13.573,13.573,0,0,1-5.844,11.635q-5.844,4.224-15.545,4.225A31.689,31.689,0,0,1,266.237,83.984Z" fill="#010427"/>
      <path d="M314.175,82a21.375,21.375,0,0,1-8.138-11.112,46.994,46.994,0,0,1,0-24.835,20.25,20.25,0,0,1,8.086-10.9,24.122,24.122,0,0,1,13.931-4.014,24.817,24.817,0,0,1,14.191,4.07,19.379,19.379,0,0,1,8.033,10.224,19.974,19.974,0,0,1,.627,2.922v.423c0,.765-.452,1.249-1.355,1.459l-8.661,1.357h-.422a1.422,1.422,0,0,1-1.46-1.252l-.316-1.355a8.991,8.991,0,0,0-3.654-5.272,11.506,11.506,0,0,0-6.989-2.138,11.038,11.038,0,0,0-6.732,2.035,9.813,9.813,0,0,0-3.7,5.583,32.517,32.517,0,0,0-1.043,9.285,37.394,37.394,0,0,0,.939,9.288,10.962,10.962,0,0,0,3.757,5.79,10.616,10.616,0,0,0,6.783,2.14,11.519,11.519,0,0,0,6.835-2.036,9.123,9.123,0,0,0,3.7-5.373l.106-.52a1.991,1.991,0,0,1,.676-1.045,1.542,1.542,0,0,1,1.306-.422l8.66,1.357q1.357.316,1.357,1.463a14.844,14.844,0,0,1-.422,2.5,18.591,18.591,0,0,1-8.033,10.59,25.554,25.554,0,0,1-14.191,3.915A23.437,23.437,0,0,1,314.175,82Z" fill="#010427"/>
      <path d="M397.276,23.148a7.325,7.325,0,0,1-2.191-5.478,7.166,7.166,0,0,1,2.191-5.427,7.848,7.848,0,0,1,5.635-2.085,7.67,7.67,0,0,1,5.585,2.085,7.258,7.258,0,0,1,2.137,5.427,7.42,7.42,0,0,1-2.137,5.478,7.568,7.568,0,0,1-5.585,2.14A7.736,7.736,0,0,1,397.276,23.148Zm-.416,60.468V33.634a1.48,1.48,0,0,1,1.262-1.668,1.533,1.533,0,0,1,.406,0h8.766a1.478,1.478,0,0,1,1.667,1.262,1.453,1.453,0,0,1,0,.406V83.616a1.477,1.477,0,0,1-1.667,1.669h-8.766a1.479,1.479,0,0,1-1.668-1.669Z" fill="#010427"/>
      <path d="M465.349,58.784a40.41,40.41,0,0,1-1.775,12.729,21.58,21.58,0,0,1-7.408,10.747,20.518,20.518,0,0,1-12.73,3.861,15.241,15.241,0,0,1-11.895-5.114c-.141-.211-.3-.3-.472-.26s-.259.192-.259.467v19.664c0,1.113-.622,1.357-1.67,1.668,0,0-7.8,2.212-8.765,2.458s-1.67-.557-1.67-1.667v-69.7a1.476,1.476,0,0,1,1.67-1.667h8.765a1.478,1.478,0,0,1,1.67,1.667v2.714c0,.279.086.455.259.521s.33-.032.472-.31a14.66,14.66,0,0,1,11.895-5.427,20.277,20.277,0,0,1,12.52,3.908,21.648,21.648,0,0,1,7.515,10.7A41.864,41.864,0,0,1,465.349,58.784Zm-12.52-.211q0-7.512-2.5-11.9a9.239,9.239,0,0,0-8.766-5.008,9.049,9.049,0,0,0-8.138,4.906q-2.4,4.068-2.395,12.1,0,8.139,2.609,12.418a8.748,8.748,0,0,0,7.826,4.592,9.45,9.45,0,0,0,8.343-4.382q3.027-4.593,3.028-12.732Z" fill="#010427"/>
      <path d="M498.318,41.774H488.2a.552.552,0,0,0-.626.469.59.59,0,0,0,0,.157V67.025q0,4.071,1.722,5.845t5.478,1.773h2.712a1.478,1.478,0,0,1,1.669,1.259,1.415,1.415,0,0,1,0,.411V83.3a1.584,1.584,0,0,1-1.38,1.765,1.643,1.643,0,0,1-.289.008l-5.008.106q-8.245,0-12.313-2.871t-4.173-10.7V42.4a.553.553,0,0,0-.47-.626.517.517,0,0,0-.157,0h-5.426a1.48,1.48,0,0,1-1.668-1.67V33.633a1.48,1.48,0,0,1,1.262-1.668,1.533,1.533,0,0,1,.406,0h5.426a.553.553,0,0,0,.627-.466.612.612,0,0,0,0-.16V22.11c0-1.113.474-1.295,1.669-1.668l8.243-2.459c1.6-.445,1.67.558,1.67,1.668V31.34a.552.552,0,0,0,.467.626.53.53,0,0,0,.159,0h10.121a1.48,1.48,0,0,1,1.668,1.262,1.533,1.533,0,0,1,0,.406V40.1a1.478,1.478,0,0,1-1.261,1.668A1.5,1.5,0,0,1,498.318,41.774Z" fill="#010427"/>
      <path d="M201,33.537v9a1.553,1.553,0,0,1-1.551,1.553h-15.5a1.267,1.267,0,0,0-1.267,1.267h0V83.616A1.67,1.67,0,0,1,181,85.285h-8.766a1.666,1.666,0,0,1-1.665-1.665V34.431a2.463,2.463,0,0,1,2.463-2.463h7.971a2.049,2.049,0,0,1,.248.012h18.184A1.558,1.558,0,0,1,201,33.536Z" fill="#010427"/>
      <path d="M388.557,33.533v9.008a1.551,1.551,0,0,1-1.55,1.553H371.5a1.267,1.267,0,0,0-1.267,1.267h0V83.616a1.67,1.67,0,0,1-1.67,1.669H359.8a1.665,1.665,0,0,1-1.667-1.665h0V34.431a2.465,2.465,0,0,1,2.466-2.463h7.969a2.126,2.126,0,0,1,.252.012h18.186a1.551,1.551,0,0,1,1.552,1.551Z" fill="#010427"/>
    </g>
  </g>
</svg>
