<svg width="816" height="193" viewBox="0 0 816 193" fill="none" xmlns="http://www.w3.org/2000/svg">
<path d="M385.734 121.222C388.781 119.647 391.388 117.337 393.318 114.5C393.529 114.094 393.847 113.752 394.237 113.512C394.627 113.272 395.074 113.141 395.532 113.134C396.086 113.131 396.626 113.313 397.065 113.652L405.238 120.122C405.909 120.677 406.337 121.471 406.431 122.337C406.399 122.885 406.221 123.414 405.913 123.869C402.617 129.095 397.968 133.331 392.459 136.129C386.388 139.173 379.666 140.694 372.875 140.558C364.871 140.837 356.981 138.603 350.311 134.169C344.142 129.785 339.521 123.556 337.115 116.38C334.755 109.594 333.603 102.448 333.711 95.2639C333.509 89.1894 334.136 83.1157 335.576 77.2108C337.489 69.5169 342.001 62.72 348.348 57.9697C355.063 53.0871 363.209 50.5718 371.508 50.8183C392.74 50.8183 405.172 62.4544 408.804 85.7266C409.447 90.3556 409.845 95.0155 409.995 99.6866C410.047 100.057 410.013 100.434 409.894 100.788C409.776 101.142 409.577 101.464 409.313 101.728C409.049 101.993 408.727 102.192 408.372 102.311C408.018 102.429 407.641 102.464 407.271 102.412H354.476C354.338 102.392 354.196 102.404 354.063 102.448C353.93 102.492 353.809 102.567 353.71 102.666C353.611 102.766 353.536 102.887 353.493 103.02C353.449 103.153 353.437 103.295 353.458 103.434C353.381 105.971 353.725 108.503 354.476 110.928C355.618 114.872 358.163 118.262 361.631 120.46C365.575 122.85 370.132 124.034 374.741 123.868C378.561 123.849 382.324 122.944 385.734 121.222ZM360.696 70.9913C357.852 73.1809 355.838 76.2726 354.984 79.7584C354.184 82.0631 353.726 84.4724 353.623 86.9097C353.507 87.6001 353.796 87.9363 354.473 87.9363H388.707C388.945 87.9693 389.186 87.9068 389.378 87.7625C389.57 87.6181 389.697 87.4036 389.731 87.166C389.742 87.0809 389.742 86.9948 389.731 86.9097C389.514 84.8493 389.172 82.8039 388.707 80.7849C387.831 77.0372 385.701 73.7014 382.669 71.3308C379.396 68.9216 375.404 67.6922 371.343 67.8432C367.543 67.6836 363.798 68.791 360.696 70.9913V70.9913Z" fill="#E6484F"/>
<path d="M434.496 137.061C429.628 135.327 425.308 132.328 421.982 128.372C419.107 124.901 417.54 120.532 417.554 116.025V115.176C417.502 114.806 417.537 114.429 417.655 114.075C417.773 113.721 417.972 113.399 418.236 113.135C418.5 112.871 418.822 112.671 419.176 112.553C419.53 112.434 419.907 112.399 420.276 112.451H433.892C435.709 112.451 436.618 112.848 436.618 113.644V114.837C436.618 117.677 438.178 120.148 441.298 122.247C444.837 124.465 448.963 125.562 453.137 125.397C457.021 125.568 460.871 124.591 464.203 122.587C465.469 121.884 466.528 120.862 467.276 119.622C468.023 118.382 468.432 116.968 468.461 115.52C468.502 114.31 468.195 113.112 467.576 112.071C466.957 111.03 466.052 110.188 464.969 109.645C461.355 107.85 457.559 106.449 453.646 105.467L447.175 103.426C442.15 102.013 437.25 100.19 432.525 97.9749C428.631 96.112 425.199 93.4087 422.476 90.0597C419.648 86.385 418.203 81.8314 418.396 77.198C418.282 73.517 419.067 69.8636 420.685 66.5551C422.303 63.2466 424.704 60.383 427.679 58.2131C433.864 53.5031 442.066 51.1476 452.283 51.1465C458.518 51.0182 464.715 52.1483 470.503 54.4693C475.321 56.3755 479.53 59.5554 482.681 63.6688C485.557 67.526 487.083 72.2235 487.022 77.0348C487.019 77.3195 486.948 77.5994 486.815 77.8508C486.681 78.1022 486.489 78.3178 486.255 78.4791C485.69 78.8969 484.998 79.1083 484.296 79.0781H471.199C469.38 79.0781 468.474 78.7321 468.474 78.0515V77.0299C468.447 75.526 468.033 74.0544 467.273 72.7566C466.513 71.4587 465.431 70.3783 464.133 69.619C460.577 67.4567 456.452 66.4185 452.296 66.6407C448.536 66.4826 444.803 67.3353 441.484 69.1099C440.216 69.7567 439.154 70.745 438.417 71.9633C437.68 73.1815 437.298 74.5814 437.314 76.005C437.295 77.3092 437.655 78.591 438.35 79.6946C439.045 80.7982 440.046 81.676 441.231 82.2213C445.432 84.2237 449.827 85.7925 454.346 86.9034L458.263 87.93C463.482 89.4196 468.602 91.2391 473.59 93.3775C477.614 95.1468 481.17 97.8288 483.976 101.211C486.921 104.93 488.432 109.582 488.234 114.321C488.363 118.032 487.558 121.715 485.891 125.033C484.224 128.351 481.751 131.197 478.697 133.309C472.339 137.905 463.882 140.203 453.328 140.204C446.91 140.334 440.524 139.268 434.496 137.061Z" fill="#E6484F"/>
<path d="M512.73 133.823C506.424 129.409 501.754 123.033 499.449 115.688C495.815 102.423 495.815 88.4236 499.449 75.1579C501.671 67.8869 506.332 61.6043 512.645 57.3692C519.373 52.906 527.31 50.6191 535.381 50.8184C543.596 50.6318 551.673 52.9484 558.54 57.4606C564.701 61.3467 569.332 67.2405 571.65 74.1461C572.11 75.7078 572.452 77.3019 572.673 78.9147V79.6051C572.673 80.8535 571.936 81.6434 570.462 81.9861L556.327 84.2008H555.639C555.058 84.2204 554.491 84.0214 554.049 83.6431C553.608 83.2647 553.325 82.7346 553.256 82.1575L552.74 79.9462C551.878 76.4426 549.755 73.3795 546.777 71.3423C543.455 68.9705 539.451 67.7456 535.371 67.8531C531.445 67.7326 527.587 68.8989 524.384 71.1742C521.365 73.4092 519.228 76.6343 518.346 80.2856C517.052 85.2283 516.479 90.332 516.644 95.4386C516.52 100.535 517.034 105.628 518.176 110.597C519.149 114.324 521.3 117.638 524.308 120.046C527.486 122.448 531.396 123.682 535.378 123.538C539.354 123.639 543.259 122.475 546.532 120.216C549.557 118.137 551.707 115.014 552.571 111.447L552.744 110.598C552.92 109.926 553.306 109.329 553.847 108.893C554.125 108.621 554.462 108.418 554.832 108.298C555.201 108.179 555.594 108.146 555.978 108.204L570.111 110.419C571.588 110.762 572.326 111.558 572.326 112.806C572.213 114.183 571.983 115.548 571.637 116.886C569.546 124.066 564.878 130.22 558.527 134.169C551.601 138.524 543.547 140.746 535.368 140.558C527.3 140.757 519.377 138.4 512.73 133.823V133.823Z" fill="#E6484F"/>
<path d="M648.35 37.7772C647.167 36.6163 646.238 35.2221 645.623 33.6831C645.007 32.144 644.718 30.4937 644.775 28.8371C644.714 27.1923 645.001 25.5532 645.617 24.027C646.233 22.5008 647.165 21.1219 648.35 19.9803C649.585 18.8369 651.032 17.9479 652.61 17.364C654.188 16.7802 655.865 16.513 657.547 16.5776C659.216 16.5077 660.883 16.7728 662.448 17.3572C664.014 17.9416 665.446 18.8335 666.661 19.9803C667.824 21.1351 668.734 22.5185 669.334 24.043C669.934 25.5675 670.212 27.1999 670.149 28.8371C670.207 30.4863 669.928 32.13 669.328 33.6673C668.729 35.2047 667.821 36.6033 666.661 37.7772C665.459 38.948 664.031 39.8615 662.464 40.462C660.897 41.0624 659.224 41.3373 657.547 41.2696C655.858 41.3325 654.174 41.0558 652.594 40.4559C651.015 39.856 649.572 38.9451 648.35 37.7772V37.7772ZM647.671 136.46V54.8902C647.584 54.2562 647.752 53.6134 648.138 53.103C648.524 52.5926 649.097 52.2563 649.731 52.168C649.951 52.1387 650.174 52.1387 650.394 52.168H664.7C665.014 52.1245 665.333 52.1433 665.64 52.2233C665.946 52.3033 666.234 52.4429 666.487 52.6342C666.739 52.8254 666.952 53.0646 667.112 53.338C667.272 53.6114 667.377 53.9137 667.42 54.2276C667.451 54.4474 667.451 54.6704 667.42 54.8902V136.46C667.472 136.83 667.438 137.207 667.32 137.561C667.201 137.915 667.003 138.236 666.739 138.5C666.475 138.764 666.154 138.964 665.8 139.082C665.446 139.201 665.069 139.236 664.7 139.184H650.394C650.024 139.235 649.648 139.2 649.294 139.081C648.94 138.963 648.619 138.763 648.355 138.5C648.091 138.236 647.892 137.914 647.774 137.56C647.655 137.206 647.62 136.83 647.671 136.46V136.46Z" fill="#E6484F"/>
<path d="M759.445 95.9346C759.594 102.969 758.616 109.983 756.548 116.708C754.425 123.662 750.202 129.789 744.458 134.247C738.425 138.596 731.116 140.813 723.683 140.548C720.033 140.668 716.401 139.982 713.046 138.539C709.691 137.097 706.695 134.933 704.27 132.202C704.04 131.858 703.781 131.713 703.5 131.778C703.219 131.843 703.077 132.091 703.077 132.54V164.632C703.077 166.448 702.062 166.846 700.352 167.354C700.352 167.354 687.623 170.964 686.048 171.365C684.473 171.767 683.322 170.456 683.322 168.645V54.8949C683.27 54.5251 683.305 54.1482 683.423 53.794C683.542 53.4399 683.741 53.1181 684.006 52.8543C684.27 52.5904 684.592 52.3916 684.947 52.2736C685.301 52.1556 685.678 52.1217 686.048 52.1744H700.352C700.722 52.1224 701.098 52.1568 701.452 52.2751C701.806 52.3933 702.128 52.5921 702.392 52.8558C702.657 53.1195 702.856 53.4409 702.975 53.7948C703.094 54.1486 703.129 54.5252 703.077 54.8949V59.3242C703.077 59.7795 703.218 60.0667 703.5 60.1744C703.783 60.2821 704.039 60.1222 704.27 59.6685C706.6 56.7908 709.566 54.493 712.935 52.9561C716.303 51.4193 719.983 50.6852 723.683 50.8117C731.012 50.6154 738.199 52.8587 744.115 57.1895C749.906 61.607 754.189 67.7061 756.38 74.6518C758.519 81.5398 759.553 88.723 759.445 95.9346V95.9346ZM739.012 95.5902C739.012 87.4172 737.652 80.9437 734.932 76.1696C733.598 73.5663 731.535 71.4074 728.994 69.9562C726.454 68.505 723.547 67.8241 720.626 67.9966C717.888 67.9684 715.196 68.7023 712.85 70.1162C710.505 71.5301 708.599 73.5683 707.345 76.0031C704.734 80.4291 703.431 87.0114 703.437 95.7502C703.437 104.605 704.856 111.361 707.694 116.016C708.935 118.314 710.781 120.227 713.033 121.549C715.285 122.87 717.856 123.548 720.466 123.51C723.163 123.614 725.84 123.008 728.229 121.753C730.619 120.498 732.637 118.638 734.082 116.359C737.375 111.362 739.023 104.436 739.024 95.5804L739.012 95.5902Z" fill="#E6484F"/>
<path d="M813.25 68.1745H796.737C796.62 68.1574 796.5 68.1637 796.385 68.193C796.271 68.2222 796.163 68.2739 796.068 68.345C795.973 68.4161 795.893 68.5053 795.832 68.6074C795.772 68.7095 795.732 68.8225 795.716 68.9399C795.704 69.0249 795.704 69.1111 795.716 69.1961V109.384C795.716 113.813 796.653 116.993 798.526 118.923C800.4 120.853 803.38 121.817 807.466 121.816H811.892C812.206 121.772 812.525 121.791 812.832 121.87C813.139 121.95 813.427 122.089 813.68 122.279C813.933 122.47 814.145 122.709 814.306 122.982C814.467 123.255 814.572 123.557 814.616 123.871C814.648 124.093 814.648 124.319 814.616 124.542V135.945C814.657 136.282 814.632 136.623 814.541 136.951C814.45 137.278 814.296 137.584 814.086 137.851C813.877 138.119 813.618 138.342 813.322 138.51C813.026 138.677 812.701 138.784 812.364 138.825C812.207 138.843 812.049 138.848 811.892 138.838L803.719 139.011C794.749 139.011 788.05 137.449 783.624 134.326C779.198 131.202 776.928 125.381 776.814 116.863V69.1961C776.831 69.0787 776.824 68.959 776.795 68.8441C776.765 68.7291 776.714 68.6211 776.642 68.5262C776.571 68.4314 776.482 68.3514 776.38 68.2911C776.278 68.2307 776.165 68.1911 776.047 68.1745C775.962 68.1615 775.876 68.1615 775.791 68.1745H766.936C766.566 68.2255 766.189 68.1901 765.836 68.0711C765.482 67.9521 765.161 67.7527 764.897 67.4887C764.633 67.2246 764.434 66.903 764.316 66.5491C764.197 66.1953 764.162 65.8187 764.213 65.4491V54.8885C764.126 54.2544 764.294 53.6116 764.68 53.1012C765.066 52.5909 765.639 52.2546 766.273 52.1663C766.493 52.1369 766.716 52.1369 766.936 52.1663H775.791C776.027 52.2009 776.268 52.1402 776.46 51.9977C776.652 51.8551 776.779 51.6422 776.814 51.4058C776.825 51.3191 776.825 51.2314 776.814 51.1447V36.0831C776.814 34.2667 777.588 33.9696 779.538 33.3609L792.99 29.3478C795.602 28.6216 795.716 30.2585 795.716 32.07V51.1463C795.699 51.2635 795.705 51.3828 795.734 51.4976C795.763 51.6123 795.814 51.7202 795.885 51.8151C795.956 51.91 796.045 51.99 796.146 52.0505C796.248 52.1111 796.361 52.151 796.478 52.1679C796.564 52.181 796.651 52.181 796.737 52.1679H813.255C813.889 52.0805 814.532 52.2483 815.042 52.6345C815.552 53.0207 815.889 53.5936 815.977 54.2275C816.006 54.4474 816.006 54.6702 815.977 54.8901V65.4425C816.021 65.7564 816.002 66.0759 815.922 66.3826C815.843 66.6893 815.703 66.9773 815.512 67.2301C815.321 67.4829 815.082 67.6955 814.809 67.8559C814.535 68.0163 814.233 68.1212 813.919 68.1647C813.697 68.1986 813.472 68.2019 813.25 68.1745V68.1745Z" fill="#E6484F"/>
<path d="M328.03 54.7317V69.4197C328.03 70.0913 327.763 70.7354 327.289 71.2106C326.814 71.6859 326.17 71.9533 325.499 71.9541H300.203C299.654 71.9541 299.129 72.172 298.741 72.5598C298.353 72.9475 298.135 73.4735 298.135 74.0219V136.46C298.135 136.82 298.064 137.175 297.925 137.507C297.787 137.839 297.585 138.14 297.329 138.393C297.074 138.646 296.772 138.847 296.439 138.982C296.106 139.118 295.75 139.187 295.39 139.184H281.084C280.364 139.184 279.673 138.897 279.163 138.388C278.654 137.878 278.367 137.187 278.367 136.467V56.1907C278.367 55.1247 278.79 54.1023 279.544 53.3485C280.298 52.5946 281.32 52.1712 282.386 52.1712H295.395C295.53 52.1695 295.665 52.176 295.8 52.1907H325.476C325.81 52.1892 326.142 52.2538 326.452 52.3807C326.761 52.5076 327.043 52.6943 327.28 52.9303C327.517 53.1662 327.706 53.4466 327.834 53.7554C327.963 54.0643 328.029 54.3955 328.03 54.7301V54.7317Z" fill="#E6484F"/>
<path d="M634.121 54.7252V69.4262C634.121 69.7587 634.056 70.0881 633.929 70.3954C633.802 70.7028 633.616 70.9822 633.381 71.2175C633.146 71.4529 632.867 71.6397 632.56 71.7672C632.253 71.8947 631.924 71.9604 631.591 71.9607H606.284C605.736 71.9607 605.21 72.1785 604.822 72.5663C604.434 72.954 604.216 73.48 604.216 74.0284V74.0284V136.46C604.216 137.183 603.929 137.875 603.417 138.386C602.906 138.897 602.213 139.184 601.491 139.184H587.19C586.833 139.184 586.479 139.114 586.149 138.978C585.819 138.842 585.519 138.642 585.266 138.389C585.014 138.137 584.813 137.837 584.676 137.507C584.54 137.177 584.469 136.824 584.469 136.467V136.467V56.1907C584.47 55.1241 584.895 54.1015 585.649 53.3477C586.404 52.5939 587.427 52.1707 588.494 52.1711H601.499C601.636 52.1695 601.774 52.1761 601.91 52.1907H631.59C631.922 52.1905 632.252 52.2558 632.559 52.3829C632.866 52.51 633.145 52.6965 633.381 52.9315C633.616 53.1666 633.802 53.4457 633.93 53.7529C634.057 54.0601 634.123 54.3894 634.123 54.7219L634.121 54.7252Z" fill="#E6484F"/>
<g filter="url(#filter0_i)">
<path d="M0 61.6513C0 35.9644 4.91486e-06 23.1281 6.53993 14.1196C8.65364 11.2114 11.2114 8.65362 14.1196 6.53991C23.1191 -1.47446e-05 35.9644 0 61.6474 0H130.8C156.487 0 169.323 -1.47446e-05 178.332 6.53991C181.239 8.65282 183.796 11.2107 185.907 14.1196C192.451 23.1229 192.451 35.9644 192.451 61.6513V130.801C192.451 156.488 192.451 169.324 185.907 178.333C183.797 181.241 181.24 183.798 178.332 185.909C169.328 192.452 156.487 192.452 130.8 192.452H61.6474C35.9644 192.452 23.1242 192.452 14.1196 185.909C11.2108 183.797 8.65284 181.241 6.53993 178.333C4.91486e-06 169.329 0 156.488 0 130.801V61.6513Z" fill="url(#paint0_linear)"/>
</g>
<g filter="url(#filter1_di)">
<path d="M130.414 93.1591C143.033 93.1591 153.263 82.9289 153.263 70.3093C153.263 57.6897 143.033 47.4595 130.414 47.4595C117.794 47.4595 107.564 57.6897 107.564 70.3093C107.564 82.9289 117.794 93.1591 130.414 93.1591Z" fill="white"/>
</g>
<path d="M51.8973 69.0424C51.8973 61.7887 51.8973 58.1605 53.3146 55.3853C54.5541 52.9441 56.5363 50.9592 58.9758 49.7163C61.7472 48.3068 65.3753 48.3068 72.6329 48.3068L89.1853 46.6968L90.7723 48.3068V132.523C90.7723 138.559 90.334 141.273 89.3471 143.651C88.6959 145.223 87.7414 146.652 86.5381 147.855C85.3348 149.058 83.9064 150.012 82.3344 150.663C79.9547 151.65 77.3729 151.956 71.3381 151.956C65.3019 151.956 62.2819 151.956 59.9035 150.969C58.3314 150.318 56.903 149.364 55.6997 148.161C54.4965 146.958 53.542 145.53 52.8907 143.958C51.9038 141.578 51.9038 138.558 51.9038 132.523L51.8973 69.0424Z" fill="black" fill-opacity="0.2"/>
<g filter="url(#filter2_i)">
<path d="M50.2823 67.4218C50.2823 60.1681 50.2824 56.54 51.6996 53.7647C52.9391 51.3235 54.9213 49.3386 57.3608 48.0958C60.1322 46.6863 63.7603 46.6863 71.0179 46.6863H89.1573V130.903C89.1573 136.939 89.1573 139.959 88.1704 142.337C87.5191 143.909 86.5646 145.337 85.3614 146.54C84.1581 147.743 82.7297 148.698 81.1576 149.349C78.7779 150.336 75.7579 150.336 69.7231 150.336C63.6869 150.336 60.6669 150.336 58.2885 149.349C56.7164 148.698 55.288 147.743 54.0847 146.54C52.8815 145.337 51.927 143.909 51.2757 142.337C50.2888 139.958 50.2888 136.937 50.2888 130.903L50.2823 67.4218Z" fill="white"/>
</g>
<defs>
<filter id="filter0_i" x="0" y="-1.28841" width="192.451" height="193.741" filterUnits="userSpaceOnUse" color-interpolation-filters="sRGB">
<feFlood flood-opacity="0" result="BackgroundImageFix"/>
<feBlend mode="normal" in="SourceGraphic" in2="BackgroundImageFix" result="shape"/>
<feColorMatrix in="SourceAlpha" type="matrix" values="0 0 0 0 0 0 0 0 0 0 0 0 0 0 0 0 0 0 127 0" result="hardAlpha"/>
<feOffset dy="-1.28841"/>
<feGaussianBlur stdDeviation="1.28841"/>
<feComposite in2="hardAlpha" operator="arithmetic" k2="-1" k3="1"/>
<feColorMatrix type="matrix" values="0 0 0 0 0 0 0 0 0 0 0 0 0 0 0 0 0 0 0.2 0"/>
<feBlend mode="normal" in2="shape" result="effect1_innerShadow"/>
</filter>
<filter id="filter1_di" x="104.987" y="43.5942" width="49.9084" height="51.1968" filterUnits="userSpaceOnUse" color-interpolation-filters="sRGB">
<feFlood flood-opacity="0" result="BackgroundImageFix"/>
<feColorMatrix in="SourceAlpha" type="matrix" values="0 0 0 0 0 0 0 0 0 0 0 0 0 0 0 0 0 0 127 0"/>
<feOffset dx="1.63199" dy="1.63199"/>
<feColorMatrix type="matrix" values="0 0 0 0 0 0 0 0 0 0 0 0 0 0 0 0 0 0 0.15 0"/>
<feBlend mode="normal" in2="BackgroundImageFix" result="effect1_dropShadow"/>
<feBlend mode="normal" in="SourceGraphic" in2="effect1_dropShadow" result="shape"/>
<feColorMatrix in="SourceAlpha" type="matrix" values="0 0 0 0 0 0 0 0 0 0 0 0 0 0 0 0 0 0 127 0" result="hardAlpha"/>
<feOffset dx="-2.57682" dy="-3.86523"/>
<feGaussianBlur stdDeviation="3.26398"/>
<feComposite in2="hardAlpha" operator="arithmetic" k2="-1" k3="1"/>
<feColorMatrix type="matrix" values="0 0 0 0 0.909804 0 0 0 0 0.309804 0 0 0 0 0.309804 0 0 0 0.25 0"/>
<feBlend mode="normal" in2="shape" result="effect2_innerShadow"/>
</filter>
<filter id="filter2_i" x="47.7038" y="42.821" width="41.4535" height="107.515" filterUnits="userSpaceOnUse" color-interpolation-filters="sRGB">
<feFlood flood-opacity="0" result="BackgroundImageFix"/>
<feBlend mode="normal" in="SourceGraphic" in2="BackgroundImageFix" result="shape"/>
<feColorMatrix in="SourceAlpha" type="matrix" values="0 0 0 0 0 0 0 0 0 0 0 0 0 0 0 0 0 0 127 0" result="hardAlpha"/>
<feOffset dx="-2.57854" dy="-3.86523"/>
<feGaussianBlur stdDeviation="3.26398"/>
<feComposite in2="hardAlpha" operator="arithmetic" k2="-1" k3="1"/>
<feColorMatrix type="matrix" values="0 0 0 0 0.909804 0 0 0 0 0.309804 0 0 0 0 0.309804 0 0 0 0.25 0"/>
<feBlend mode="normal" in2="shape" result="effect1_innerShadow"/>
</filter>
<linearGradient id="paint0_linear" x1="96.2256" y1="0" x2="165.56" y2="186.175" gradientUnits="userSpaceOnUse">
<stop stop-color="#E84F4F"/>
<stop offset="0.408823" stop-color="#DB4646"/>
<stop offset="0.998911" stop-color="#CB3939"/>
</linearGradient>
</defs>
</svg>
