<svg xmlns="http://www.w3.org/2000/svg" viewBox="0 0 251 24"><defs><style>.cls-1{fill:#363687;fill-rule:evenodd;}</style></defs><title>Tezos Foundation</title><g id="Layer_2" data-name="Layer 2"><g id="Layer_1-2" data-name="Layer 1"><path id="Tezos_Foundation" data-name="Tezos Foundation" class="cls-1" d="M99,0h12.11a3.25,3.25,0,0,1,.63.08,1.09,1.09,0,0,1,.85.81,4.66,4.66,0,0,1,.09,1V3.66h-1.35c0-.41,0-.7,0-.87a4.66,4.66,0,0,0,0-1.09c-.08-.22-.19-.34-.59-.35s-3.86,0-10.26,0v9.84h8.87v1.35h-8.87V23.6H99Zm13.87,15.07a8.57,8.57,0,1,1,17.14,0,8.58,8.58,0,1,1-17.14,0Zm1.45,0a7.13,7.13,0,1,0,14.23,0,7.12,7.12,0,1,0-14.23,0Zm18.43,2.36V6.74h1.39V16.92c0,2.93.36,5.7,4.07,5.7,4.13,0,6.78-3.71,6.78-7.65V6.74h1.39V23.6H145v-3a7.23,7.23,0,0,1,.13-1.38h-.06A7.55,7.55,0,0,1,138.21,24C134.14,24,132.75,21.71,132.75,17.43ZM149.28,23V6.74h1.39v3a7.36,7.36,0,0,1-.13,1.38h.06a7.64,7.64,0,0,1,7-4.75c4.3,0,5.46,2.59,5.46,6.57V23.6h-1.39V13.42c0-2.94-.37-5.7-4.07-5.7a7.15,7.15,0,0,0-7,7.48v8.4h-1.39Zm16.64-7.85c0-5.36,3.07-8.83,7.41-8.83a6.4,6.4,0,0,1,5.72,3.81h.07A7.41,7.41,0,0,1,179,8.76V0h1.39V23.6H179V21.47a5.7,5.7,0,0,1,.13-1.28h-.07a6.34,6.34,0,0,1-6,3.81C168.63,24,165.92,20.39,165.92,15.17Zm1.45,0c0,4.55,2.38,7.45,5.76,7.45,3,0,5.89-2.19,5.89-7.48,0-3.75-1.89-7.42-5.76-7.42C170,7.72,167.37,10.45,167.37,15.17Zm15.71,3.94c0-5.73,7.32-5.79,10.26-5.79h1.09v-.58c0-3.74-1.88-5-4.53-5A8.7,8.7,0,0,0,185.63,9l-.83-1.15A10,10,0,0,1,190,6.34c3.8,0,5.85,2.15,5.85,6.37V23.6h-1.39V21.37a7.48,7.48,0,0,1,.14-1.52h-.07S193,24,188.71,24C186,24,183.08,22.48,183.08,19.11Zm1.46-.1c0,1.79,1.42,3.68,4.23,3.68,3.61,0,5.66-3.81,5.66-7.15v-.91h-1.06C190.56,14.63,184.54,14.63,184.54,19Zm15.27-1.59V8.05h-2.18V6.77h2.18V2h1.39V6.77h4.33V8.05H201.2v9.27c0,4.52,3.43,4.91,4.14,4.92h1.2a1.4,1.4,0,0,0,.62-.08.46.46,0,0,0,.23-.26,3.44,3.44,0,0,0,.06-1c0-.19,0-.51,0-1h1.36v1.47a7,7,0,0,1-.05,1.06,1.33,1.33,0,0,1-.25.65,1.73,1.73,0,0,1-1.4.48h-1.77C202.16,23.35,199.81,21.13,199.81,17.42Zm13.35-15h-.57V.66h1.66v1.8h-1.09Zm-.43,21.14V6.74h1.39V23.6h-1.39Zm4.36-8.53a8.57,8.57,0,1,1,17.14,0,8.58,8.58,0,1,1-17.14,0Zm1.45,0a7.13,7.13,0,1,0,14.23,0,7.12,7.12,0,1,0-14.23,0ZM237.2,23.6V6.74h1.39v3a7.36,7.36,0,0,1-.13,1.38h.06a7.65,7.65,0,0,1,7-4.75c4.3,0,5.46,2.59,5.46,6.57V23.6h-1.39V13.42c0-2.94-.36-5.7-4.07-5.7a7.16,7.16,0,0,0-6.95,7.48v8.4H237.2ZM77.27,24A7.82,7.82,0,0,1,71,21.21l1-1a6.76,6.76,0,0,0,5.29,2.47c2.18,0,4.19-1,4.19-3.05,0-4.09-9.82-3.18-9.82-8.4C71.68,8.43,74.14,7,77.51,7c1.47,0,4.81.62,4.81,2.76V11H80.89v-.78c0-1.36-2.12-1.88-3.31-1.88-2.76,0-4.4.94-4.4,2.79,0,4.15,9.82,3.15,9.82,8.5C83,22.22,80.51,24,77.27,24ZM8.79,24V2.31H2.11c-.49,0-.72.2-.72.73V4.65H0V2.77C0,1.43.43,1,1.78,1H17.22C18.57,1,19,1.43,19,2.77V4.65H17.61V3c0-.53-.23-.73-.72-.73H10.21V24ZM19,15.53C19,20.69,22.66,24,27.08,24a8.42,8.42,0,0,0,5.58-2.24l-.72-1.13a7,7,0,0,1-4.86,2c-3.63,0-6.7-2.69-6.7-7.4H32.94s.06-.52.06-.87C33,10.47,30.87,7,26.61,7,22.6,7,19,10.05,19,15.53ZM20.47,14c.57-3.8,3.23-5.74,6.11-5.74,2.6,0,4.89,1.78,5,5.74ZM36,24V22.91L46.1,10.72c.6-.74,1.3-1.47,1.3-1.47V9.18a16.33,16.33,0,0,1-1.7.07H38.2c-.47,0-.73.22-.73.7v1.38H36.1V9.86C36.1,8.54,36.67,8,38,8H49.3V9.09L39.17,21.28c-.6.74-1.34,1.47-1.34,1.47v.07s.64-.07,1.74-.07H47.9c.47,0,.73-.22.73-.7V20.67H50v1.47c0,1.32-.57,1.86-1.93,1.86Zm16-8.6c0,4.84,3.58,8.6,8,8.6s8-3.76,8-8.6a8,8,0,1,0-16,0Zm1.36,0a6.65,6.65,0,1,1,13.28,0c0,4.12-3,7.27-6.64,7.27S53.36,19.52,53.36,15.4Z"/></g></g></svg>