<?xml version="1.0" encoding="UTF-8" standalone="no"?>
<svg
   viewBox="-6.3837824e-16 0 1326.9439 491.40117"
   height="409.50098"
   width="1105.7866"
   xml:space="preserve"
   id="svg2"
   version="1.1"
   sodipodi:docname="aivero.svg"
   inkscape:version="1.1.1 (3bf5ae0d25, 2021-09-20)"
   xmlns:inkscape="http://www.inkscape.org/namespaces/inkscape"
   xmlns:sodipodi="http://sodipodi.sourceforge.net/DTD/sodipodi-0.dtd"
   xmlns="http://www.w3.org/2000/svg"
   xmlns:svg="http://www.w3.org/2000/svg"
   xmlns:rdf="http://www.w3.org/1999/02/22-rdf-syntax-ns#"
   xmlns:cc="http://creativecommons.org/ns#"
   xmlns:dc="http://purl.org/dc/elements/1.1/"><sodipodi:namedview
     id="namedview95"
     pagecolor="#ffffff"
     bordercolor="#666666"
     borderopacity="1.0"
     inkscape:pageshadow="2"
     inkscape:pageopacity="0.0"
     inkscape:pagecheckerboard="0"
     showgrid="false"
     inkscape:zoom="0.94417581"
     inkscape:cx="449.59847"
     inkscape:cy="277.49069"
     inkscape:window-width="1920"
     inkscape:window-height="1163"
     inkscape:window-x="0"
     inkscape:window-y="0"
     inkscape:window-maximized="1"
     inkscape:current-layer="svg2"
     scale-x="1.2"
     width="1120.52px"
     fit-margin-top="100"
     fit-margin-left="100"
     fit-margin-right="100"
     fit-margin-bottom="100" /><metadata
     id="metadata8"><rdf:RDF><cc:Work
         rdf:about=""><dc:format>image/svg+xml</dc:format><dc:type
           rdf:resource="http://purl.org/dc/dcmitype/StillImage" /></cc:Work></rdf:RDF></metadata><defs
     id="defs6"><clipPath
       id="clipPath18"
       clipPathUnits="userSpaceOnUse"><path
         id="path16"
         d="M 0,215 H 841.89 V 0 H 0 Z" /></clipPath></defs><g
     transform="matrix(1.3333333,0,0,-1.3333333,104.27733,389.46039)"
     id="g10"
     style="mix-blend-mode:normal;fill:#979aad;fill-opacity:1"><g
       id="g12"
       style="fill:#979aad;fill-opacity:1"><g
         clip-path="url(#clipPath18)"
         id="g14"
         style="fill:#979aad;fill-opacity:1"><g
           transform="translate(104.9458,104.7886)"
           id="g20"
           style="fill:#979aad;fill-opacity:1"><path
             id="path22"
             style="fill:#979aad;fill-opacity:1;fill-rule:nonzero;stroke:none"
             d="m 0,0 c -7.135,-7.208 -10.702,-15.903 -10.702,-26.083 0,-10.253 3.567,-18.982 10.702,-26.19 7.204,-7.131 15.938,-10.699 26.191,-10.699 10.253,0 18.943,3.568 26.078,10.699 7.204,7.208 10.815,15.937 10.815,26.19 0,10.18 -3.611,18.875 -10.815,26.083 C 45.065,7.204 36.366,10.811 26.191,10.811 15.938,10.811 7.204,7.204 0,0 m 71.549,19.28 c 12.56,-12.56 18.84,-27.681 18.84,-45.363 v -50.709 c 0,-3.789 -1.339,-6.946 -4.017,-9.472 -2.678,-2.674 -5.83,-4.013 -9.476,-4.013 h -0.328 c -3.645,0 -6.798,1.339 -9.476,4.013 -2.678,2.526 -4.008,5.683 -4.008,9.472 -8.474,-8.988 -20.774,-13.485 -36.893,-13.485 -17.682,0 -32.808,6.28 -45.358,18.836 -12.561,12.555 -18.84,27.676 -18.84,45.358 0,17.682 6.279,32.803 18.84,45.363 12.55,12.555 27.676,18.835 45.358,18.835 17.682,0 32.799,-6.28 45.358,-18.835" /></g><g
           transform="translate(238.8281,164.7793)"
           id="g24"
           style="fill:#979aad;fill-opacity:1"><path
             id="path26"
             style="fill:#979aad;fill-opacity:1;fill-rule:nonzero;stroke:none"
             d="m 0,0 c -5.172,0 -9.588,1.83 -13.247,5.483 -3.659,3.654 -5.483,8.07 -5.483,13.243 0,5.079 1.824,9.448 5.483,13.107 3.659,3.654 8.075,5.483 13.247,5.483 5.079,0 9.443,-1.829 13.102,-5.483 3.742,-3.571 5.619,-7.94 5.619,-13.107 0,-5.261 -1.877,-9.677 -5.619,-13.243 C 9.443,1.83 5.079,0 0,0" /></g><g
           transform="translate(238.9829,142.9038)"
           id="g28"
           style="fill:#979aad;fill-opacity:1"><path
             id="path30"
             style="fill:#979aad;fill-opacity:1;fill-rule:nonzero;stroke:none"
             d="m 0,0 c 3.792,0 6.954,-1.339 9.476,-4.012 2.678,-2.678 4.017,-5.87 4.017,-9.584 v -101.312 c 0,-3.788 -1.339,-6.945 -4.017,-9.471 -2.522,-2.674 -5.684,-4.013 -9.476,-4.013 h -0.216 c -3.723,0 -6.91,1.339 -9.588,4.013 -2.678,2.526 -4.009,5.683 -4.009,9.471 v 101.312 c 0,3.714 1.331,6.906 4.009,9.584 C -7.126,-1.339 -3.939,0 -0.216,0 Z" /></g><g
           transform="translate(335.1416,52.2949)"
           id="g32"
           style="fill:#979aad;fill-opacity:1"><path
             id="path34"
             style="fill:#979aad;fill-opacity:1;fill-rule:nonzero;stroke:none"
             d="m 0,0 35.33,82.359 c 2.375,5.499 6.539,8.25 12.482,8.25 h 0.225 c 4.828,0 8.577,-2.047 11.255,-6.133 1.563,-2.302 2.341,-4.717 2.341,-7.243 0,-1.784 -0.406,-3.602 -1.227,-5.46 l -41.35,-96.629 c -3.412,-8.617 -9.735,-12.927 -18.944,-12.927 -9.363,0 -15.712,4.31 -19.055,12.927 l -41.463,96.629 c -0.743,1.858 -1.114,3.637 -1.114,5.348 0,2.526 0.777,4.98 2.341,7.355 2.678,4.086 6.427,6.133 11.255,6.133 h 0.337 c 5.943,0 10.064,-2.751 12.37,-8.25 C -17.458,40.828 -7.204,16.9 -4.457,10.586 -4.457,10.288 -2.971,6.759 0,0" /></g><g
           transform="translate(472.8047,114.415)"
           id="g36"
           style="fill:#979aad;fill-opacity:1"><path
             id="path38"
             style="fill:#979aad;fill-opacity:1;fill-rule:nonzero;stroke:none"
             d="m 0,0 c -10.545,-0.619 -20.805,-5.407 -27.429,-13.636 -6.359,-7.9 -9.014,-16.948 -7.966,-27.147 l 0.081,-0.778 59.117,34.203 C 18.114,-1.856 10.178,0.597 0,0 m -22.534,-65.54 c 6.227,-6.395 15.364,-9.285 26.931,-8.23 6.78,0.619 13.485,2.955 18.88,7.105 7.04,5.415 12.146,12.717 14.265,20.896 1.418,5.477 5.028,9.725 10.612,10.635 5.025,0.821 9.22,-0.684 12.575,-4.502 1.944,-2.192 3.049,-4.579 3.316,-7.166 0.159,-1.551 0.021,-3.172 -0.396,-4.856 -3.064,-13.089 -9.663,-24.074 -19.803,-32.959 -10.397,-9.327 -22.589,-14.649 -36.576,-15.974 -16.685,-1.58 -33.499,3.59 -46.498,14.168 -13.447,10.943 -21.189,24.931 -23.227,41.96 -2.123,17.753 3.456,35.963 15.05,49.574 11.041,12.962 25.081,20.321 42.107,22.073 12.709,1.307 24.675,-0.975 35.881,-6.843 11.123,-5.729 19.768,-13.875 25.935,-24.447 1.075,-1.756 1.715,-3.592 1.914,-5.517 0.159,-1.551 0.017,-3.133 -0.415,-4.745 -0.898,-3.605 -3.002,-6.361 -6.314,-8.269" /></g><g
           transform="translate(614.9287,142.9038)"
           id="g40"
           style="fill:#979aad;fill-opacity:1"><path
             id="path42"
             style="fill:#979aad;fill-opacity:1;fill-rule:nonzero;stroke:none"
             d="m 0,0 c 3.714,0 6.901,-1.339 9.579,-4.012 2.601,-2.678 3.905,-5.87 3.905,-9.584 v -0.225 c 0,-3.714 -1.304,-6.871 -3.905,-9.471 C 6.901,-25.97 3.714,-27.305 0,-27.305 h -6.357 c -6.09,0 -11.256,-2.121 -15.489,-6.353 -4.164,-4.237 -6.28,-9.403 -6.357,-15.492 v -65.758 c 0,-3.788 -1.339,-6.945 -4.009,-9.471 -2.678,-2.674 -5.839,-4.013 -9.476,-4.013 h -0.336 c -3.637,0 -6.798,1.339 -9.467,4.013 -2.678,2.526 -4.017,5.683 -4.017,9.471 v 65.758 c 0.147,13.596 4.941,25.188 14.382,34.772 C -31.546,-4.794 -19.954,0 -6.357,0 Z" /></g><g
           transform="translate(813.291,14.5093)"
           id="g44"
           style="fill:#979aad;fill-opacity:1"><path
             id="path46"
             style="fill:#979aad;fill-opacity:1;fill-rule:nonzero;stroke:none"
             d="m 0,0 v 0 c -7.57,0 -13.708,6.137 -13.708,13.708 v 50.87 c 0,50.436 -40.887,91.321 -91.322,91.321 h -423.866 c -7.571,0 -13.708,6.138 -13.708,13.709 0,7.571 6.137,13.709 13.708,13.709 h 423.866 c 65.578,0 118.739,-53.161 118.739,-118.739 V 13.708 C 13.709,6.137 7.571,0 0,0" /></g><g
           transform="translate(25.5,14.5093)"
           id="g48"
           style="fill:#979aad;fill-opacity:1"><path
             id="path50"
             style="fill:#979aad;fill-opacity:1;fill-rule:nonzero;stroke:none"
             d="m 0,0 v 0 c -7.571,0 -13.708,6.137 -13.708,13.708 v 50.887 c 0,65.569 53.153,118.722 118.721,118.722 h 62.993 c 7.572,0 13.709,-6.138 13.709,-13.709 0,-7.571 -6.137,-13.709 -13.709,-13.709 h -62.993 c -50.426,0 -91.305,-40.878 -91.305,-91.304 V 13.708 C 13.708,6.137 7.571,0 0,0" /></g><g
           transform="translate(708.3174,115.332)"
           id="g52"
           style="fill:#979aad;fill-opacity:1"><path
             id="path54"
             style="fill:#979aad;fill-opacity:1;fill-rule:nonzero;stroke:none"
             d="m 0,0 c -10.25,0 -18.979,-3.603 -26.183,-10.807 -7.128,-7.204 -10.695,-15.931 -10.695,-26.18 0,-10.177 3.567,-18.865 10.695,-26.069 7.204,-7.205 15.933,-10.807 26.183,-10.807 10.173,0 18.863,3.602 26.067,10.807 7.204,7.204 10.806,15.892 10.806,26.069 0,10.249 -3.602,18.976 -10.806,26.18 C 18.863,-3.603 10.173,0 0,0 M 0,27.519 C 17.676,27.519 32.791,21.24 45.341,8.69 57.892,-3.862 64.17,-18.977 64.17,-36.653 64.17,-54.33 57.892,-69.444 45.341,-81.995 32.791,-94.548 17.676,-100.823 0,-100.823 c -17.677,0 -32.792,6.275 -45.342,18.828 -12.554,12.551 -18.828,27.665 -18.828,45.342 0,17.676 6.274,32.791 18.828,45.343 12.55,12.55 27.665,18.829 45.342,18.829" /></g></g></g></g></svg>
