
<svg width="290" height="100" version="1.1" viewBox="-15 -15 310 120" xmlns="http://www.w3.org/2000/svg" xmlns:cc="http://creativecommons.org/ns#" xmlns:dc="http://purl.org/dc/elements/1.1/" xmlns:rdf="http://www.w3.org/1999/02/22-rdf-syntax-ns#">
<g transform="translate(0,-197)">
<path d="m42.613 247v-50h4.0816v100h-4.0816zm-41.603 33.206c0.30872-0.72494 6.7535-16.197 14.322-34.383l13.76-33.065 0.04359 12.741 0.04359 12.742-3.9126 9.7764c-2.1519 5.377-3.9126 9.8349-3.9126 9.9064 0 0.0715 1.7602 0.12996 3.9116 0.12996h3.9116v9.3538h-11.682l-5.5797 14.112-11.467 4e-3 0.56133-1.318zm277.4-25.917-11.054-12.099-0.0438 11.334-0.0438 11.334h-5.6098v-37.255l7.1854 7.8731c3.952 4.3302 8.9456 9.8061 11.097 12.169l3.9116 4.2956 0.0876-22.627h5.6098v18.537c0 10.196-0.0201 18.537-0.043 18.537-0.0237 0-5.0173-5.4446-11.097-12.099zm-213.13 10.271c0.07308-0.25198 13.928-33.576 14.961-35.984 0.23799-0.55487 0.39435-0.74869 0.48019-0.59523 0.09617 0.17194 14.83 35.601 15.247 36.665 0.06488 0.1653-0.59654 0.21257-2.9722 0.21257h-3.0557l-3.0237-7.6519-12.585 0.0017-1.5182 3.8251-1.5182 3.8252h-3.0509c-2.8252 0-3.0446-0.0221-2.9645-0.29763zm19.511-12.456c0-0.14783-4.052-10.397-4.1511-10.5-0.04698-0.0488-4.0063 9.8448-4.1318 10.325-0.08857 0.3389-0.02349 0.34438 4.0964 0.34438 2.6576 0 4.1865-0.0617 4.1865-0.16893zm25.68-5.0306v-17.784l6.5901 0.0667c6.2396 0.0631 6.6579 0.087 7.8644 0.44958 1.9475 0.58525 3.1783 1.315 4.6115 2.7341 1.5112 1.4964 2.4868 3.3091 2.9648 5.509 0.44852 2.0641 0.2858 5.5045-0.34969 7.3929-0.91216 2.7106-2.889 5.0259-5.2252 6.1196-0.53678 0.2513-0.9577 0.51171-0.93538 0.57866 0.0223 0.0669 2.1069 2.8932 4.6324 6.2805 2.5255 3.3874 4.6173 6.2216 4.6485 6.2983 0.0311 0.0768-1.3464 0.1386-3.0612 0.13759l-3.1179-2e-3 -4.4923-6.0406-4.4923-6.0406-3.9406 0.0952-0.0446 5.9949-0.0446 5.9949h-5.6079zm12.379 0.61439c3.5047-0.66466 5.426-3.8004 4.8308-7.8841-0.38335-2.6302-1.7325-4.3785-3.894-5.0461-0.94758-0.29266-1.5817-0.34187-4.4053-0.34187h-3.2984v13.435h2.953c1.6241 0 3.3404-0.0735 3.8139-0.1633zm26.566-0.60205v-17.772h5.4422v35.544h-5.4422zm29.89 3.3588c4.8241-7.9273 8.9192-14.662 9.1004-14.966l0.32934-0.55271h-14.149v-5.6122h24.144l-1.9417 3.1888c-1.068 1.7538-5.1563 8.4694-9.0851 14.923l-7.1434 11.735 17.666 0.088v5.6092h-27.691zm46.046 14.226c-2.2409-0.31984-5.0531-1.4238-7.2125-2.8314-1.2519-0.81602-4.0274-3.6044-4.8645-4.887-3.6959-5.6634-3.9496-13.172-0.63202-18.71 2.5699-4.2901 6.2757-7.1047 11.008-8.3609 1.5026-0.39884 2.0176-0.45141 4.4218-0.45141 2.4062 0 2.9179 0.0522 4.4218 0.45224 6.3697 1.6938 11.088 6.4121 12.782 12.782 0.39989 1.5039 0.45224 2.0156 0.45224 4.4218 0 2.4067-0.0522 2.9171-0.45206 4.4178-2.3658 8.8797-10.82 14.467-19.925 13.167zm5.5928-5.7603c3.4926-0.89327 6.5945-3.4031 8.0972-6.5517 0.91155-1.91 1.2491-3.618 1.1422-5.7797-0.051-1.0308-0.22217-2.2951-0.38037-2.8095-1.301-4.2304-4.6735-7.4487-8.9351-8.5263-1.9765-0.49982-4.6008-0.39479-6.5372 0.26163-3.6847 1.2491-6.5131 4.0452-7.8503 7.7606-0.41293 1.1473-0.45812 1.5066-0.46995 3.7354-0.0121 2.1524 0.0374 2.6174 0.38404 3.6565 1.7385 5.2118 6.2531 8.5483 11.608 8.5791 1.0937 6e-3 2.0627-0.10104 2.9415-0.32582z" fill="#979AAD" stroke-width=".17007"/>
</g>
</svg>
