<svg width="89" height="48" xmlns="http://www.w3.org/2000/svg"><g fill="none"><path d="M60.44569 0H28.92555c-7.18381 0-13.007438 5.823629-13.007438 13.007439v.836557c0 7.18381 5.823628 13.007439 13.007438 13.007439h44.527577V13.007439C73.453128 5.823629 67.6295 0 60.44569 0Z" fill="#979AAD"/><g transform="matrix(-1 0 0 1 55.27451 28.820404)"><path d="M27.267071 0H9.589797C4.293498 0 0 4.293499 0 9.589798c0 5.2963 4.2935 9.589798 9.589798 9.589798H40.27451V13.00744C40.27451 5.823629 34.450881 0 27.267071 0Z" fill="#979AAD"/><ellipse fill="#FFF" cx="11.578412" cy="9.623149" rx="2.397292" ry="2.39745"/><ellipse fill="#FFF" cx="19.994438" cy="9.623149" rx="2.397292" ry="2.39745"/><ellipse fill="#FFF" cx="28.410464" cy="9.623149" rx="2.397292" ry="2.39745"/></g><path d="M31.653276 12.84931c.587594.201998 1.016807.514174 1.287652.936535.270844.422361.406264.92276.406264 1.501211 0 .633542-.149192 1.170668-.44758 1.611393-.298387.440724-.71842.771263-1.260108.991625-.541689.220363-1.17518.330542-1.900492.330542h-3.9387V8.042678h3.52555c.762037 0 1.41389.103293 1.955578.309883.541689.20659.95254.507288 1.232566.902104.280025.394816.420036.86767.420036 1.418576 0 1.046722-.426918 1.77207-1.280766 2.176068Zm-3.704582-2.892243v2.18984h1.22568c.504963 0 .888271-.087225 1.149935-.261679.261663-.174453.392492-.454493.392492-.840127 0-.36727-.128534-.640424-.385607-.819469-.257072-.179044-.619723-.268565-1.087962-.268565h-1.294538Zm1.707688 6.34916c.459058 0 .819414-.100997 1.081077-.302996.261663-.202.392493-.495811.392493-.881446 0-.394816-.133125-.690923-.399379-.888331-.266254-.197408-.647266-.29611-1.14305-.29611h-1.63883v2.368883h1.70769Zm12.284338-1.583846c0 .183635-.00459.32136-.013772.413177h-5.191923c.192805.973267.821705 1.459894 1.88672 1.459894.348885 0 .674811-.057386.97779-.172158.302978-.114772.601361-.296109.895159-.544017l1.005332 1.432349c-.403971.376452-.860727.656492-1.370282.840128-.509555.183635-1.081074.275451-1.714574.275451-.762037 0-1.434547-.156088-2.01755-.468268-.583005-.31218-1.03517-.757489-1.356511-1.33594-.321341-.578451-.48201-1.257892-.48201-2.038342 0-.817178.17444-1.521868.523325-2.114092.348884-.592224.812526-1.039828 1.39094-1.342827.578413-.302998 1.202723-.454495 1.872948-.454495.70695 0 1.328964.151497 1.866062.454495.537098.302999.959426.75749 1.266995 1.363486.307569.605997.461351 1.349709.461351 2.231158Zm-3.621952-2.355112c-.39479 0-.729897.126247-1.005332.378746-.275435.252498-.463646.599105-.56464 1.03983h3.043542c-.064268-.440725-.220346-.787332-.468237-1.03983-.247891-.252499-.582999-.378746-1.005333-.378746Zm10.039555 6.073709c-.872211 0-1.70998-.204292-2.513332-.61288-.803352-.408589-1.459795-1.012281-1.96935-1.811095-.509555-.798814-.764328-1.753703-.764328-2.864697 0-1.13854.254773-2.111792.764328-2.919787.509555-.807996 1.165998-1.411688 1.96935-1.811095.803352-.399407 1.64112-.599107 2.513331-.599107.872211 0 1.716866.201996 2.53399.605993.817123.403998 1.485043 1.00769 2.003779 1.811095.518736.803405.7781 1.774362.7781 2.912901 0 1.110994-.257069 2.065883-.771214 2.864697-.514145.798814-1.17977 1.402506-1.996894 1.811095-.817124.408588-1.666369.61288-2.54776.61288Zm0-2.120978c.514145 0 1.00533-.119361 1.47357-.358087.468239-.238726.849251-.59681 1.143049-1.074262.293797-.477452.440693-1.055894.440693-1.735345 0-.706996-.146896-1.303802-.440693-1.790436-.293798-.486633-.672515-.847012-1.136164-1.081147-.463649-.234135-.957129-.351201-1.480455-.351201-.523327 0-1.009921.117066-1.459799.3512-.449877.234136-.814822.59222-1.094848 1.074262-.280026.482043-.420036 1.081144-.420036 1.797322 0 .67945.14001 1.257893.420036 1.735345s.647267.835536 1.101734 1.074262c.454468.238726.938767.358087 1.452912.358087Zm11.444265-5.632986c.716131 0 1.33126.16986 1.845405.509585.514145.339726.906634.803398 1.177478 1.391031.270845.587633.406265 1.239529.406265 1.955707s-.146896 1.370369-.440693 1.962593c-.293798.592224-.702354 1.060487-1.22568 1.404803-.523326.344317-1.120093.516472-1.790318.516472-.504965 0-.95254-.100998-1.342739-.302997-.3902-.201999-.718421-.48663-.984675-.8539v3.78746h-2.107067V10.907375h1.996893l.08263 1.032944c.266254-.394816.601362-.7024 1.005333-.922763.403971-.220363.863023-.330542 1.377168-.330542Zm-.550867 5.894665c.348884 0 .661039-.08034.936474-.24102.275435-.160681.493484-.392517.654155-.695515.16067-.302999.241004-.665673.241004-1.088035 0-.431543-.075743-.798808-.227233-1.101806-.151489-.302999-.358062-.53254-.619725-.68863-.261663-.15609-.562342-.234133-.902045-.234133s-.654153.078044-.94336.234134-.518733.387926-.688584.695515c-.169852.30759-.254776.67256-.254776 1.09492 0 .431544.078039.798809.234118 1.101807.15608.302998.36954.53254.640383.68863.270845.15609.580705.234133.929589.234133Z" fill="#FFF"/></g></svg>