<svg width="938" height="222" viewBox="0 0 938 222" fill="none" xmlns="http://www.w3.org/2000/svg">
<path d="M320.084 167.13C305.6 167.13 293.388 162.302 283.448 152.646C273.508 142.99 268.538 130.352 268.538 114.732C268.538 99.2067 273.555 86.5687 283.59 76.818C293.719 67.0673 305.789 62.192 319.8 62.192C332.675 62.192 342.993 65.458 350.756 71.99C358.613 78.522 363.678 86.3793 365.95 95.562L347.49 101.384C346.07 95.704 343.088 90.9233 338.544 87.042C334 83.066 327.752 81.078 319.8 81.078C311.564 81.078 304.322 84.0127 298.074 89.882C291.921 95.7513 288.844 104.035 288.844 114.732C288.844 124.956 291.873 133.05 297.932 139.014C304.085 144.978 311.469 147.96 320.084 147.96C327.941 147.96 334.189 145.925 338.828 141.854C343.561 137.783 346.733 132.955 348.342 127.37L366.66 132.908C365.619 136.979 363.915 140.955 361.548 144.836C359.276 148.717 356.294 152.362 352.602 155.77C348.91 159.178 344.224 161.923 338.544 164.006C332.959 166.089 326.805 167.13 320.084 167.13ZM447.085 165L438.707 141.996H397.811L389.433 165H368.701L407.325 64.322H430.045L468.385 165H447.085ZM418.259 86.048L404.343 124.104H432.175L418.259 86.048ZM593.584 165H574.272V94.426L545.304 165H528.974L500.006 94.994V165H481.262V64.322H507.106L537.352 137.026L566.888 64.322H593.584V165ZM679.654 165H616.606V64.322H679.654V82.782H636.202V105.786H675.536V123.252H636.202V146.54H679.654V165ZM763.722 165H699.254V64.322H718.85V146.256H763.722V165ZM799.099 89.882C792.851 95.6567 789.727 103.893 789.727 114.59C789.727 125.287 792.851 133.571 799.099 139.44C805.347 145.215 812.683 148.102 821.109 148.102C829.629 148.102 837.013 145.215 843.261 139.44C849.509 133.571 852.633 125.287 852.633 114.59C852.633 103.893 849.509 95.6567 843.261 89.882C837.013 84.0127 829.629 81.078 821.109 81.078C812.683 81.078 805.347 84.0127 799.099 89.882ZM769.421 114.732C769.421 99.0173 774.485 86.332 784.615 76.676C794.744 67.02 806.909 62.192 821.109 62.192C835.403 62.192 847.615 67.02 857.745 76.676C867.874 86.332 872.939 99.0173 872.939 114.732C872.939 130.352 867.874 142.99 857.745 152.646C847.615 162.302 835.403 167.13 821.109 167.13C806.909 167.13 794.744 162.302 784.615 152.646C774.485 142.99 769.421 130.352 769.421 114.732Z" fill="#979AAD"/>
<rect x="77" y="33" width="156" height="156" rx="16" fill="#979AAD"/>
<g clip-path="url(#clip0_103_5)">
<path d="M170.216 105.558L140.54 135.234L164.906 159.599C166.865 161.559 170.216 160.171 170.216 157.4L170.216 105.558Z" fill="white"/>
<path d="M172.511 75.9432L199.282 102.714C200.497 103.929 200.497 105.899 199.282 107.113L171.333 135.062L171.333 76.4311C171.333 75.8164 172.077 75.5085 172.511 75.9432Z" fill="white"/>
<path d="M109.335 105.552L139.015 135.233L114.644 159.604C112.685 161.563 109.335 160.175 109.335 157.404L109.335 105.552Z" fill="white"/>
<path d="M109.611 104.35L137.56 76.4008C138.775 75.1861 140.744 75.1861 141.959 76.4008L169.908 104.35L139.76 134.499L109.611 104.35Z" fill="white"/>
<circle cx="182.978" cy="68.7252" r="11.725" fill="white"/>
</g>
<defs>
<clipPath id="clip0_103_5">
<rect width="92" height="108.429" fill="white" transform="translate(109 57.0001)"/>
</clipPath>
</defs>
</svg>
