<svg width="81" height="24" viewBox="0 0 81 24" fill="none" xmlns="http://www.w3.org/2000/svg">
<path d="M50.2211 0.492793V23.0738C50.2211 23.3685 50.4133 23.5666 50.6994 23.5666H54.1864C54.4725 23.5666 54.6647 23.3685 54.6647 23.0738V0.492793C54.6647 0.198038 54.4725 0 54.1864 0H50.6994C50.4133 0 50.2211 0.198038 50.2211 0.492793ZM11.5516 0.230779C5.14996 0.230779 0 5.37057 0 12.1315C0 18.8878 5.14996 23.9954 11.5472 24C14.748 24 17.4035 22.715 19.3883 20.6379C19.6119 20.4077 19.5806 20.1774 19.3883 19.9794L17.1486 17.5062C16.9564 17.2759 16.7016 17.2759 16.4781 17.4739C15.1369 18.6253 13.5365 19.3852 11.5516 19.3852C7.61764 19.3852 4.64033 16.3179 4.64033 12.1315C4.64033 7.94507 7.61764 4.84553 11.5516 4.84553C13.5365 4.84553 15.1325 5.60084 16.4781 6.75683C16.7016 6.95487 16.9564 6.95487 17.1486 6.7246L19.3928 4.25142C19.585 4.02114 19.6163 3.79087 19.3928 3.56059C17.4079 1.51573 14.7525 0.230779 11.5516 0.230779ZM36.7113 23.0738V7.91235C36.7113 7.61299 36.5191 7.41495 36.233 7.42877H33.0992C32.8131 7.42877 32.6209 7.62681 32.6209 7.92156L32.5583 9.6993C31.5033 8.05052 29.809 7.02809 27.4396 7.02809C23.0228 7.02809 19.9829 10.7171 19.9829 15.4977C19.9829 20.3105 23.0228 23.9673 27.4396 23.9673C29.8045 23.9673 31.472 22.9448 32.5583 21.2961L32.6209 23.0738C32.6209 23.3686 32.8131 23.5666 33.0992 23.5666H36.2017C36.4878 23.5666 36.7113 23.3686 36.7113 23.0738ZM28.365 11.1731C30.6986 11.1731 32.3303 12.8909 32.3303 15.4931C32.3303 18.0952 30.6986 19.8085 28.365 19.8131C26.027 19.8131 24.3014 18.0952 24.3014 15.4931C24.3014 12.9186 26.0315 11.1731 28.365 11.1731ZM48.2853 8.07355V10.9106C48.2853 11.3066 48.0618 11.4034 47.646 11.3066C47.2929 11.2099 46.9442 11.1408 46.4926 11.1408C44.3155 11.1408 43.1666 12.6883 43.1666 14.9957V23.0738C43.1666 23.3686 42.9744 23.5666 42.6883 23.5666H39.2326C38.9465 23.5666 38.7543 23.3686 38.7543 23.0738V7.91235C38.7543 7.6176 38.9465 7.41956 39.2326 7.41956H42.5587C42.8448 7.41956 43.037 7.55312 43.037 7.9492L43.1666 10.0263C43.712 8.31304 44.7045 7.02809 46.5597 7.02809C47.2973 7.02809 47.7444 7.22613 47.9992 7.42416C48.2227 7.58075 48.2853 7.77879 48.2853 8.07355ZM72.9131 7.91235V23.0738C72.9131 23.3686 72.6896 23.5666 72.399 23.5666H69.2965C69.0104 23.5666 68.8182 23.3686 68.8182 23.0738L68.7556 21.2961C67.6693 22.9448 66.0018 23.9673 63.6369 23.9673C59.2201 23.9673 56.1802 20.3105 56.1802 15.4977C56.1802 10.7171 59.2201 7.02809 63.6369 7.02809C66.0063 7.02809 67.7006 8.05052 68.7556 9.6993L68.8182 7.92156C68.8182 7.62681 69.0104 7.42877 69.2965 7.42877H72.4303C72.7209 7.41495 72.9131 7.61299 72.9131 7.91235ZM68.5321 15.4931C68.5321 12.8909 66.9004 11.1731 64.5623 11.1731C62.2243 11.1731 60.4987 12.9186 60.4987 15.4931C60.4987 18.0952 62.2243 19.8131 64.5623 19.8131C66.9004 19.8131 68.5321 18.0952 68.5321 15.4931ZM77.7366 18.7263C76.3373 18.7263 75.1884 19.9099 75.1884 21.3514C75.1884 22.793 76.3373 23.9766 77.7366 23.9766C79.109 23.9766 80.2579 22.793 80.2579 21.3514C80.2579 19.9099 79.109 18.7263 77.7366 18.7263Z" fill="#979AAD"/>
</svg>
