<svg width="60" height="48" viewBox="0 0 60 48" fill="none" xmlns="http://www.w3.org/2000/svg">
<path d="M34.0799 18.0141C34.0799 16.9733 34.4295 16.1034 35.1511 15.3532C35.866 14.6055 36.7217 14.2426 37.7597 14.2426C38.7835 14.2426 39.6608 14.6179 40.3679 15.3532C41.0882 16.1034 41.4407 16.9733 41.4407 18.0141V21.7516H37.7597C36.7217 21.7516 35.866 21.3942 35.1494 20.656C34.4295 19.919 34.0799 19.0521 34.0799 18.0141ZM42.6896 13.1307C41.3207 11.7876 39.6621 11.1083 37.7705 11.1083C35.8735 11.1083 34.2181 11.7876 32.8543 13.1307C31.4866 14.4726 30.7933 16.1155 30.7933 18.0141C30.7933 19.9107 31.4866 21.5515 32.8559 22.883C34.2198 24.2141 35.8735 24.8884 37.7705 24.8884H44.7572V18.0141C44.7572 16.1155 44.0605 14.4726 42.6896 13.1307Z" fill="#979AAD"/>
<path d="M22.3746 31.9943C21.6438 31.9943 20.8712 31.7149 20.1986 31.2092C16.0455 28.1057 13.6631 23.2908 13.6631 17.9972C13.6631 12.7052 16.0455 7.88822 20.1986 4.78304C20.8712 4.27818 21.6438 4 22.3762 4C23.0742 4 23.6015 4.26115 23.7816 4.69793C24.2039 5.68317 23.3523 6.92208 22.3837 7.65945C19.1361 10.0895 17.2711 13.8573 17.2711 17.9972C17.2711 22.137 19.1361 25.9048 22.3862 28.3349C23.3507 29.0698 24.2026 30.3107 23.787 31.2918C23.6015 31.7332 23.0742 31.9943 22.3746 31.9943Z" fill="#979AAD"/>
<path d="M28.7516 28.1209C28.1031 28.1209 27.4313 27.883 26.8575 27.4512C23.8549 25.208 22.1335 21.7308 22.1335 17.9098C22.1335 14.0914 23.8557 10.6109 26.8575 8.36554C27.4317 7.93541 28.1043 7.69958 28.7516 7.69958C29.5023 7.69958 30.1122 8.04252 30.3426 8.59306C30.7686 9.60404 30.0628 10.7392 29.1718 11.4188C27.1316 12.9421 25.9587 15.3099 25.9587 17.9098C25.9587 20.511 27.1291 22.8755 29.1672 24.3996C30.0599 25.0793 30.7673 26.2181 30.3409 27.2283C30.1093 27.7805 29.5023 28.1209 28.7516 28.1209Z" fill="#979AAD"/>
<path d="M16.5432 43.8779C14.6233 43.8779 13.663 42.8242 13.663 40.7167C13.663 39.6684 13.9246 38.8675 14.4469 38.314C14.9688 37.7606 15.7174 37.4837 16.6922 37.4837C17.4055 37.4837 18.0457 37.6236 18.612 37.903L18.1155 39.205C17.8506 39.0983 17.6044 39.0111 17.376 38.943C17.1481 38.8749 16.9202 38.8409 16.6922 38.8409C15.8166 38.8409 15.379 39.4624 15.379 40.7055C15.379 41.912 15.8166 42.5153 16.6922 42.5153C17.0157 42.5153 17.3154 42.4721 17.5915 42.3858C17.8672 42.2994 18.1429 42.164 18.419 41.9801V43.42C18.1466 43.5927 17.8718 43.7123 17.594 43.7787C17.3162 43.8447 16.9662 43.8779 16.5432 43.8779Z" fill="#979AAD"/>
<path d="M22.3526 43.8779C20.4328 43.8779 19.4725 42.8242 19.4725 40.7167C19.4725 39.6684 19.7336 38.8675 20.2563 38.314C20.7782 37.7606 21.5268 37.4837 22.5017 37.4837C23.215 37.4837 23.8552 37.6236 24.4215 37.903L23.9249 39.205C23.66 39.0983 23.4138 39.0111 23.1855 38.943C22.9575 38.8749 22.7296 38.8409 22.5017 38.8409C21.626 38.8409 21.1884 39.4624 21.1884 40.7055C21.1884 41.912 21.626 42.5153 22.5017 42.5153C22.8251 42.5153 23.1249 42.4721 23.401 42.3858C23.6766 42.2994 23.9527 42.164 24.2284 41.9801V43.42C23.9561 43.5927 23.6812 43.7123 23.4035 43.7787C23.1257 43.8447 22.7757 43.8779 22.3526 43.8779Z" fill="#979AAD"/>
<path d="M29.0779 40.9098L28.4269 40.9318C27.9378 40.9467 27.5736 41.0347 27.3345 41.1967C27.0954 41.3586 26.9758 41.6048 26.9758 41.9361C26.9758 42.4102 27.2481 42.6477 27.7925 42.6477C28.1823 42.6477 28.4937 42.5356 28.7275 42.311C28.9612 42.0868 29.0779 41.7887 29.0779 41.4175V40.9098ZM29.5744 43.7675L29.2489 42.9288H29.2049C28.9213 43.2859 28.6299 43.5333 28.3301 43.6712C28.0304 43.809 27.6397 43.8779 27.158 43.8779C26.5656 43.8779 26.0993 43.7089 25.7593 43.3702C25.4192 43.0322 25.249 42.5502 25.249 41.9249C25.249 41.2701 25.4778 40.7877 25.9357 40.4767C26.3937 40.1658 27.0841 39.9939 28.0075 39.9607L29.0779 39.9279V39.6576C29.0779 39.0323 28.7578 38.7197 28.118 38.7197C27.6251 38.7197 27.0455 38.8683 26.38 39.1664L25.8228 38.03C26.5324 37.6584 27.3196 37.4724 28.184 37.4724C29.0114 37.4724 29.6463 37.653 30.0876 38.0134C30.5289 38.3738 30.7494 38.9219 30.7494 39.6576V43.7675H29.5744Z" fill="#979AAD"/>
<path d="M32.2447 42.9787C32.2447 42.6698 32.3273 42.4361 32.493 42.2779C32.6586 42.1201 32.8994 42.0408 33.2158 42.0408C33.521 42.0408 33.7572 42.1218 33.9245 42.2837C34.0919 42.4456 34.1757 42.6773 34.1757 42.9787C34.1757 43.2694 34.091 43.4981 33.922 43.6654C33.7526 43.8328 33.5172 43.9166 33.2158 43.9166C32.9069 43.9166 32.6678 43.8348 32.4984 43.6713C32.3294 43.5077 32.2447 43.2764 32.2447 42.9787Z" fill="#979AAD"/>
<path d="M37.3867 43.7674H35.704V37.5994H37.3867V43.7674ZM35.6321 36.0051C35.6321 35.4571 35.9373 35.183 36.548 35.183C37.1584 35.183 37.4639 35.4571 37.4639 36.0051C37.4639 36.2663 37.3876 36.4693 37.2348 36.6146C37.082 36.7599 36.8532 36.8326 36.548 36.8326C35.9373 36.8326 35.6321 36.5569 35.6321 36.0051Z" fill="#979AAD"/>
<path d="M40.4926 40.6725C40.4926 41.2833 40.5927 41.7445 40.7932 42.0572C40.9938 42.3698 41.3201 42.5263 41.7727 42.5263C42.2215 42.5263 42.5441 42.371 42.7409 42.0601C42.9377 41.7495 43.0361 41.287 43.0361 40.6725C43.0361 40.0622 42.9368 39.6043 42.738 39.2987C42.5395 38.9935 42.214 38.8407 41.7614 38.8407C41.3126 38.8407 40.9892 38.9927 40.7903 39.2962C40.5919 39.5997 40.4926 40.0585 40.4926 40.6725ZM44.7574 40.6725C44.7574 41.6769 44.4925 42.462 43.9628 43.0283C43.4334 43.5946 42.6956 43.8782 41.7506 43.8782C41.1582 43.8782 40.6363 43.7482 40.1837 43.4891C39.7312 43.2297 39.3837 42.8572 39.1408 42.3719C38.8983 41.8861 38.7767 41.3198 38.7767 40.6725C38.7767 39.6649 39.0399 38.8814 39.5659 38.3222C40.0916 37.7633 40.831 37.4839 41.7834 37.4839C42.3759 37.4839 42.8982 37.6126 43.3504 37.87C43.8029 38.1274 44.1504 38.497 44.3933 38.979C44.6358 39.4606 44.7574 40.0252 44.7574 40.6725Z" fill="#979AAD"/>
<path d="M21.5716 31.8507C20.7133 31.6258 19.7481 30.9416 18.4427 29.6326C15.7659 26.9486 14.1977 23.6248 13.7705 19.7298C13.6765 18.8727 13.6908 16.9513 13.7978 16.0598C14.167 12.9846 15.2453 10.309 17.1032 7.85803C17.6654 7.1164 19.2727 5.5144 20.0027 4.9682C20.9125 4.28745 21.5266 4.04907 22.3706 4.04907C23.4202 4.04907 23.8876 4.48146 23.8278 5.39696C23.7765 6.18164 23.2939 6.88713 22.2155 7.75395C20.1038 9.45129 18.6876 11.4682 17.8976 13.9035C17.45 15.283 17.2646 16.5001 17.2683 18.0338C17.2754 20.9331 18.1267 23.5235 19.8242 25.8102C20.3225 26.4816 21.4901 27.6659 22.2269 28.2474C23.3266 29.1154 23.8506 29.9203 23.8506 30.7416C23.8506 31.7326 22.8954 32.1975 21.5716 31.8507H21.5716Z" fill="#979AAD"/>
<path d="M27.9927 27.9901C27.3068 27.7939 26.5314 27.2492 25.5735 26.2909C23.6841 24.4006 22.5396 21.97 22.2226 19.1746C22.139 18.437 22.1861 16.6675 22.3085 15.9494C22.824 12.9254 24.4133 10.2532 26.7415 8.49567C27.2936 8.07891 27.6209 7.91865 28.1705 7.79606C29.2302 7.5597 30.1342 7.97596 30.3787 8.81295C30.4982 9.22175 30.4319 9.68885 30.1836 10.1878C29.9563 10.6445 29.6732 10.9597 28.9328 11.5802C26.9488 13.243 25.9539 15.3632 25.9528 17.931C25.9515 20.4812 27.0639 22.7655 29.0878 24.3693C29.3393 24.5687 29.6527 24.8637 29.7842 25.025C30.6903 26.1362 30.6443 27.3483 29.676 27.8741C29.4044 28.0217 29.3131 28.0406 28.8161 28.0529C28.4702 28.0614 28.159 28.0377 27.9927 27.9901Z" fill="#979AAD"/>
<path d="M15.8516 43.8016C14.9374 43.6488 14.3022 43.1567 13.9567 42.3333C13.5668 41.4042 13.6324 39.6916 14.0901 38.8506C14.4203 38.244 15.0535 37.7808 15.7901 37.6072C16.2469 37.4994 17.1193 37.5014 17.6558 37.6112C18.0914 37.7005 18.557 37.8737 18.557 37.9466C18.557 37.9686 18.4551 38.2525 18.3306 38.5773L18.1043 39.1679L17.6217 39.0029C17.2599 38.8793 17.0333 38.8372 16.7165 38.8348C16.3404 38.832 16.264 38.8501 16.0223 38.9996C15.6577 39.2249 15.4658 39.6038 15.3885 40.2503C15.3264 40.7689 15.3837 41.4443 15.5165 41.7612C15.633 42.0394 15.8861 42.3099 16.1359 42.4234C16.5707 42.6209 17.3876 42.5354 18.0256 42.2256L18.3902 42.0485V42.7321V43.4157L18.101 43.5622C17.5913 43.8205 16.5978 43.9262 15.8516 43.8016Z" fill="#979AAD"/>
<path d="M21.8655 43.8316C21.8043 43.8174 21.6167 43.7779 21.4485 43.744C20.5391 43.5603 19.907 42.9219 19.6275 41.9047C19.5055 41.4607 19.4926 40.093 19.6061 39.6364C19.8469 38.6678 20.4198 38.0115 21.3139 37.6798C21.6017 37.5731 21.7548 37.5577 22.5328 37.557C23.3549 37.5564 23.4571 37.5678 23.879 37.7084C24.1301 37.792 24.3458 37.8785 24.3585 37.9005C24.3796 37.9372 23.9713 39.0781 23.9178 39.1317C23.9049 39.1447 23.688 39.0896 23.4359 39.0093C22.8182 38.8124 22.5118 38.7763 22.1652 38.8594C21.5334 39.011 21.235 39.5185 21.1853 40.5261C21.1395 41.4534 21.3367 42.0451 21.7919 42.3464C22.2333 42.6384 23.1453 42.5728 23.8937 42.195L24.2287 42.0258V42.7115V43.3971L24.0202 43.5132C23.6644 43.7112 23.2244 43.8099 22.5884 43.8341C22.252 43.8469 21.9267 43.8458 21.8655 43.8316L21.8655 43.8316Z" fill="#979AAD"/>
<path d="M26.6389 43.8045C26.1251 43.7029 25.6716 43.3354 25.4409 42.8337C25.3321 42.5971 25.313 42.4646 25.313 41.944C25.313 41.3685 25.3229 41.3146 25.4799 41.0308C25.8601 40.3434 26.6577 40.0405 28.2568 39.976L29.0942 39.9423L29.0788 39.6112C29.0617 39.2439 28.9536 39.0139 28.7146 38.8359C28.5801 38.7359 28.4834 38.7196 28.0473 38.7236C27.619 38.7276 27.4452 38.7595 26.963 38.9225L26.3887 39.1167L26.1167 38.5748L25.8448 38.0328L26.2462 37.8659C26.8943 37.5963 27.4576 37.5073 28.3352 37.5356C28.9196 37.5545 29.1673 37.5867 29.4119 37.6758C30.0074 37.8928 30.3892 38.2573 30.6121 38.8217C30.6904 39.0198 30.706 39.3857 30.7222 41.4019L30.7412 43.7512H30.1669H29.5926L29.4333 43.3342C29.3458 43.1048 29.2576 42.9171 29.2374 42.9171C29.2173 42.9171 29.0892 43.0317 28.9529 43.1718C28.8165 43.3119 28.6015 43.4877 28.475 43.5626C28.0549 43.8113 27.2255 43.9206 26.6389 43.8045H26.6389ZM28.331 42.574C28.7964 42.4317 29.0629 42.01 29.1085 41.3437L29.1389 40.901L28.4727 40.9248C27.8873 40.9457 27.7689 40.967 27.4951 41.1009C27.2466 41.2225 27.1603 41.3014 27.0685 41.4911C26.9338 41.7694 26.9225 42.0127 27.0321 42.275C27.1865 42.6444 27.7082 42.7645 28.331 42.574H28.331Z" fill="#979AAD"/>
<path d="M32.9866 43.8639C32.5166 43.7913 32.2914 43.4907 32.2917 42.9365C32.2921 42.3597 32.5895 42.0831 33.209 42.0831C33.8219 42.0831 34.1265 42.3686 34.1265 42.9431C34.1265 43.6356 33.7063 43.975 32.9866 43.8639Z" fill="#979AAD"/>
<path d="M35.739 40.693V37.6347H36.5453H37.3516V40.693V43.7513H36.5453H35.739V40.693Z" fill="#979AAD"/>
<path d="M36.0438 36.6966C35.7696 36.5721 35.6835 36.3979 35.6835 35.9682C35.6835 35.6996 35.7085 35.6116 35.8245 35.4739C36.0995 35.147 36.9455 35.1244 37.2383 35.4361C37.4817 35.6951 37.4927 36.2722 37.2593 36.5343C37.0176 36.8057 36.4507 36.8815 36.0438 36.6966Z" fill="#979AAD"/>
<path d="M41.0215 43.7794C39.9881 43.5453 39.2194 42.7973 38.9329 41.7469C38.8019 41.2666 38.775 40.4056 38.8739 39.8604C39.1467 38.3571 40.1775 37.5269 41.7744 37.5243C42.641 37.5227 43.3238 37.7774 43.8608 38.3019C44.5684 38.9933 44.8802 40.1957 44.6678 41.4145C44.4559 42.6301 43.8152 43.3983 42.7453 43.7195C42.3081 43.8507 41.4654 43.88 41.0215 43.7794ZM42.355 42.4172C42.4744 42.3564 42.6338 42.225 42.7093 42.1253C42.9876 41.758 43.1213 40.944 43.0268 40.1928C42.9058 39.2307 42.5394 38.8333 41.7734 38.8333C41.0641 38.8333 40.7057 39.1483 40.543 39.9145C40.4378 40.4098 40.4658 41.2313 40.6032 41.6808C40.7049 42.0135 40.9359 42.305 41.2016 42.436C41.4677 42.5672 42.0807 42.5572 42.355 42.4172Z" fill="#979AAD"/>
</svg>
