<svg width="157" height="48" viewBox="0 0 157 48" fill="none" xmlns="http://www.w3.org/2000/svg">
<path d="M31.1153 9.55328L40.8054 14.9911C42.1576 15.75 42.9938 17.1732 42.9938 18.7157V29.4316C42.9938 30.9743 42.1576 32.3973 40.8054 33.1562L31.1153 38.594C30.4682 38.9567 29.7388 39.1473 28.9969 39.1473C28.2551 39.1473 27.5256 38.9567 26.8785 38.594L17.1884 33.1562C15.8362 32.3973 15 30.9741 15 29.4316V18.7157C15 17.173 15.8362 15.75 17.1884 14.9911L26.8785 9.55328C27.5256 9.19051 28.2551 9 28.9969 9C29.7388 9 30.4682 9.19051 31.1153 9.55328ZM16.615 18.7589V29.4316C16.615 30.3893 17.1351 31.2745 17.9788 31.7477L27.5314 37.1083C27.6945 37.1715 27.8706 37.194 28.0444 37.1738C28.2181 37.1537 28.3844 37.0914 28.5287 36.9926C28.6731 36.8937 28.7911 36.7611 28.8727 36.6064C28.9543 36.4516 28.9969 36.2793 28.9969 36.1043V27.4781C28.9969 26.7884 28.8076 26.1119 28.4497 25.5224C28.0918 24.9328 27.5789 24.4528 26.967 24.1346L26.256 23.765C26.0876 23.6933 25.922 23.615 25.7597 23.5303L16.615 18.7589ZM26.6334 22.5756C28.3498 23.471 29.6487 23.471 31.3651 22.5756L40.6421 17.3675C40.4086 16.8341 40.0072 16.3915 39.4991 16.1072L30.325 10.9618C29.9193 10.7344 29.462 10.6151 28.9969 10.6151C28.5318 10.6151 28.0745 10.7344 27.6688 10.9618L18.5121 16.1072C18.004 16.3915 17.6026 16.8341 17.3691 17.3675L26.6334 22.5756ZM28.9969 12.7684C31.0157 12.7684 32.6637 13.7606 32.7608 15.0072L32.7653 17.1425C32.7653 18.4433 31.0781 19.4977 28.9969 19.4977C26.9157 19.4977 25.2285 18.4433 25.2285 17.1425V15.0072C25.3301 13.7608 26.9781 12.7684 28.9969 12.7684ZM28.9973 16.5368C30.7456 16.5368 32.1627 15.8282 32.1627 14.9541C32.1627 14.08 30.7456 13.3714 28.9973 13.3714C27.2489 13.3714 25.8318 14.08 25.8318 14.9541C25.8318 15.8282 27.2491 16.5368 28.9973 16.5368Z" fill="#979AAD"/>
<path fill-rule="evenodd" clip-rule="evenodd" d="M57.8388 24.8829C57.8388 26.0904 58.1492 27.0607 58.7703 27.7939C59.3914 28.5271 60.2107 28.8935 61.2284 28.8935C62.2117 28.8935 63.0139 28.5226 63.6348 27.781C64.2558 27.0391 64.5663 26.0645 64.5663 24.857C64.5663 23.6668 64.2644 22.718 63.6608 22.0108C63.0569 21.3034 62.2548 20.9499 61.2544 20.9499C60.2538 20.9499 59.4344 21.3078 58.7961 22.0237C58.158 22.7397 57.8388 23.6926 57.8388 24.8829ZM67.4643 12.4888V31.2222H65.7686C65.5483 31.2222 65.3324 31.1614 65.1446 31.0463C64.9568 30.9313 64.8044 30.7665 64.7044 30.5703C64.595 30.3557 64.5404 30.1472 64.5404 29.9444C64.1921 30.3426 63.9151 30.6769 63.2597 31.039C62.6042 31.4015 61.7373 31.5327 60.8921 31.5327C59.0981 31.5327 57.6405 30.9032 56.5191 29.6438C55.3979 28.3846 54.8373 26.7978 54.8373 24.8829C54.8373 23.0371 55.4022 21.4761 56.5322 20.1995C57.662 18.9231 59.0981 18.2848 60.8404 18.2848C61.8408 18.2848 62.6473 18.466 63.2597 18.8281C63.872 19.1905 64.2989 19.613 64.5404 20.0959V12.4888H67.4643ZM78.1745 18.4658V21.5191H77.7887C75.5289 21.5191 74.3989 22.7525 74.3989 25.2193V31.2222H71.3975V18.6211H73.3439C73.5123 18.6211 73.6763 18.6744 73.8124 18.7735C73.9485 18.8725 74.0498 19.0121 74.1016 19.1723L74.3989 20.092C74.5423 19.7936 74.9403 19.1307 75.6371 18.7982C76.3335 18.4658 77.1418 18.4658 77.9697 18.4658H78.1745ZM79.8564 27.8068C79.8564 26.7373 80.2057 25.879 80.9044 25.2323C81.603 24.5854 82.5216 24.1757 83.66 24.0031L86.8944 23.5114C87.5153 23.4252 87.8259 23.1234 87.8259 22.6059C87.8259 22.0367 87.6276 21.5751 87.2308 21.2216C86.8341 20.8681 86.2389 20.6912 85.4453 20.6912C84.6863 20.6912 84.0826 20.9024 83.6342 21.3252C83.1857 21.7479 82.927 22.2954 82.8579 22.9682L80.1529 22.9423C80.2737 21.8037 80.7792 20.2384 81.7453 19.4363C82.7113 18.6342 83.936 18.2331 85.4195 18.2331C87.2481 18.2331 88.5979 18.6727 89.4689 19.5526C90.3401 20.4324 90.7756 21.5624 90.7756 22.9423V29.204C90.7756 30.0319 90.8273 30.7047 90.9309 31.2222H89.3169C89.1463 31.2223 88.9771 31.1909 88.8179 31.1298C88.2826 30.9245 88.015 30.5904 88.015 30.1276C87.4178 31.1228 85.8853 31.6104 84.1259 31.6104C82.8493 31.6104 81.8185 31.2353 81.0338 30.4849C80.2489 29.7344 79.8564 28.8417 79.8564 27.8068ZM84.6951 29.2558C85.6264 29.2558 86.3812 29.0014 86.9592 28.4925C87.537 27.9836 87.8259 27.1513 87.8259 25.9955V25.4263L84.5398 25.9179C83.4185 26.1076 82.8579 26.677 82.8579 27.6256C82.8579 28.0742 83.0217 28.458 83.3496 28.7771C83.6772 29.0961 84.1259 29.2558 84.6951 29.2558ZM99.987 15.4484C99.4869 15.4484 99.0512 15.5907 98.6805 15.8755C98.3096 16.1601 98.1242 16.6561 98.1242 17.3631V18.6211H101.048V21.2347H98.1242V31.2224H95.0969V21.2347H92.8974V18.6211H93.7613C94.1155 18.621 94.4551 18.4803 94.7055 18.2299C94.956 17.9794 95.0967 17.6398 95.0967 17.2856C95.0967 15.8884 95.5021 14.7843 96.3129 13.9736C97.1236 13.1628 98.1845 12.7574 99.4955 12.7574H101.048V15.4484H99.987ZM108.11 14.8175V18.6729H110.723V21.3381H108.11V27.1857C108.11 27.7377 108.239 28.1388 108.498 28.3889C108.757 28.6391 109.162 28.764 109.714 28.764H110.126V31.4293H108.912C107.739 31.4293 106.816 31.0973 106.143 30.433C105.471 29.7691 105.134 28.8503 105.134 27.6774V21.3381H102.805V18.6729H103.452C104.091 18.6729 104.574 18.4917 104.901 18.1296C105.229 17.7673 105.393 17.293 105.393 16.7065V14.8173L108.11 14.8175ZM113.155 12.429H116.079V20.1399C116.321 19.6568 116.822 19.2601 117.435 18.8978C118.047 18.5355 119.022 18.3008 120.022 18.3008C121.765 18.3008 123.157 18.8633 124.287 20.1397C125.417 21.4161 125.794 23.0233 125.794 24.8689C125.794 26.7836 125.421 28.325 124.3 29.5842C123.178 30.8434 121.617 31.5366 119.823 31.5366C118.978 31.5366 118.215 31.3417 117.559 30.9794C116.904 30.6171 116.428 30.2828 116.079 29.8848C116.079 30.0874 116.025 30.2959 115.915 30.5105C115.815 30.7068 115.663 30.8715 115.475 30.9866C115.287 31.1016 115.071 31.1625 114.851 31.1625H113.155V12.429ZM121.843 27.8068C122.482 27.0822 122.801 26.1076 122.801 24.8829C122.801 23.6582 122.49 22.6965 121.869 21.9979C121.248 21.2991 120.429 20.9499 119.411 20.9499C118.428 20.9499 117.617 21.2991 116.979 21.9979C116.341 22.6967 116.022 23.6582 116.022 24.8829C116.022 26.0904 116.341 27.0564 116.979 27.781C117.617 28.5056 118.428 28.8677 119.411 28.8677C120.412 28.8677 121.222 28.514 121.843 27.8068ZM128.726 21.5848H127.486V18.5992H130.472V18.6211H131.702V31.2222H128.726V21.5848ZM128.83 15.5679C128.45 15.1884 128.26 14.7314 128.26 14.1966C128.26 13.6619 128.45 13.2003 128.83 12.8122C129.209 12.424 129.666 12.23 130.201 12.23C130.753 12.23 131.219 12.4197 131.598 12.7992C131.978 13.1788 132.168 13.6444 132.168 14.1966C132.168 14.7314 131.978 15.1884 131.598 15.5679C131.219 15.9475 130.753 16.1372 130.201 16.1372C129.666 16.1372 129.209 15.9475 128.83 15.5679ZM139.387 14.7658V18.6211H142V21.2862H139.387V27.1341C139.387 27.686 139.516 28.0869 139.775 28.3372C140.034 28.5874 140.439 28.7123 140.991 28.7123H141.403V31.3774H140.189C139.016 31.3774 138.093 31.0455 137.42 30.3813C136.747 29.7172 136.411 28.7986 136.411 27.6256V21.2862H134.082V18.6211H134.729C135.367 18.6211 135.851 18.44 136.178 18.0777C136.506 17.7156 136.67 17.2411 136.67 16.6547V14.7656L139.387 14.7658Z" fill="#979AAD"/>
</svg>
