<svg width="163" height="48" viewBox="0 0 163 48" fill="none" xmlns="http://www.w3.org/2000/svg">
<path d="M22.948 15.503V17.4235C22.948 17.55 22.8675 17.6305 22.741 17.6305H14.484V21.5635H21.292C21.4185 21.5635 21.499 21.644 21.499 21.7705V23.691C21.499 23.8175 21.4185 23.898 21.292 23.898H14.484V29.7056C14.484 29.8321 14.4035 29.9126 14.277 29.9126H12.207C12.0805 29.9126 12 29.8321 12 29.7056V15.503C12 15.3765 12.0805 15.296 12.207 15.296H22.741C22.8675 15.296 22.948 15.3765 22.948 15.503Z" fill="#979AAD"/>
<path d="M39.7956 29.924H37.5186C37.3921 29.924 37.3116 29.8665 37.2771 29.74C36.9781 28.544 36.6101 27.279 36.1961 26.0025H29.2041C28.7901 27.279 28.4221 28.544 28.1231 29.74C28.0886 29.8665 28.0081 29.924 27.8816 29.924H25.6851C25.5356 29.924 25.4551 29.8435 25.5011 29.694C26.8121 25.025 28.8246 19.8844 30.8486 15.5604C30.9406 15.3649 31.0556 15.2844 31.2511 15.2844H34.2181C34.4136 15.2844 34.5286 15.3534 34.6206 15.5604C36.6676 19.8729 38.6456 25.025 39.9681 29.6825C40.0256 29.832 39.9336 29.924 39.7956 29.924ZM35.4141 23.7369C34.6551 21.6209 33.8041 19.5164 32.9416 17.5959H32.4471C31.5846 19.5164 30.7221 21.6324 29.9631 23.7369H35.4141Z" fill="#979AAD"/>
<path d="M43.5331 22.725C43.5331 18.194 46.5231 15.02 50.7896 15.02H51.1001C53.7796 15.02 55.8381 16.377 56.9421 18.3435C57.0111 18.47 56.9996 18.5735 56.8731 18.631L55.0331 19.5395C54.9066 19.597 54.7456 19.597 54.6651 19.4475C53.8946 18.1135 52.7331 17.4005 51.0196 17.4005H50.7091C48.0296 17.4005 46.1781 19.528 46.1781 22.6215C46.1781 25.7265 47.9951 27.8081 50.7091 27.8081H51.0196C52.7791 27.8081 53.8026 27.2101 54.5846 26.3015C54.6881 26.1866 54.8031 26.1636 54.9296 26.2326L56.8156 27.1526C56.8846 27.1986 56.9191 27.2446 56.9191 27.3021C56.9191 27.3596 56.8961 27.3941 56.8616 27.4631C55.7001 29.1536 53.6071 30.2001 51.0656 30.2001H50.7551C46.4081 30.1886 43.5331 27.2101 43.5331 22.725Z" fill="#979AAD"/>
<path d="M73.5827 27.7851V29.7056C73.5827 29.8321 73.5022 29.9126 73.3757 29.9126H62.4046C62.2781 29.9126 62.1976 29.8321 62.1976 29.7056V15.503C62.1976 15.3765 62.2781 15.296 62.4046 15.296H73.1802C73.3067 15.296 73.3872 15.3765 73.3872 15.503V17.4235C73.3872 17.55 73.3067 17.6305 73.1802 17.6305H64.6701V21.437H71.5817C71.7082 21.437 71.7887 21.5175 71.7887 21.644V23.5415C71.7887 23.668 71.7082 23.7485 71.5817 23.7485H64.6701V27.5781H73.3642C73.4907 27.5781 73.5827 27.6586 73.5827 27.7851Z" fill="#979AAD"/>
<path d="M92.4657 25.9105C92.4657 28.4751 90.4992 29.9241 87.0377 29.9241H79.8502C79.7237 29.9241 79.6432 29.8436 79.6432 29.7171V15.503C79.6432 15.3765 79.7237 15.296 79.8502 15.296H86.4052C89.7747 15.296 91.6147 16.63 91.6147 19.0795C91.6147 20.6895 90.7982 21.7475 89.1537 22.2305C91.4652 22.725 92.4657 24.105 92.4657 25.9105ZM86.3477 17.573H82.1272V21.506H86.3477C88.2337 21.506 89.1077 20.885 89.1077 19.5395C89.1077 18.194 88.2337 17.573 86.3477 17.573ZM89.9242 25.692C89.9242 24.335 89.0272 23.714 87.0492 23.714H82.1272V27.6471H87.0492C89.0502 27.6356 89.9242 27.0606 89.9242 25.692Z" fill="#979AAD"/>
<path d="M96.8472 22.61C96.8472 18.2055 99.7682 15.02 104.368 15.02H104.679C109.279 15.02 112.2 18.194 112.2 22.61C112.2 27.0146 109.279 30.2001 104.679 30.2001H104.368C99.7682 30.1886 96.8472 27.0146 96.8472 22.61ZM104.679 27.8081C107.68 27.8081 109.566 25.7495 109.566 22.61C109.566 19.4705 107.68 17.412 104.679 17.412H104.368C101.367 17.412 99.4807 19.4705 99.4807 22.61C99.4807 25.7495 101.367 27.8081 104.368 27.8081H104.679Z" fill="#979AAD"/>
<path d="M116.443 22.61C116.443 18.2055 119.364 15.02 123.964 15.02H124.275C128.875 15.02 131.796 18.194 131.796 22.61C131.796 27.0146 128.875 30.2001 124.275 30.2001H123.964C119.376 30.1886 116.443 27.0146 116.443 22.61ZM124.286 27.8081C127.288 27.8081 129.174 25.7495 129.174 22.61C129.174 19.4705 127.288 17.412 124.286 17.412H123.976C120.974 17.412 119.088 19.4705 119.088 22.61C119.088 25.7495 120.974 27.8081 123.976 27.8081H124.286Z" fill="#979AAD"/>
<path d="M149.828 29.9241H147.137C146.964 29.9241 146.884 29.8781 146.769 29.7516C144.883 27.5206 142.64 25.3125 140.743 23.6795H139.535V29.7171C139.535 29.8436 139.455 29.9241 139.328 29.9241H137.258C137.132 29.9241 137.051 29.8436 137.051 29.7171V15.503C137.051 15.3765 137.132 15.296 137.258 15.296H139.328C139.455 15.296 139.535 15.3765 139.535 15.503V21.276H140.766C142.801 19.436 144.687 17.4465 146.217 15.457C146.32 15.319 146.401 15.296 146.527 15.296H149.08C149.207 15.296 149.264 15.3535 149.264 15.4455C149.264 15.4915 149.241 15.5375 149.195 15.6065C146.953 18.378 144.722 20.6435 142.663 22.403C145.251 24.5995 147.712 27.0376 149.943 29.6711C150.058 29.7976 149.989 29.9241 149.828 29.9241Z" fill="#979AAD"/>
</svg>
