<?xml version="1.0" encoding="utf-8"?>
<!-- Generator: Adobe Illustrator 26.3.1, SVG Export Plug-In . SVG Version: 6.00 Build 0)  -->
<svg version="1.1" xmlns="http://www.w3.org/2000/svg" xmlns:xlink="http://www.w3.org/1999/xlink" x="0px" y="0px"
	 viewBox="0 0 415.2 130.6" style="enable-background:new 0 0 415.2 130.6;" xml:space="preserve">
<g id="Layer_1" fill="#979AAD">
	<g>
		<path d="M100.7,48.5V39c-5.5,0.1-10,1.8-13.6,5.2l-0.9,0.9v-5.5H76.1v39.8h10.1V55l0.1-0.2C89.8,51,94.3,49,100.7,48.5z"/>
		<path d="M130.7,69.4c-1.4,1.6-3.4,2.3-6.8,2.3c-6,0-9.9-3.1-10.9-8.8l-0.1-0.7h30.2c0.9-6.7-0.6-12.8-4.4-17.1
			c-3.6-4.2-9.1-6.5-15.6-6.5c-11.9,0-20.5,8.8-20.5,21c0,12.3,8.7,20.9,21.2,20.9c8.7,0,15.4-4.1,18.2-11.1H130.7z M113.3,55.1
			c1.2-5.2,4.8-8.1,10-8.1c5.8,0,9.1,2.8,9.7,8.1l0.1,0.6h-19.9L113.3,55.1z"/>
		<path d="M175.8,69.4c-1.4,1.6-3.4,2.3-6.8,2.3c-6,0-9.9-3.1-10.9-8.8l-0.1-0.7h30.2c0.9-6.7-0.6-12.8-4.4-17.1
			c-3.6-4.2-9.1-6.5-15.6-6.5c-11.9,0-20.5,8.8-20.5,21c0,12.3,8.7,20.9,21.2,20.9c8.7,0,15.4-4.1,18.2-11.1H175.8z M158.3,55.1
			c1.2-5.2,4.8-8.1,10-8.1c5.8,0,9.1,2.8,9.7,8.1l0.1,0.6h-19.9L158.3,55.1z"/>
		<path d="M214.1,47.7c6.3,0,9.8,3.8,9.8,10.8v21H234V57.8c0-11.6-6.9-19.2-17.5-19.2c-4.4,0-8.1,1.3-11.5,4l-0.9,0.7v-3.7H194v39.8
			h10.1V53.3l0.1-0.2C207.1,49.7,210.7,47.7,214.1,47.7z"/>
		<rect x="240.8" y="18.8" width="10.1" height="60.6"/>
		<path d="M298.8,79.5V39.7h-10.1v2.8l-0.9-0.6c-3.3-2.1-7.2-3.2-11.5-3.2c-11,0-19.9,9.4-19.9,21c0,11.5,8.9,20.9,19.9,20.9
			c4.2,0,8.2-1.1,11.5-3.2l0.9-0.6v2.8L298.8,79.5L298.8,79.5z M288.6,66.4c-2.4,3.4-5.8,5-10.5,5c-6.5,0-11.7-5.1-11.7-11.8
			c0-6.8,5.2-11.9,11.7-11.9c4.7,0,8.1,1.6,10.5,5l0.1,0.1v13.3L288.6,66.4z"/>
		<path d="M328.1,80.5c11,0,19.9-9.4,19.9-21c0-11.5-8.9-20.9-19.9-20.9c-4.2,0-8.2,1.1-11.5,3.2l-0.9,0.6V18.8h-10.1v60.6h10.1
			v-2.8l0.9,0.6C319.9,79.4,323.9,80.5,328.1,80.5z M315.8,66.2V52.9l0.1-0.1c2.4-3.4,5.8-5,10.5-5c6.5,0,11.7,5.1,11.7,11.8
			c0,6.8-5.2,11.9-11.7,11.9c-4.7,0-8.1-1.6-10.5-5L315.8,66.2z"/>
		<path d="M369.1,80.5c11.1,0,17.7-4.9,17.7-13c0-6.3-3.9-10-11.8-11.4l-7.4-1.2c-4.8-0.8-5.5-3.2-5.5-4.6c0-2.5,2.6-4,6.9-4
			c4.8,0,7.7,1.7,8.2,4.9h9.3c-0.9-8.4-6.8-12.7-17.5-12.7c-10.3,0-16.9,5.1-16.9,12.9c0,8.2,7.3,10.7,11.6,11.5l8.8,1.5
			c3,0.5,4.7,2,4.7,4.1c0,2.5-2.9,4-7.8,4c-3.5,0-8.2-0.6-9.3-6.1l-9.3-0.1C351.9,78,361.4,80.5,369.1,80.5z"/>
		<path d="M61.8,74.7L61.8,74.7L61.8,74.7c4.5-3.8,7.3-9.4,7.3-15.7c0-0.2,0-0.5,0-0.5V39.7H59.1v1.8c-3-1.8-6.6-2.8-10.4-2.8
			c-11.3,0-20.4,9.1-20.4,20.4c0,11.2,9.1,20.4,20.3,20.4c0,0,0.1,0,0.1,0c6,0,10.9,4.9,10.9,11c0,6-4.9,11-10.9,11
			c-5.5,0-10-4-10.8-9.3h-9.5c0.9,10.5,9.6,18.7,20.3,18.7c11.2,0,20.4-9.1,20.4-20.4C69.1,84.4,66.4,78.6,61.8,74.7z M37.8,59
			c0-6,4.9-11,10.9-11S59.7,53,59.7,59c0,6-4.9,11-10.9,11l0,0l0,0C42.7,70,37.8,65.1,37.8,59z"/>
	</g>
</g>
<g id="Layer_2">
</g>
</svg>
