<svg width="384" height="384" viewBox="0 0 384 384" fill="none" xmlns="http://www.w3.org/2000/svg">
<line y1="11.5" x2="384" y2="11.5" stroke="#EDF0F2"/>
<line y1="35.5" x2="384" y2="35.5" stroke="#EDF0F2"/>
<line y1="59.5" x2="384" y2="59.5" stroke="#EDF0F2"/>
<line y1="83.5" x2="384" y2="83.5" stroke="#EDF0F2"/>
<line y1="107.5" x2="384" y2="107.5" stroke="#EDF0F2"/>
<line y1="131.5" x2="384" y2="131.5" stroke="#EDF0F2"/>
<line y1="155.5" x2="384" y2="155.5" stroke="#EDF0F2"/>
<line y1="179.5" x2="384" y2="179.5" stroke="#EDF0F2"/>
<line y1="203.5" x2="384" y2="203.5" stroke="#EDF0F2"/>
<line y1="227.5" x2="384" y2="227.5" stroke="#EDF0F2"/>
<line y1="251.5" x2="384" y2="251.5" stroke="#EDF0F2"/>
<line y1="275.5" x2="384" y2="275.5" stroke="#EDF0F2"/>
<line y1="299.5" x2="384" y2="299.5" stroke="#EDF0F2"/>
<line y1="323.5" x2="384" y2="323.5" stroke="#EDF0F2"/>
<line y1="347.5" x2="384" y2="347.5" stroke="#EDF0F2"/>
<line y1="371.5" x2="384" y2="371.5" stroke="#EDF0F2"/>
<line x1="11.5" y1="384" x2="11.5" y2="3.05394e-05" stroke="#EDF0F2"/>
<line x1="35.5" y1="384" x2="35.5" y2="3.05394e-05" stroke="#EDF0F2"/>
<line x1="59.5" y1="384" x2="59.5" y2="3.05394e-05" stroke="#EDF0F2"/>
<line x1="83.5" y1="384" x2="83.5" y2="3.05394e-05" stroke="#EDF0F2"/>
<line x1="107.5" y1="384" x2="107.5" y2="3.05394e-05" stroke="#EDF0F2"/>
<line x1="131.5" y1="384" x2="131.5" y2="3.05394e-05" stroke="#EDF0F2"/>
<line x1="155.5" y1="384" x2="155.5" y2="3.05394e-05" stroke="#EDF0F2"/>
<line x1="179.5" y1="384" x2="179.5" y2="3.05394e-05" stroke="#EDF0F2"/>
<line x1="203.5" y1="384" x2="203.5" y2="3.05394e-05" stroke="#EDF0F2"/>
<line x1="227.5" y1="384" x2="227.5" y2="3.05394e-05" stroke="#EDF0F2"/>
<line x1="251.5" y1="384" x2="251.5" y2="3.05394e-05" stroke="#EDF0F2"/>
<line x1="275.5" y1="384" x2="275.5" y2="3.05394e-05" stroke="#EDF0F2"/>
<line x1="299.5" y1="384" x2="299.5" y2="3.05394e-05" stroke="#EDF0F2"/>
<line x1="323.5" y1="384" x2="323.5" y2="3.05394e-05" stroke="#EDF0F2"/>
<line x1="347.5" y1="384" x2="347.5" y2="3.05394e-05" stroke="#EDF0F2"/>
<line x1="371.5" y1="384" x2="371.5" y2="2.18557e-08" stroke="#EDF0F2"/>
</svg>
