<svg width="385" height="102" viewBox="0 0 385 102" fill="none" xmlns="http://www.w3.org/2000/svg">
<path d="M60.424 74H72.968V28.88H60.424V45.84H45.128V28.88H32.584V74H45.128V55.888H60.424V74ZM116.883 38.096H104.275V57.36C104.275 61.52 101.971 63.952 98.3225 63.952C94.7385 63.952 92.3705 61.52 92.3705 57.36V38.096H79.8905V58.96C79.8905 68.432 85.0745 74.32 93.3945 74.32C98.4505 74.32 102.227 71.952 104.275 68.88V74H116.883V38.096ZM172.918 74H185.462V53.072C185.462 43.664 180.022 37.776 170.934 37.776C165.622 37.776 161.398 40.72 158.966 44.368C156.597 40.208 152.374 37.776 146.998 37.776C142.134 37.776 138.614 39.952 136.566 42.832V38.096H124.022V74H136.566V54.736C136.566 50.832 138.87 48.656 142.582 48.656C146.166 48.656 148.47 50.832 148.47 54.736V74H161.014V54.736C161.014 50.832 163.318 48.656 166.966 48.656C170.55 48.656 172.918 50.832 172.918 54.736V74ZM190.286 56.016C190.286 67.472 197.07 74.448 205.582 74.448C210.638 74.448 214.286 72.208 216.142 69.008V74H228.686V38.096H216.142V43.088C214.286 39.888 210.702 37.648 205.582 37.648C197.07 37.648 190.286 44.56 190.286 56.016ZM216.142 56.016C216.142 60.88 213.134 63.504 209.614 63.504C206.03 63.504 203.086 60.816 203.086 56.016C203.086 51.152 206.03 48.592 209.614 48.592C213.134 48.592 216.142 51.216 216.142 56.016ZM233.786 56.016C233.786 67.472 240.57 74.448 249.082 74.448C254.138 74.448 257.786 72.208 259.642 69.008V74H272.186V38.096H259.642V43.088C257.786 39.888 254.202 37.648 249.082 37.648C240.57 37.648 233.786 44.56 233.786 56.016ZM259.642 56.016C259.642 60.88 256.634 63.504 253.114 63.504C249.53 63.504 246.586 60.816 246.586 56.016C246.586 51.152 249.53 48.592 253.114 48.592C256.634 48.592 259.642 51.216 259.642 56.016ZM303.782 74H316.326V53.072C316.326 43.664 311.142 37.776 302.822 37.776C297.766 37.776 293.99 40.144 291.878 43.216V38.096H279.334V74H291.878V54.736C291.878 50.576 294.182 48.144 297.894 48.144C301.478 48.144 303.782 50.576 303.782 54.736V74ZM353.417 63.44C353.353 49.808 334.217 53.904 334.217 48.784C334.217 47.44 335.305 46.608 337.353 46.608C340.041 46.608 341.641 47.952 342.025 50.192H353.353C352.521 43.088 347.401 37.648 337.609 37.648C327.881 37.648 322.697 42.832 322.697 49.104C322.697 62.288 341.769 58 341.769 63.248C341.769 64.528 340.553 65.552 338.441 65.552C335.817 65.552 333.833 64.272 333.513 61.904H321.353C321.865 69.072 328.521 74.448 338.505 74.448C347.785 74.448 353.417 69.712 353.417 63.44Z" fill="#979AAD"/>
</svg>
