<?xml version="1.0" encoding="utf-8"?>
<svg version="1.1" id="Lag_1"
  xmlns="http://www.w3.org/2000/svg"
  xmlns:xlink="http://www.w3.org/1999/xlink" x="0px" y="0px" viewBox="0 0 2019 799.8" style="enable-background:new 0 0 2019 799.8;" xml:space="preserve">
  <style type="text/css">
  .st0{fill:#9899AD;}
  .st1{fill:#989AAD;}
  </style>
  <polygon class="st0" points="731.7,82.1 506.8,82 255.1,333.6 367.6,446.1 "/>
  <polygon class="st0" points="96,492.8 96,717.8 255.1,558.7 142.6,446.1 "/>
  <polygon class="st0" points="255.1,558.7 412.9,717.5 637.9,717.5 367.6,446.1 "/>
  <polygon class="st0" points="255.1,333.6 96,174.5 96,399.5 142.6,446.1 "/>
  <g>
    <path class="st1" d="M664.7,532.1V349h41.8v183.1H664.7z M757.3,440.6l64.9,91.5h-52.4l-61.4-91l59.2-92.1h49.7L757.3,440.6z"/>
    <path class="st1" d="M836.4,440c0-28.1,8.1-50.7,24.3-68c16.2-17.3,37.8-25.9,64.8-25.9c27.2,0,48.8,8.6,64.9,25.8
    c16.1,17.2,24.2,39.9,24.2,68.2c0,28.1-8.1,50.7-24.3,68C974,525.3,952.4,534,925.5,534c-27.2,0-48.8-8.6-64.9-25.8
    C844.4,491,836.4,468.3,836.4,440z M893.1,399.1c-8,10-12,23.7-12,40.9c0,17.2,4,30.8,12,40.9c8,10.1,18.7,15.1,32.3,15.1
    s24.3-5,32.3-15.1c8-10,12-23.7,12-40.9c0-17.2-4-30.8-12-40.9c-8-10.1-18.7-15.1-32.3-15.1S901.1,389.1,893.1,399.1z"/>
    <path class="st1" d="M1056.6,532.1l15.8-183.1h45.9l25.5,66.3c4.3,11.1,8.1,21.2,11.1,30.4c3.1,9.2,5.1,15.8,6,19.6l1.4,5.4
    c2.9-11.9,9.2-30.4,19-55.4l25.8-66.3h45.9l19,183.1h-41.8l-6.8-70.9l-3.5-53.5c-4.7,13.6-11.2,31.4-19.6,53.5l-25.8,69h-24.7
    l-25.5-69c-4.2-11.2-7.7-21.3-10.6-30.1c-2.9-8.9-4.8-15-5.7-18.5l-1.4-4.9c0,12.9-0.8,30.7-2.4,53.5l-5.7,70.9H1056.6z"/>
    <path class="st1" d="M1320.9,349h63c20.3,0,36.7,5.7,49.3,17.1c12.6,11.4,18.9,25.9,18.9,43.5c0,20.1-6.6,35.7-19.7,46.7
    c-13.1,11.1-29.3,16.6-48.5,16.6h-21.2v59.2h-41.8V349z M1362.7,439.7h13.9c22.1,0,33.1-10,33.1-30.1c0-18.1-10.2-27.2-30.7-27.2
    h-16.3V439.7z"/>
    <path class="st1" d="M1540.1,495.4h67.6v36.7h-109.5V349h41.8V495.4z"/>
    <path class="st1" d="M1653.9,532.1V349h41.8v183.1H1653.9z"/>
    <path class="st1" d="M1744.6,440c0-28.1,8.1-50.7,24.3-68c16.2-17.3,37.8-25.9,64.8-25.9c27.2,0,48.8,8.6,64.9,25.8
    c16.1,17.2,24.2,39.9,24.2,68.2c0,28.1-8.1,50.7-24.3,68c-16.2,17.3-37.8,25.9-64.8,25.9c-27.2,0-48.8-8.6-64.9-25.8
    C1752.7,491,1744.6,468.3,1744.6,440z M1801.4,399.1c-8,10-11.9,23.7-11.9,40.9c0,17.2,4,30.8,11.9,40.9
    c8,10.1,18.7,15.1,32.3,15.1c13.6,0,24.3-5,32.3-15.1c8-10,11.9-23.7,11.9-40.9c0-17.2-4-30.8-11.9-40.9
    c-8-10.1-18.7-15.1-32.3-15.1C1820.1,384.1,1809.4,389.1,1801.4,399.1z"/>
  </g>
</svg>
