<svg width="77" height="48" viewBox="0 0 77 48" fill="none" xmlns="http://www.w3.org/2000/svg">
<path fill-rule="evenodd" clip-rule="evenodd" d="M39.0013 0C25.4817 0 15.0019 9.90295 15.0019 23.2793C14.9602 26.5205 15.611 29.7332 16.9108 32.7026C18.2105 35.672 20.1293 38.3297 22.5388 40.498C22.7333 40.6704 22.8908 40.8806 23.0016 41.1158C23.1124 41.3511 23.1742 41.6063 23.1832 41.8662L23.314 46.1354C23.3237 46.4497 23.4104 46.7569 23.5666 47.0298C23.7228 47.3028 23.9436 47.5332 24.2097 47.7008C24.4758 47.8685 24.779 47.9682 25.0927 47.9912C25.4063 48.0142 25.7208 47.9598 26.0085 47.8328L30.7722 45.7298C31.1758 45.5518 31.6285 45.5186 32.0537 45.6357C34.3175 46.2531 36.6541 46.5633 39.0006 46.5579C52.521 46.5579 63 36.6549 63 23.2786C63 9.90221 52.5202 0 39.0013 0Z" fill="#979AAD"/>
<path fill-rule="evenodd" clip-rule="evenodd" d="M24.5909 30.0887L31.6406 18.9042C31.9058 18.4836 32.2553 18.1225 32.6671 17.8436C33.0788 17.5647 33.5439 17.3742 34.0329 17.2839C34.522 17.1937 35.0244 17.2057 35.5085 17.3193C35.9927 17.4329 36.4481 17.6455 36.8459 17.9438L42.4532 22.1491C42.7037 22.3369 43.0085 22.438 43.3215 22.4371C43.6346 22.4362 43.9388 22.3333 44.1881 22.144L51.761 16.3971C51.9736 16.2349 52.2364 16.1527 52.5036 16.1647C52.7707 16.1768 53.0251 16.2824 53.2222 16.463C53.4193 16.6437 53.5467 16.8879 53.5819 17.153C53.6172 17.4181 53.5581 17.6871 53.415 17.913L46.3661 29.096C46.1008 29.5166 45.7513 29.8777 45.3396 30.1566C44.9278 30.4355 44.4628 30.626 43.9737 30.7163C43.4847 30.8065 42.9823 30.7944 42.4981 30.6809C42.014 30.5673 41.5586 30.3547 41.1607 30.0564L35.5534 25.8511C35.303 25.6633 34.9982 25.5622 34.6851 25.5631C34.3721 25.564 34.0679 25.6669 33.8185 25.8562L26.2456 31.6031C26.0332 31.765 25.7705 31.8472 25.5036 31.8352C25.2367 31.8232 24.9825 31.7178 24.7854 31.5374C24.5883 31.357 24.4609 31.1131 24.4253 30.8483C24.3897 30.5835 24.4484 30.3147 24.5909 30.0887Z" fill="white"/>
</svg>
