<svg width="188" height="48" viewBox="0 0 188 48" fill="none" xmlns="http://www.w3.org/2000/svg">
<path d="M48.5392 33.4667H44.8292V20.7894C47.6721 20.3105 50.5131 19.9549 53.3975 20.2428C53.6391 20.2525 53.8767 20.3088 54.0969 20.4086C55.0457 20.9261 55.987 20.7223 56.9731 20.5155C58.8678 20.1181 60.7927 19.9331 62.7122 20.3341C64.9942 20.8109 66.2896 22.2774 66.3507 24.604C66.4264 27.493 66.3785 30.3851 66.3818 33.2758C66.3719 33.3401 66.3547 33.403 66.3306 33.4634H62.6066V32.8621C62.6066 30.6939 62.6153 28.5256 62.599 26.3575C62.5985 25.9328 62.5417 25.5099 62.4303 25.1C62.2037 24.2963 61.6311 23.8297 60.818 23.6664C59.6677 23.4352 58.5399 23.6419 57.4184 23.8159V33.4486H53.689V32.4531C53.689 30.3961 53.689 28.3391 53.689 26.2821C53.6865 24.4575 52.8183 23.5733 51.0003 23.5714C50.3527 23.5707 49.7051 23.6521 49.0573 23.6542C48.64 23.6556 48.5296 23.8177 48.5318 24.2203C48.5471 27.0741 48.5398 29.928 48.5397 32.7819L48.5392 33.4667Z" fill="#979AAD"/>
<path d="M94.2155 14.3571V20.3116C92.8424 20.257 91.5451 20.1111 90.2577 20.1757C87.29 20.3249 85.2687 21.8305 84.546 24.2983C84.0463 25.9776 84.0324 27.7641 84.5059 29.451C85.2186 32.0345 87.4258 33.8096 90.1018 33.7796C92.711 33.7506 95.318 33.568 97.9728 33.451V14.3571H94.2155ZM94.2288 30.343C94.2114 30.4256 94.1845 30.5059 94.1487 30.5824C93.0896 30.6381 91.9994 30.7817 90.9181 30.7305C89.2833 30.6514 88.2822 29.7349 87.9837 28.1213C87.8575 27.4488 87.8316 26.7613 87.9069 26.0812C88.1029 24.4219 89.0706 23.4486 90.7444 23.335C91.7867 23.2649 92.8457 23.4241 93.8937 23.5165C94.0184 23.5266 94.2222 23.7615 94.2233 23.8941C94.2419 26.0433 94.2341 28.1937 94.2285 30.343H94.2288Z" fill="#979AAD"/>
<path d="M73.4931 20.2469C71.5788 20.4785 70.0865 21.4696 69.1712 23.2035C68.3192 24.8149 68.1377 26.5455 68.3749 28.3361C69.0943 33.7772 74.5053 35.1124 77.9241 32.9264C78.0544 32.8429 78.1936 32.775 78.3607 32.6825C78.3885 32.9866 78.4085 33.2182 78.4319 33.471H82.1525V20.738C79.2538 20.4796 76.394 19.8948 73.4931 20.2469ZM78.3829 29.2315C78.3802 29.3024 78.3635 29.3721 78.3337 29.4365C78.3038 29.5009 78.2615 29.5588 78.2092 29.6068C77.1813 30.4074 76.0354 30.8896 74.7091 30.7226C73.4663 30.5678 72.6512 29.8273 72.2481 28.6702C71.8506 27.521 71.866 26.2692 72.2915 25.1301C72.6412 24.139 73.3806 23.4719 74.4029 23.3817C75.7002 23.267 77.0154 23.3539 78.3907 23.3539C78.3911 25.4218 78.3941 27.3261 78.3829 29.2315Z" fill="#979AAD"/>
<path d="M40.871 22.1244C38.5046 19.4729 33.9243 19.5765 31.5223 20.8349C27.716 22.8271 27.3763 27.3673 28.7115 30.1447C30.0635 32.9565 32.519 33.98 35.5079 34C35.8553 33.9733 36.2084 33.961 36.5569 33.9165C39.2207 33.5791 41.2352 32.2672 42.1539 29.7148C43.1294 27.0032 42.8856 24.3806 40.871 22.1244ZM35.3954 30.6146C33.2773 30.6291 31.7929 29.119 31.7896 26.9453C31.7862 24.8094 33.2584 23.3338 35.3854 23.3405C37.5024 23.3472 38.9133 24.7849 38.9122 26.9341C38.9122 29.1224 37.5013 30.599 35.3954 30.6146Z" fill="#979AAD"/>
<path d="M26.0968 33.4645H22.3446V32.8666C22.3446 30.6977 22.3484 28.5287 22.3433 26.3597C22.3388 24.5019 21.376 23.5404 19.5162 23.5724C18.611 23.5879 17.707 23.6726 16.744 23.7296V33.4625H13V20.7431C14.0897 20.6139 15.1699 20.4271 16.2569 20.37C18.0862 20.274 19.9301 20.1174 21.7494 20.2468C24.2869 20.4272 26.0531 22.3432 26.1259 24.8839C26.2051 27.6622 26.1443 30.4447 26.1423 33.2248C26.1339 33.3058 26.1187 33.386 26.0968 33.4645Z" fill="#979AAD"/>
<path d="M162.118 24.3752C161.568 22.7304 160.499 21.5333 158.851 20.9776C157.996 20.6818 157.099 20.5206 156.194 20.4999C154.799 20.4876 153.401 20.6613 151.939 20.7616V14.3461H149.537C149.518 14.403 149.504 14.4615 149.496 14.5209C149.491 20.6532 149.487 26.7866 149.482 32.9211C149.481 33.2351 149.607 33.3387 149.903 33.3576C152.175 33.5057 154.446 33.7607 156.72 33.7908C159.359 33.8264 161.492 32.1048 162.209 29.5724C162.711 27.8715 162.679 26.0575 162.118 24.3752ZM159.769 29.1225C159.207 30.7428 158.027 31.6705 156.328 31.7306C154.893 31.7818 153.451 31.6282 151.947 31.5614V29.9533C151.947 27.8051 151.94 25.6581 151.96 23.51C151.962 23.3295 152.122 23.0267 152.261 22.991C153.631 22.6436 155.03 22.4309 156.44 22.6202C158.619 22.9119 159.682 24.0178 160.026 26.2183C160.182 27.1927 160.094 28.1907 159.769 29.1225Z" fill="#979AAD"/>
<path d="M145.558 21.053C143.272 20.857 140.988 20.5318 138.7 20.504C135.695 20.4683 133.634 22.2122 132.922 25.1343C132.523 26.7713 132.573 28.4106 133.159 30.0008C133.795 31.7258 134.952 32.9719 136.724 33.5643C138.533 34.1701 140.303 33.9853 142.019 33.1891C142.43 32.9986 142.827 32.777 143.264 32.5532C143.284 32.8962 143.3 33.1679 143.316 33.4641H145.736V21.1289C145.681 21.0956 145.621 21.0701 145.558 21.053ZM143.277 30.0587C143.27 30.137 143.247 30.2129 143.209 30.2818C143.171 30.3508 143.12 30.4113 143.058 30.4596C141.81 31.3271 140.447 31.8661 138.898 31.7636C137.194 31.6523 135.857 30.5543 135.383 28.9084C135.04 27.7443 135.046 26.5053 135.401 25.3448C135.832 23.9172 136.777 22.9817 138.259 22.6911C139.924 22.3637 141.575 22.6944 143.287 22.857C143.287 25.3181 143.291 27.6881 143.277 30.0589V30.0587Z" fill="#979AAD"/>
<path d="M118.198 30.1189C118.362 31.1374 118.514 32.0846 118.675 33.0922C116.511 33.8033 114.331 34.1709 112.068 33.7133C110.629 33.4222 109.361 32.7867 108.388 31.678C106.505 29.5327 106.255 27.017 107.095 24.43C107.931 21.853 109.954 20.5447 112.556 20.1309C114.622 19.8025 116.649 20.0805 118.676 20.7347C118.506 21.7199 118.342 22.6781 118.168 23.6873C117.373 23.5465 116.634 23.3978 115.889 23.2877C114.894 23.1409 113.892 23.0718 112.916 23.4006C111.095 24.0144 110.166 25.6448 110.464 27.6711C110.719 29.3963 112.2 30.6945 114.076 30.6473C115.325 30.6159 116.569 30.3536 117.816 30.1929C117.922 30.1787 118.027 30.1522 118.198 30.1189Z" fill="#979AAD"/>
<path d="M175.034 21.3942C174.823 22.073 174.633 22.6853 174.448 23.2807C173.35 23.0504 172.312 22.7483 171.254 22.6361C170.336 22.5462 169.411 22.5715 168.499 22.7114C167.698 22.8299 167.279 23.4277 167.247 24.1394C167.217 24.7762 167.578 25.3012 168.373 25.5449C169.381 25.8536 170.419 26.0594 171.439 26.3316C172.064 26.4987 172.688 26.6822 173.296 26.9018C175.415 27.6659 175.67 29.3548 175.259 30.9776C174.924 32.3007 173.976 33.0664 172.732 33.4926C170.956 34.101 169.146 34.0093 167.35 33.6311C166.345 33.4195 165.366 33.0821 164.337 32.7908L164.892 30.6831C165.69 30.9371 166.429 31.2579 167.202 31.398C168.325 31.6018 169.47 31.6875 170.609 31.795C170.888 31.801 171.165 31.7649 171.433 31.6879C172.427 31.4702 173.072 30.8644 173.101 30.1409C173.128 29.493 172.556 28.891 171.55 28.6224C170.387 28.3121 169.205 28.0751 168.038 27.7818C167.607 27.6697 167.187 27.524 166.779 27.346C165.659 26.8679 164.912 26.0733 164.805 24.8128C164.69 23.4688 165.084 22.3143 166.209 21.495C167.124 20.8289 168.18 20.5871 169.295 20.5275C171.248 20.4074 173.204 20.7028 175.034 21.3942Z" fill="#979AAD"/>
<path d="M104.73 33.4686H101.025V20.5853H104.73V33.4686Z" fill="#979AAD"/>
<path d="M129.779 33.4687H127.364V14.3581H129.779V33.4687Z" fill="#979AAD"/>
<path d="M102.863 18.7812C101.481 18.7861 100.441 17.7746 100.441 16.4251C100.441 15.0569 101.457 14.0183 102.812 14.0009C103.132 13.9921 103.451 14.0478 103.75 14.1646C104.048 14.2815 104.32 14.4571 104.55 14.6811C104.779 14.9051 104.961 15.1729 105.085 15.4687C105.209 15.7644 105.273 16.082 105.272 16.4026C105.287 17.7319 104.229 18.7765 102.863 18.7812Z" fill="#979AAD"/>
</svg>
