<svg width="161" height="48" viewBox="0 0 161 48" fill="none" xmlns="http://www.w3.org/2000/svg">
<g clip-path="url(#clip0_801_229)">
<path d="M63.2248 16.458C61.8371 16.458 60.4805 16.8695 59.3266 17.6405C58.1728 18.4115 57.2734 19.5073 56.7424 20.7894C56.2113 22.0715 56.0724 23.4823 56.3431 24.8434C56.6138 26.2045 57.2821 27.4547 58.2634 28.436C59.2446 29.4172 60.4949 30.0855 61.8559 30.3562C63.217 30.627 64.6278 30.488 65.9099 29.957C67.192 29.4259 68.2878 28.5266 69.0588 27.3727C69.8298 26.2188 70.2413 24.8623 70.2413 23.4745C70.2384 21.6145 69.4982 19.8316 68.183 18.5164C66.8677 17.2012 65.0848 16.461 63.2248 16.458ZM63.2248 27.5432C62.4198 27.5443 61.6327 27.3067 60.9628 26.8603C60.293 26.4139 59.7706 25.7788 59.4618 25.0354C59.153 24.2921 59.0716 23.4738 59.228 22.6842C59.3844 21.8946 59.7714 21.1691 60.3402 20.5995C60.909 20.0299 61.634 19.6419 62.4234 19.4844C63.2128 19.327 64.0311 19.4072 64.7749 19.715C65.5187 20.0228 66.1545 20.5443 66.6018 21.2135C67.0491 21.8827 67.2879 22.6696 67.2879 23.4745C67.2864 24.5522 66.858 25.5854 66.0965 26.3479C65.3351 27.1105 64.3024 27.5403 63.2248 27.5432Z" fill="#979AAD"/>
<path d="M102.617 16.458C101.229 16.458 99.8728 16.8695 98.719 17.6405C97.5651 18.4115 96.6658 19.5073 96.1347 20.7894C95.6036 22.0715 95.4647 23.4823 95.7354 24.8434C96.0062 26.2045 96.6744 27.4547 97.6557 28.436C98.637 29.4172 99.8872 30.0855 101.248 30.3562C102.609 30.627 104.02 30.488 105.302 29.957C106.584 29.4259 107.68 28.5266 108.451 27.3727C109.222 26.2188 109.634 24.8623 109.634 23.4745C109.631 21.6145 108.891 19.8316 107.575 18.5164C106.26 17.2012 104.477 16.461 102.617 16.458ZM102.617 27.5432C101.812 27.5432 101.026 27.3046 100.357 26.8575C99.6876 26.4104 99.1661 25.775 98.8582 25.0315C98.5502 24.2881 98.4696 23.47 98.6266 22.6808C98.7836 21.8915 99.1711 21.1666 99.7401 20.5975C100.309 20.0285 101.034 19.641 101.823 19.484C102.613 19.327 103.431 19.4076 104.174 19.7155C104.918 20.0235 105.553 20.545 106 21.2141C106.447 21.8832 106.686 22.6698 106.686 23.4745C106.686 24.5536 106.257 25.5885 105.494 26.3515C104.731 27.1146 103.696 27.5432 102.617 27.5432Z" fill="#979AAD"/>
<path d="M48.0373 16.4524C46.1768 16.4539 44.393 17.1936 43.0775 18.5091C41.7619 19.8247 41.0222 21.6085 41.0207 23.4689V33.5566C41.0083 33.7582 41.0373 33.9602 41.1059 34.1501C41.1745 34.3401 41.2812 34.514 41.4196 34.6611C41.5579 34.8082 41.7249 34.9255 41.9103 35.0056C42.0957 35.0858 42.2955 35.1271 42.4975 35.1271C42.6994 35.1271 42.8992 35.0858 43.0846 35.0056C43.27 34.9255 43.437 34.8082 43.5754 34.6611C43.7137 34.514 43.8205 34.3401 43.889 34.1501C43.9576 33.9602 43.9866 33.7582 43.9742 33.5566V29.1797C44.8739 29.8219 45.9125 30.2425 47.0056 30.4072C48.0986 30.5718 49.2151 30.4759 50.264 30.1272C51.313 29.7786 52.2647 29.187 53.0417 28.4008C53.8186 27.6145 54.3988 26.6558 54.735 25.6028C55.0712 24.5498 55.1538 23.4322 54.9761 22.3412C54.7985 21.2502 54.3656 20.2166 53.7127 19.3247C53.0598 18.4327 52.2054 17.7076 51.2192 17.2085C50.2329 16.7093 49.1427 16.4503 48.0373 16.4524ZM48.0373 27.5376C47.2323 27.5387 46.4451 27.3011 45.7753 26.8547C45.1055 26.4083 44.5831 25.7732 44.2743 25.0299C43.9655 24.2865 43.8841 23.4682 44.0405 22.6786C44.1968 21.889 44.5839 21.1635 45.1527 20.5939C45.7215 20.0243 46.4464 19.6363 47.2358 19.4788C48.0252 19.3214 48.8436 19.4016 49.5874 19.7094C50.3312 20.0172 50.967 20.5387 51.4143 21.2079C51.8616 21.8771 52.1004 22.664 52.1004 23.4689C52.0989 24.5466 51.6705 25.5798 50.909 26.3423C50.1475 27.1049 49.1149 27.5347 48.0373 27.5376Z" fill="#979AAD"/>
<path d="M147.451 23.4746C147.452 22.186 147.098 20.9222 146.428 19.8218C145.757 18.7214 144.797 17.827 143.651 17.2369C142.506 16.6468 141.22 16.3838 139.934 16.4767C138.649 16.5697 137.415 17.015 136.366 17.7638V13.6896C136.378 13.488 136.349 13.286 136.281 13.096C136.212 12.9061 136.106 12.7322 135.967 12.5851C135.829 12.4379 135.662 12.3207 135.476 12.2405C135.291 12.1604 135.091 12.119 134.889 12.119C134.687 12.119 134.487 12.1604 134.302 12.2405C134.117 12.3207 133.95 12.4379 133.811 12.5851C133.673 12.7322 133.566 12.9061 133.498 13.096C133.429 13.286 133.4 13.488 133.413 13.6896V23.4802C133.464 25.3075 134.226 27.0426 135.537 28.3169C136.848 29.5911 138.604 30.304 140.432 30.304C142.26 30.304 144.016 29.5911 145.327 28.3169C146.637 27.0426 147.4 25.3075 147.451 23.4802V23.4746ZM144.492 23.4746C144.493 24.2798 144.255 25.0672 143.809 25.7371C143.362 26.4071 142.727 26.9294 141.983 27.2381C141.239 27.5467 140.421 27.6278 139.631 27.471C138.841 27.3141 138.116 26.9265 137.546 26.3572C136.977 25.7878 136.59 25.0623 136.433 24.2726C136.276 23.4828 136.357 22.6643 136.666 21.9206C136.974 21.1769 137.497 20.5415 138.167 20.0949C138.836 19.6482 139.624 19.4104 140.429 19.4115C141.506 19.413 142.539 19.8415 143.3 20.6032C144.062 21.3648 144.491 22.3974 144.492 23.4746Z" fill="#979AAD"/>
<path d="M128.727 29.1797C128.773 29.5524 128.959 29.8936 129.248 30.1342C129.536 30.3749 129.905 30.4969 130.28 30.4755C130.655 30.4541 131.008 30.2909 131.267 30.0191C131.526 29.7472 131.672 29.387 131.675 29.0115V23.4745C131.68 21.8949 131.154 20.3595 130.181 19.1152C129.208 17.871 127.844 16.9902 126.31 16.6146C124.776 16.239 123.16 16.3904 121.722 17.0444C120.284 17.6985 119.108 18.8171 118.383 20.2205C117.658 21.6238 117.426 23.2303 117.724 24.7815C118.022 26.3326 118.834 27.7383 120.028 28.7725C121.222 29.8066 122.729 30.4091 124.307 30.4829C125.885 30.5568 127.442 30.0977 128.727 29.1797ZM120.596 23.4745C120.596 22.6696 120.834 21.8827 121.282 21.2135C121.729 20.5443 122.365 20.0228 123.109 19.715C123.852 19.4072 124.671 19.327 125.46 19.4844C126.249 19.6419 126.974 20.0299 127.543 20.5995C128.112 21.1691 128.499 21.8946 128.655 22.6842C128.812 23.4738 128.73 24.2921 128.422 25.0354C128.113 25.7788 127.59 26.4138 126.921 26.8602C126.251 27.3066 125.464 27.5443 124.659 27.5432C123.581 27.5417 122.547 27.1124 121.785 26.3495C121.023 25.5867 120.596 24.5526 120.596 23.4745Z" fill="#979AAD"/>
<path d="M92.5295 26.4897C92.4399 26.5737 92.3502 26.6466 92.2493 26.725C91.6452 27.1788 90.9266 27.4554 90.174 27.5238C89.4215 27.5921 88.6649 27.4496 87.9888 27.1122C87.3127 26.7747 86.744 26.2557 86.3463 25.6132C85.9486 24.9707 85.7377 24.2302 85.7372 23.4746V19.5516H91.2238C91.6161 19.5516 91.9925 19.3957 92.2699 19.1182C92.5474 18.8408 92.7033 18.4645 92.7033 18.0721C92.7033 17.6797 92.5474 17.3034 92.2699 17.0259C91.9925 16.7484 91.6161 16.5925 91.2238 16.5925H85.7372V13.6895C85.7372 13.2971 85.5813 12.9208 85.3038 12.6434C85.0264 12.3659 84.65 12.21 84.2576 12.21C83.8653 12.21 83.4889 12.3659 83.2115 12.6434C82.934 12.9208 82.7781 13.2971 82.7781 13.6895V23.4802C82.7781 24.7862 83.1423 26.0663 83.8298 27.1767C84.5173 28.2871 85.5008 29.1838 86.6699 29.766C87.8389 30.3482 89.1472 30.5928 90.4476 30.4724C91.7481 30.352 92.9892 29.8714 94.0315 29.0844C94.1996 28.9555 94.3621 28.821 94.5246 28.6753C94.813 28.4107 94.9844 28.0425 95.0013 27.6515C95.0181 27.2605 94.8789 26.8789 94.6143 26.5905C94.3497 26.3022 93.9815 26.1307 93.5905 26.1139C93.1995 26.0971 92.8179 26.2363 92.5295 26.5009V26.4897Z" fill="#979AAD"/>
<path d="M79.7013 16.4524C75.6718 16.4524 72.1355 19.7309 72.1355 23.4689V29.0115C72.1355 29.4039 72.2914 29.7802 72.5689 30.0577C72.8463 30.3352 73.2227 30.4911 73.6151 30.4911C74.0074 30.4911 74.3838 30.3352 74.6612 30.0577C74.9387 29.7802 75.0946 29.4039 75.0946 29.0115V23.4689C75.0946 21.3785 77.3363 19.4058 79.7069 19.4058C79.9085 19.4183 80.1104 19.3893 80.3004 19.3207C80.4903 19.2521 80.6643 19.1453 80.8114 19.007C80.9585 18.8686 81.0758 18.7017 81.1559 18.5163C81.2361 18.3309 81.2774 18.1311 81.2774 17.9291C81.2774 17.7272 81.2361 17.5273 81.1559 17.342C81.0758 17.1566 80.9585 16.9896 80.8114 16.8512C80.6643 16.7129 80.4903 16.6061 80.3004 16.5375C80.1104 16.469 79.9085 16.44 79.7069 16.4524H79.7013Z" fill="#979AAD"/>
<path d="M115.036 30.5023C114.842 30.5036 114.65 30.4661 114.471 30.392C114.292 30.3179 114.13 30.2087 113.994 30.0708C113.322 29.4028 112.789 28.608 112.426 27.7326C112.064 26.8572 111.878 25.9185 111.881 24.9709V13.6896C111.868 13.488 111.897 13.286 111.966 13.096C112.035 12.9061 112.141 12.7322 112.28 12.5851C112.418 12.4379 112.585 12.3207 112.77 12.2405C112.956 12.1604 113.156 12.119 113.358 12.119C113.56 12.119 113.759 12.1604 113.945 12.2405C114.13 12.3207 114.297 12.4379 114.436 12.5851C114.574 12.7322 114.681 12.9061 114.749 13.096C114.818 13.286 114.847 13.488 114.834 13.6896V24.9653C114.834 25.5246 114.944 26.0785 115.158 26.595C115.373 27.1115 115.687 27.5805 116.084 27.9748C116.361 28.2522 116.516 28.6281 116.516 29.02C116.516 29.4119 116.361 29.7878 116.084 30.0652C115.948 30.2045 115.784 30.3149 115.604 30.39C115.424 30.4651 115.231 30.5033 115.036 30.5023Z" fill="#979AAD"/>
<path d="M19.9656 16.346C18.5769 16.3415 17.2181 16.7493 16.0613 17.5176C14.9045 18.2859 14.0017 19.3801 13.4672 20.6618C12.9327 21.9435 12.7905 23.355 13.0587 24.7176C13.3269 26.0801 13.9934 27.3324 14.9738 28.316C15.9542 29.2995 17.2044 29.97 18.566 30.2425C19.9277 30.5151 21.3397 30.3775 22.6231 29.8471C23.9065 29.3167 25.0036 28.4173 25.7756 27.263C26.5476 26.1087 26.9597 24.7512 26.9597 23.3625C26.9582 21.506 26.2216 19.7255 24.9109 18.4106C23.6002 17.0957 21.8221 16.3534 19.9656 16.346V16.346Z" fill="#979AAD"/>
</g>
<defs>
<clipPath id="clip0_801_229">
<rect width="134.502" height="24.6587" fill="white" transform="translate(12.9491 11.5586)"/>
</clipPath>
</defs>
</svg>

