<svg width="176" height="48" viewBox="0 0 176 48" fill="none" xmlns="http://www.w3.org/2000/svg">
<path d="M50.2465 17.4138H52.4648V18.6622C52.9862 18.1571 53.6085 17.7626 54.2927 17.5035C54.9769 17.2444 55.7084 17.1262 56.4414 17.1562C60.3095 17.1562 62.4301 20.1958 62.4301 23.6288C62.4301 27.1029 60.3232 30.1014 56.3857 30.1014C55.6609 30.1401 54.936 30.0271 54.2595 29.7697C53.583 29.5123 52.9703 29.1165 52.4626 28.6088V35H48.9451V18.6898C48.9451 18.5225 48.9788 18.3569 49.0442 18.2023C49.1096 18.0478 49.2054 17.9074 49.3263 17.7891C49.4471 17.6708 49.5906 17.577 49.7485 17.5129C49.9064 17.4489 50.0756 17.416 50.2465 17.416V17.4138ZM59.0081 23.6288C59.0081 21.5666 57.9546 19.9488 55.6099 19.9488C53.2528 19.9488 52.1719 21.5227 52.1719 23.6288C52.1719 25.7349 53.2673 27.347 55.6099 27.347C57.9525 27.347 59.0081 25.6917 59.0081 23.6288ZM64.3873 24.8772V18.6898C64.3873 18.352 64.5244 18.028 64.7685 17.7891C65.0126 17.5502 65.3436 17.416 65.6887 17.416H67.7544V24.4971C67.7544 26.1248 68.6835 27.2925 70.4296 27.2925C72.3427 27.2925 73.5769 26.3725 73.5769 24.2119V18.6919C73.5769 18.3541 73.714 18.0301 73.958 17.7912C74.2021 17.5523 74.5331 17.4181 74.8783 17.4181H76.9577V29.8438H73.5776V28.3916C73.0491 28.9431 72.4085 29.3802 71.6969 29.6747C70.9854 29.9692 70.2187 30.1145 69.4463 30.1014C65.7864 30.1014 64.3859 27.4829 64.3859 24.88L64.3873 24.8772ZM81.0355 17.4138H83.2537V18.6622C83.7752 18.1571 84.3974 17.7626 85.0816 17.5035C85.7659 17.2444 86.4973 17.1262 87.2303 17.1562C91.0985 17.1562 93.2191 20.1958 93.2191 23.6288C93.2191 27.1029 91.1122 30.1014 87.1747 30.1014C86.4499 30.1401 85.725 30.0271 85.0485 29.7697C84.3719 29.5123 83.7593 29.1165 83.2516 28.6088V35H79.7305V18.6898C79.7305 18.352 79.8676 18.028 80.1117 17.7891C80.3557 17.5502 80.6867 17.416 81.0319 17.416L81.0355 17.4138ZM89.7956 23.6288C89.7956 21.5666 88.7422 19.9488 86.3974 19.9488C84.0527 19.9488 82.9595 21.5227 82.9595 23.6288C82.9595 25.7349 84.0548 27.347 86.3974 27.347C88.74 27.347 89.7797 25.6917 89.7956 23.6288ZM96.9535 12.271H97.9238C98.2689 12.271 98.5999 12.4053 98.844 12.6441C99.0881 12.883 99.2252 13.207 99.2252 13.5449V13.789C99.2252 14.1269 99.0881 14.4509 98.844 14.6898C98.5999 14.9287 98.2689 15.0629 97.9238 15.0629H96.9535C96.6083 15.0629 96.2773 14.9287 96.0332 14.6898C95.7891 14.4509 95.652 14.1269 95.652 13.789V13.5449C95.652 13.207 95.7891 12.883 96.0332 12.6441C96.2773 12.4053 96.6083 12.271 96.9535 12.271ZM97.0366 17.4138H99.1435V29.8438H95.7171V18.6898C95.722 18.3507 95.8627 18.027 96.109 17.7884C96.3552 17.5498 96.6872 17.4153 97.0337 17.4138H97.0366ZM102.221 27.3739V13.5336C102.221 13.1957 102.358 12.8717 102.603 12.6328C102.847 12.3939 103.178 12.2597 103.523 12.2597H105.63V26.5325C105.63 27.1156 106.059 27.3605 106.753 27.3605C107.063 27.3577 107.374 27.334 107.682 27.2897V29.8374C106.84 29.9865 105.986 30.0681 105.131 30.0815C103.522 30.1014 102.205 29.5586 102.218 27.3739H102.221ZM110.803 19.9516H108.233V18.6898C108.234 18.3545 108.37 18.0333 108.611 17.7951C108.852 17.5569 109.179 17.4208 109.522 17.416H110.797V15.7451C110.797 13.3298 112.904 12 115.261 12C116.133 12.0075 116.995 12.1828 117.798 12.5159L116.692 15.0126C116.359 14.8216 115.982 14.7144 115.596 14.7006C115.417 14.6907 115.237 14.72 115.07 14.7863C114.903 14.8525 114.753 14.9542 114.631 15.0839C114.509 15.2136 114.418 15.3682 114.365 15.5365C114.311 15.7048 114.296 15.8826 114.321 16.0572V17.4138H117.579V19.9516H114.321V29.8438H110.8V19.9516H110.803ZM121.319 12.2576H122.289C122.635 12.2576 122.966 12.3918 123.21 12.6307C123.454 12.8696 123.591 13.1936 123.591 13.5314V13.7756C123.591 13.9429 123.557 14.1085 123.492 14.2631C123.426 14.4176 123.331 14.5581 123.21 14.6763C123.089 14.7946 122.945 14.8885 122.787 14.9525C122.63 15.0165 122.46 15.0494 122.289 15.0494H121.305C121.135 15.0494 120.965 15.0165 120.807 14.9525C120.649 14.8885 120.506 14.7946 120.385 14.6763C120.264 14.5581 120.168 14.4176 120.103 14.2631C120.038 14.1085 120.004 13.9429 120.004 13.7756V13.5314C120.004 13.363 120.038 13.1963 120.104 13.0408C120.171 12.8854 120.268 12.7444 120.39 12.6259C120.512 12.5074 120.657 12.4139 120.817 12.3507C120.976 12.2875 121.147 12.2558 121.319 12.2576ZM121.402 17.4138H123.509V29.8438H120.099V18.6898C120.099 18.352 120.236 18.028 120.48 17.7891C120.724 17.5502 121.055 17.416 121.4 17.416L121.402 17.4138ZM128.001 17.4138H130.026V19.5015C130.34 18.7899 130.864 18.1863 131.531 17.7681C132.198 17.3498 132.977 17.1361 133.769 17.1541C134.707 17.1329 135.62 17.4517 136.333 18.0494L134.781 20.5326C134.322 20.2588 133.794 20.1134 133.256 20.1123C131.662 20.1123 129.998 21.4286 129.998 24.5898V29.8409H126.685V18.6898C126.685 18.5212 126.719 18.3543 126.785 18.1987C126.852 18.0431 126.949 17.902 127.071 17.7835C127.194 17.665 127.339 17.5715 127.499 17.5084C127.659 17.4453 127.83 17.4139 128.002 17.416L128.001 17.4138ZM136.763 26.3152L138.703 25.5551C138.905 26.1661 139.306 26.6957 139.844 27.0632C140.382 27.4306 141.028 27.6158 141.684 27.5905C143.264 27.5905 143.943 26.7625 143.943 26.1114C143.943 24.0216 136.93 25.4327 136.93 21.0365C136.93 18.4039 139.425 17.169 142.115 17.169C142.992 17.1361 143.867 17.2899 144.679 17.6198C145.49 17.9497 146.218 18.4478 146.814 19.0798C146.953 19.2312 147.026 19.4304 147.015 19.6338C147.005 19.8372 146.912 20.0283 146.759 20.1654C146.701 20.2093 146.641 20.2502 146.578 20.2878L144.776 21.1696C144.51 20.6802 144.109 20.2735 143.619 19.9954C143.129 19.7172 142.569 19.5788 142.003 19.5957C140.88 19.5957 140.201 20.084 140.201 20.6678C140.201 22.5404 147.312 21.4279 147.312 25.9868C147.312 28.8636 144.498 30.1254 141.85 30.1254C140.781 30.1712 139.717 29.9481 138.761 29.4774C137.805 29.0066 136.988 28.3038 136.388 27.4362C136.279 27.2625 136.244 27.054 136.291 26.8556C136.338 26.6572 136.462 26.4845 136.637 26.3746C136.677 26.3502 136.721 26.3305 136.766 26.3159L136.763 26.3152ZM151.084 26.41V19.9651H148.838V18.7033C148.838 18.3654 148.975 18.0414 149.219 17.8025C149.463 17.5636 149.794 17.4294 150.139 17.4294H151.152V15.0126C151.151 14.8008 151.203 14.592 151.305 14.4049C151.406 14.2178 151.554 14.0583 151.734 13.9405L154.506 12.1493V17.4146H158V19.9523H154.506V25.8821C154.506 27.076 155.157 27.4291 156.059 27.4291C156.729 27.4029 157.388 27.2508 157.999 26.9811V29.7348C157.173 29.9841 156.313 30.1122 155.448 30.1148C152.722 30.1014 151.087 28.6768 151.087 26.4107L151.084 26.41ZM30.5458 20.6438C31.2208 20.6438 31.8807 20.8398 32.4418 21.2072C33.0029 21.5745 33.44 22.0966 33.6978 22.7073C33.9556 23.3179 34.0224 23.9898 33.8898 24.6376C33.7572 25.2855 33.4311 25.8803 32.953 26.3466C32.4748 26.813 31.8659 27.13 31.2035 27.2574C30.5412 27.3849 29.8551 27.3171 29.2321 27.0626C28.6091 26.808 28.0773 26.3783 27.7041 25.8278C27.3308 25.2772 27.1329 24.6306 27.1353 23.9699C27.1378 23.0864 27.4983 22.24 28.1377 21.6164C28.7771 20.9928 29.6431 20.643 30.5458 20.6438ZM42.135 21.2679C39.7491 18.3098 35.4529 14.0219 30.5458 14.0219C25.6386 14.0219 21.3258 18.3098 18.9565 21.2545C18.3368 22.0264 18 22.9797 18 23.9614C18 24.9431 18.3368 25.8964 18.9565 26.6683C20.3388 28.4167 21.9422 29.9862 23.7284 31.3391V23.9543C23.7247 22.4832 24.2173 21.0521 25.1297 19.8831C26.042 18.7141 27.3232 17.8726 28.7743 17.4893C30.2253 17.106 31.765 17.2023 33.1544 17.7633C34.5438 18.3243 35.7051 19.3185 36.458 20.5917C37.211 21.8649 37.5134 23.3458 37.3184 24.8044C37.1234 26.2631 36.4418 27.6179 35.3796 28.6586C34.3173 29.6993 32.9337 30.3676 31.4436 30.5597C29.9535 30.7519 28.4403 30.4572 27.1389 29.7213V33.2357C28.2244 33.6605 29.3805 33.886 30.5494 33.901C35.4572 33.901 39.7548 29.613 42.1386 26.6683C42.7582 25.8989 43.0951 24.9478 43.0951 23.9681C43.0951 22.9885 42.7582 22.0374 42.1386 21.2679H42.135Z" fill="#979AAD"/>
</svg>
