<svg width="130" height="51" viewBox="0 0 130 51" fill="none" xmlns="http://www.w3.org/2000/svg">
<path d="M16.312 37.528C27.928 37.48 38.68 34.216 44.2 26.92l-3.792-3.504c-2.976 4.032-7.872 6.864-14.16 8.256 2.688-2.688 5.136-6.816 5.136-10.56 0-3.648-1.872-5.712-5.136-5.712-2.736 0-5.136 1.536-8.208 4.464l1.536-3.888h-5.904L-.2 50.872h5.904l7.248-18.384c3.168-6.672 8.592-11.664 10.992-11.664 1.008 0 1.632.624 1.632 1.632 0 3.792-5.52 9.744-9.84 9.744-.432 0-1.008-.096-1.104-.144l-2.016 5.04c.144.048 1.008.432 3.696.432zm32.32 0c9.265 0 16.657-4.368 21.409-10.608l-3.792-3.504c-4.464 5.328-10.128 8.688-15.984 8.688-3.648 0-5.856-.864-5.856-3.072.432.048.96.096 1.44.096 7.392 0 11.712-3.936 11.712-8.4 0-3.024-2.64-5.328-6.72-5.328-6.288 0-12.624 6.336-12.624 13.632 0 5.088 3.696 8.496 10.416 8.496zM44.65 25c1.2-2.496 3.552-4.464 5.712-4.464 1.248 0 1.872.528 1.872 1.392 0 1.344-2.16 3.12-6.336 3.12-.384 0-.816 0-1.248-.048zm21.844 12c1.44-2.736 3.36-5.088 5.712-7.2 2.496 4.944 5.808 7.632 10.272 7.632 6.768 0 12.768-4.128 17.52-10.512l-3.792-3.504c-4.08 5.424-8.688 8.784-12.288 8.784-2.928 0-4.896-2.304-6.816-5.856 3.6-2.544 7.632-4.416 11.472-5.808l-1.584-4.848c-5.04 1.536-10.848 4.752-15.408 8.736l3.36-8.448h-5.856L60.685 37h5.808zm47.233.528c6.384 0 11.04-4.32 15.792-10.608l-3.792-3.504c-4.224 5.808-7.824 8.784-10.272 8.784-1.344 0-2.208-.816-2.208-2.304 0-1.152.864-3.552 1.68-5.184l-4.992-2.304c-2.88 5.232-7.728 9.792-10.128 9.792-.912 0-1.344-.576-1.344-1.488 0-3.168 6.48-9.888 10.176-9.888 1.104 0 1.776.384 2.304.96l4.8-2.544c-1.68-2.64-3.696-3.744-6.72-3.744-7.008 0-16.224 8.928-16.224 16.464 0 3.6 2.304 5.472 5.712 5.472 3.504 0 6.624-1.968 9.456-4.752.72 3.12 2.352 4.848 5.76 4.848z" fill="#979AAD"/>
</svg>
