<svg width="5891" height="1055" viewBox="0 0 5891 1055" fill="none" xmlns="http://www.w3.org/2000/svg">
<path d="M1225.77 845.812C1194.52 845.812 1166.26 840.734 1141 830.578C1116 820.161 1094.65 805.708 1076.94 787.219C1059.49 768.729 1046.08 746.984 1036.7 721.984C1027.33 696.984 1022.64 670.031 1022.64 641.125V625.5C1022.64 592.427 1027.46 562.479 1037.09 535.656C1046.73 508.833 1060.14 485.917 1077.33 466.906C1094.52 447.635 1114.83 432.922 1138.27 422.766C1161.7 412.609 1187.09 407.531 1214.44 407.531C1244.65 407.531 1271.08 412.609 1293.73 422.766C1316.39 432.922 1335.14 447.245 1349.98 465.734C1365.09 483.964 1376.29 505.708 1383.58 530.969C1391.13 556.229 1394.91 584.094 1394.91 614.562V654.797H1068.34V587.219H1301.94V579.797C1301.42 562.87 1298.03 546.984 1291.78 532.141C1285.79 517.297 1276.55 505.318 1264.05 496.203C1251.55 487.089 1234.88 482.531 1214.05 482.531C1198.42 482.531 1184.49 485.917 1172.25 492.688C1160.27 499.198 1150.24 508.703 1142.17 521.203C1134.1 533.703 1127.85 548.807 1123.42 566.516C1119.26 583.964 1117.17 603.625 1117.17 625.5V641.125C1117.17 659.615 1119.65 676.802 1124.59 692.688C1129.8 708.312 1137.35 721.984 1147.25 733.703C1157.15 745.422 1169.12 754.667 1183.19 761.438C1197.25 767.948 1213.27 771.203 1231.23 771.203C1253.89 771.203 1274.07 766.646 1291.78 757.531C1309.49 748.417 1324.85 735.526 1337.88 718.859L1387.48 766.906C1378.37 780.188 1366.52 792.948 1351.94 805.188C1337.35 817.167 1319.52 826.932 1298.42 834.484C1277.59 842.036 1253.37 845.812 1225.77 845.812ZM1705.45 723.547C1705.45 714.172 1703.11 705.708 1698.42 698.156C1693.73 690.344 1684.75 683.312 1671.47 677.062C1658.45 670.812 1639.18 665.083 1613.66 659.875C1591.26 654.927 1570.69 649.068 1551.94 642.297C1533.45 635.266 1517.56 626.802 1504.28 616.906C1491 607.01 1480.71 595.292 1473.42 581.75C1466.13 568.208 1462.48 552.583 1462.48 534.875C1462.48 517.688 1466.26 501.411 1473.81 486.047C1481.36 470.682 1492.17 457.141 1506.23 445.422C1520.3 433.703 1537.35 424.458 1557.41 417.688C1577.72 410.917 1600.38 407.531 1625.38 407.531C1660.79 407.531 1691.13 413.521 1716.39 425.5C1741.91 437.219 1761.44 453.234 1774.98 473.547C1788.53 493.599 1795.3 516.255 1795.3 541.516H1701.16C1701.16 530.318 1698.29 519.901 1692.56 510.266C1687.09 500.37 1678.76 492.427 1667.56 486.438C1656.36 480.188 1642.3 477.062 1625.38 477.062C1609.23 477.062 1595.82 479.667 1585.14 484.875C1574.72 489.823 1566.91 496.333 1561.7 504.406C1556.76 512.479 1554.28 521.333 1554.28 530.969C1554.28 538 1555.58 544.38 1558.19 550.109C1561.05 555.578 1565.74 560.656 1572.25 565.344C1578.76 569.771 1587.61 573.938 1598.81 577.844C1610.27 581.75 1624.59 585.526 1641.78 589.172C1674.07 595.943 1701.81 604.667 1724.98 615.344C1748.42 625.76 1766.39 639.302 1778.89 655.969C1791.39 672.375 1797.64 693.208 1797.64 718.469C1797.64 737.219 1793.6 754.406 1785.53 770.031C1777.72 785.396 1766.26 798.807 1751.16 810.266C1736.05 821.464 1717.95 830.188 1696.86 836.438C1676.03 842.688 1652.59 845.812 1626.55 845.812C1588.27 845.812 1555.84 839.042 1529.28 825.5C1502.72 811.698 1482.54 794.12 1468.73 772.766C1455.19 751.151 1448.42 728.755 1448.42 705.578H1539.44C1540.48 723.026 1545.3 736.958 1553.89 747.375C1562.74 757.531 1573.68 764.953 1586.7 769.641C1599.98 774.068 1613.66 776.281 1627.72 776.281C1644.65 776.281 1658.84 774.068 1670.3 769.641C1681.76 764.953 1690.48 758.703 1696.47 750.891C1702.46 742.818 1705.45 733.703 1705.45 723.547ZM1974.2 501.281V838H1880.06V415.344H1968.73L1974.2 501.281ZM1958.97 611.047L1926.94 610.656C1926.94 581.49 1930.58 554.536 1937.88 529.797C1945.17 505.057 1955.84 483.573 1969.91 465.344C1983.97 446.854 2001.42 432.661 2022.25 422.766C2043.34 412.609 2067.69 407.531 2095.3 407.531C2114.57 407.531 2132.15 410.396 2148.03 416.125C2164.18 421.594 2178.11 430.318 2189.83 442.297C2201.81 454.276 2210.92 469.641 2217.17 488.391C2223.68 507.141 2226.94 529.797 2226.94 556.359V838H2132.8V564.562C2132.8 543.99 2129.67 527.844 2123.42 516.125C2117.43 504.406 2108.71 496.073 2097.25 491.125C2086.05 485.917 2072.64 483.312 2057.02 483.312C2039.31 483.312 2024.2 486.698 2011.7 493.469C1999.46 500.24 1989.44 509.484 1981.62 521.203C1973.81 532.922 1968.08 546.464 1964.44 561.828C1960.79 577.193 1958.97 593.599 1958.97 611.047ZM2221.08 586.047L2176.94 595.812C2176.94 570.292 2180.45 546.203 2187.48 523.547C2194.78 500.63 2205.32 480.578 2219.12 463.391C2233.19 445.943 2250.51 432.271 2271.08 422.375C2291.65 412.479 2315.22 407.531 2341.78 407.531C2363.4 407.531 2382.67 410.526 2399.59 416.516C2416.78 422.245 2431.36 431.359 2443.34 443.859C2455.32 456.359 2464.44 472.635 2470.69 492.688C2476.94 512.479 2480.06 536.438 2480.06 564.562V838H2385.53V564.172C2385.53 542.818 2382.41 526.281 2376.16 514.562C2370.17 502.844 2361.57 494.771 2350.38 490.344C2339.18 485.656 2325.77 483.312 2310.14 483.312C2295.56 483.312 2282.67 486.047 2271.47 491.516C2260.53 496.724 2251.29 504.146 2243.73 513.781C2236.18 523.156 2230.45 533.964 2226.55 546.203C2222.9 558.443 2221.08 571.724 2221.08 586.047ZM2831.23 738.391V415.344H2925.77V838H2836.7L2831.23 738.391ZM2844.52 650.5L2876.16 649.719C2876.16 678.104 2873.03 704.276 2866.78 728.234C2860.53 751.932 2850.9 772.635 2837.88 790.344C2824.85 807.792 2808.19 821.464 2787.88 831.359C2767.56 840.995 2743.21 845.812 2714.83 845.812C2694.26 845.812 2675.38 842.818 2658.19 836.828C2641 830.839 2626.16 821.594 2613.66 809.094C2601.42 796.594 2591.91 780.318 2585.14 760.266C2578.37 740.214 2574.98 716.255 2574.98 688.391V415.344H2669.12V689.172C2669.12 704.536 2670.95 717.427 2674.59 727.844C2678.24 738 2683.19 746.203 2689.44 752.453C2695.69 758.703 2702.98 763.13 2711.31 765.734C2719.65 768.339 2728.5 769.641 2737.88 769.641C2764.7 769.641 2785.79 764.432 2801.16 754.016C2816.78 743.339 2827.85 729.016 2834.36 711.047C2841.13 693.078 2844.52 672.896 2844.52 650.5ZM3116.39 501.281V838H3022.25V415.344H3110.92L3116.39 501.281ZM3101.16 611.047L3069.12 610.656C3069.12 581.49 3072.77 554.536 3080.06 529.797C3087.35 505.057 3098.03 483.573 3112.09 465.344C3126.16 446.854 3143.6 432.661 3164.44 422.766C3185.53 412.609 3209.88 407.531 3237.48 407.531C3256.76 407.531 3274.33 410.396 3290.22 416.125C3306.36 421.594 3320.3 430.318 3332.02 442.297C3343.99 454.276 3353.11 469.641 3359.36 488.391C3365.87 507.141 3369.12 529.797 3369.12 556.359V838H3274.98V564.562C3274.98 543.99 3271.86 527.844 3265.61 516.125C3259.62 504.406 3250.9 496.073 3239.44 491.125C3228.24 485.917 3214.83 483.312 3199.2 483.312C3181.49 483.312 3166.39 486.698 3153.89 493.469C3141.65 500.24 3131.62 509.484 3123.81 521.203C3116 532.922 3110.27 546.464 3106.62 561.828C3102.98 577.193 3101.16 593.599 3101.16 611.047ZM3363.27 586.047L3319.12 595.812C3319.12 570.292 3322.64 546.203 3329.67 523.547C3336.96 500.63 3347.51 480.578 3361.31 463.391C3375.38 445.943 3392.69 432.271 3413.27 422.375C3433.84 412.479 3457.41 407.531 3483.97 407.531C3505.58 407.531 3524.85 410.526 3541.78 416.516C3558.97 422.245 3573.55 431.359 3585.53 443.859C3597.51 456.359 3606.62 472.635 3612.88 492.688C3619.12 512.479 3622.25 536.438 3622.25 564.562V838H3527.72V564.172C3527.72 542.818 3524.59 526.281 3518.34 514.562C3512.35 502.844 3503.76 494.771 3492.56 490.344C3481.36 485.656 3467.95 483.312 3452.33 483.312C3437.74 483.312 3424.85 486.047 3413.66 491.516C3402.72 496.724 3393.47 504.146 3385.92 513.781C3378.37 523.156 3372.64 533.964 3368.73 546.203C3365.09 558.443 3363.27 571.724 3363.27 586.047ZM3905.45 845.812C3874.2 845.812 3845.95 840.734 3820.69 830.578C3795.69 820.161 3774.33 805.708 3756.62 787.219C3739.18 768.729 3725.77 746.984 3716.39 721.984C3707.02 696.984 3702.33 670.031 3702.33 641.125V625.5C3702.33 592.427 3707.15 562.479 3716.78 535.656C3726.42 508.833 3739.83 485.917 3757.02 466.906C3774.2 447.635 3794.52 432.922 3817.95 422.766C3841.39 412.609 3866.78 407.531 3894.12 407.531C3924.33 407.531 3950.77 412.609 3973.42 422.766C3996.08 432.922 4014.83 447.245 4029.67 465.734C4044.78 483.964 4055.97 505.708 4063.27 530.969C4070.82 556.229 4074.59 584.094 4074.59 614.562V654.797H3748.03V587.219H3981.62V579.797C3981.1 562.87 3977.72 546.984 3971.47 532.141C3965.48 517.297 3956.23 505.318 3943.73 496.203C3931.23 487.089 3914.57 482.531 3893.73 482.531C3878.11 482.531 3864.18 485.917 3851.94 492.688C3839.96 499.198 3829.93 508.703 3821.86 521.203C3813.79 533.703 3807.54 548.807 3803.11 566.516C3798.94 583.964 3796.86 603.625 3796.86 625.5V641.125C3796.86 659.615 3799.33 676.802 3804.28 692.688C3809.49 708.312 3817.04 721.984 3826.94 733.703C3836.83 745.422 3848.81 754.667 3862.88 761.438C3876.94 767.948 3892.95 771.203 3910.92 771.203C3933.58 771.203 3953.76 766.646 3971.47 757.531C3989.18 748.417 4004.54 735.526 4017.56 718.859L4067.17 766.906C4058.06 780.188 4046.21 792.948 4031.62 805.188C4017.04 817.167 3999.2 826.932 3978.11 834.484C3957.28 842.036 3933.06 845.812 3905.45 845.812ZM4151.94 791.125C4151.94 776.542 4156.89 764.302 4166.78 754.406C4176.68 744.25 4190.09 739.172 4207.02 739.172C4224.2 739.172 4237.61 744.25 4247.25 754.406C4257.15 764.302 4262.09 776.542 4262.09 791.125C4262.09 805.708 4257.15 817.948 4247.25 827.844C4237.61 837.74 4224.2 842.688 4207.02 842.688C4190.09 842.688 4176.68 837.74 4166.78 827.844C4156.89 817.948 4151.94 805.708 4151.94 791.125ZM4543.34 770.812C4558.71 770.812 4572.51 767.818 4584.75 761.828C4597.25 755.578 4607.28 746.984 4614.83 736.047C4622.64 725.109 4626.94 712.479 4627.72 698.156H4716.39C4715.87 725.5 4707.8 750.37 4692.17 772.766C4676.55 795.161 4655.84 813 4630.06 826.281C4604.28 839.302 4575.77 845.812 4544.52 845.812C4512.22 845.812 4484.1 840.344 4460.14 829.406C4436.18 818.208 4416.26 802.844 4400.38 783.312C4384.49 763.781 4372.51 741.255 4364.44 715.734C4356.62 690.214 4352.72 662.87 4352.72 633.703V620.031C4352.72 590.865 4356.62 563.521 4364.44 538C4372.51 512.219 4384.49 489.562 4400.38 470.031C4416.26 450.5 4436.18 435.266 4460.14 424.328C4484.1 413.13 4512.09 407.531 4544.12 407.531C4577.98 407.531 4607.67 414.302 4633.19 427.844C4658.71 441.125 4678.76 459.745 4693.34 483.703C4708.19 507.401 4715.87 535.005 4716.39 566.516H4627.72C4626.94 550.891 4623.03 536.828 4616 524.328C4609.23 511.568 4599.59 501.411 4587.09 493.859C4574.85 486.307 4560.14 482.531 4542.95 482.531C4523.94 482.531 4508.19 486.438 4495.69 494.25C4483.19 501.802 4473.42 512.219 4466.39 525.5C4459.36 538.521 4454.28 553.234 4451.16 569.641C4448.29 585.786 4446.86 602.583 4446.86 620.031V633.703C4446.86 651.151 4448.29 668.078 4451.16 684.484C4454.02 700.891 4458.97 715.604 4466 728.625C4473.29 741.385 4483.19 751.672 4495.69 759.484C4508.19 767.036 4524.07 770.812 4543.34 770.812ZM4770.69 631.359V622.375C4770.69 591.906 4775.11 563.651 4783.97 537.609C4792.82 511.307 4805.58 488.521 4822.25 469.25C4839.18 449.719 4859.75 434.615 4883.97 423.938C4908.45 413 4936.05 407.531 4966.78 407.531C4997.77 407.531 5025.38 413 5049.59 423.938C5074.07 434.615 5094.78 449.719 5111.7 469.25C5128.63 488.521 5141.52 511.307 5150.38 537.609C5159.23 563.651 5163.66 591.906 5163.66 622.375V631.359C5163.66 661.828 5159.23 690.083 5150.38 716.125C5141.52 742.167 5128.63 764.953 5111.7 784.484C5094.78 803.755 5074.2 818.859 5049.98 829.797C5025.77 840.474 4998.29 845.812 4967.56 845.812C4936.57 845.812 4908.84 840.474 4884.36 829.797C4860.14 818.859 4839.57 803.755 4822.64 784.484C4805.71 764.953 4792.82 742.167 4783.97 716.125C4775.11 690.083 4770.69 661.828 4770.69 631.359ZM4864.83 622.375V631.359C4864.83 650.37 4866.78 668.339 4870.69 685.266C4874.59 702.193 4880.71 717.036 4889.05 729.797C4897.38 742.557 4908.06 752.583 4921.08 759.875C4934.1 767.167 4949.59 770.812 4967.56 770.812C4985.01 770.812 5000.11 767.167 5012.88 759.875C5025.9 752.583 5036.57 742.557 5044.91 729.797C5053.24 717.036 5059.36 702.193 5063.27 685.266C5067.43 668.339 5069.52 650.37 5069.52 631.359V622.375C5069.52 603.625 5067.43 585.917 5063.27 569.25C5059.36 552.323 5053.11 537.349 5044.52 524.328C5036.18 511.307 5025.51 501.151 5012.48 493.859C4999.72 486.307 4984.49 482.531 4966.78 482.531C4949.07 482.531 4933.71 486.307 4920.69 493.859C4907.93 501.151 4897.38 511.307 4889.05 524.328C4880.71 537.349 4874.59 552.323 4870.69 569.25C4866.78 585.917 4864.83 603.625 4864.83 622.375ZM5336.7 501.281V838H5242.56V415.344H5331.23L5336.7 501.281ZM5321.47 611.047L5289.44 610.656C5289.44 581.49 5293.08 554.536 5300.38 529.797C5307.67 505.057 5318.34 483.573 5332.41 465.344C5346.47 446.854 5363.92 432.661 5384.75 422.766C5405.84 412.609 5430.19 407.531 5457.8 407.531C5477.07 407.531 5494.65 410.396 5510.53 416.125C5526.68 421.594 5540.61 430.318 5552.33 442.297C5564.31 454.276 5573.42 469.641 5579.67 488.391C5586.18 507.141 5589.44 529.797 5589.44 556.359V838H5495.3V564.562C5495.3 543.99 5492.17 527.844 5485.92 516.125C5479.93 504.406 5471.21 496.073 5459.75 491.125C5448.55 485.917 5435.14 483.312 5419.52 483.312C5401.81 483.312 5386.7 486.698 5374.2 493.469C5361.96 500.24 5351.94 509.484 5344.12 521.203C5336.31 532.922 5330.58 546.464 5326.94 561.828C5323.29 577.193 5321.47 593.599 5321.47 611.047ZM5583.58 586.047L5539.44 595.812C5539.44 570.292 5542.95 546.203 5549.98 523.547C5557.28 500.63 5567.82 480.578 5581.62 463.391C5595.69 445.943 5613.01 432.271 5633.58 422.375C5654.15 412.479 5677.72 407.531 5704.28 407.531C5725.9 407.531 5745.17 410.526 5762.09 416.516C5779.28 422.245 5793.86 431.359 5805.84 443.859C5817.82 456.359 5826.94 472.635 5833.19 492.688C5839.44 512.479 5842.56 536.438 5842.56 564.562V838H5748.03V564.172C5748.03 542.818 5744.91 526.281 5738.66 514.562C5732.67 502.844 5724.07 494.771 5712.88 490.344C5701.68 485.656 5688.27 483.312 5672.64 483.312C5658.06 483.312 5645.17 486.047 5633.97 491.516C5623.03 496.724 5613.79 504.146 5606.23 513.781C5598.68 523.156 5592.95 533.964 5589.05 546.203C5585.4 558.443 5583.58 571.724 5583.58 586.047Z" fill="#979AAD"/>
<rect y="82" width="892" height="892" rx="50" fill="#979AAD"/>
<path d="M206.641 838V788.781L270.312 777.844V329.797L206.641 318.859V269.641H460.156C501.562 269.641 536.458 275.891 564.844 288.391C593.49 300.63 615.234 318.469 630.078 341.906C644.922 365.344 652.344 393.99 652.344 427.844C652.344 461.177 645.052 489.172 630.469 511.828C616.146 534.484 595.703 551.672 569.141 563.391C542.578 574.849 511.068 580.969 474.609 581.75L347.266 584.094V777.844L410.938 788.781V838H206.641ZM582.031 838L455.469 554.016L532.422 553.234L637.5 780.578L676.953 787.609V838H582.031ZM347.266 523.547H452.344C495.312 523.547 526.562 515.344 546.094 498.938C565.625 482.531 575.391 458.573 575.391 427.062C575.391 397.115 566.016 373.417 547.266 355.969C528.516 338.521 499.479 329.797 460.156 329.797H347.266V523.547Z" fill="white"/>
</svg>
