<svg width="155" height="48" viewBox="0 0 155 48" fill="none" xmlns="http://www.w3.org/2000/svg">
<path d="M25.3137 25.7625L31.067 33.6289H27.63L22.325 26.0594H21.8019V33.6289H19V15.1503H22.2876C24.7533 15.1503 26.5092 15.5955 27.5926 16.5232C28.7881 17.5622 29.3858 18.898 29.3858 20.5677C29.3858 21.8664 29.0122 23.0167 28.2651 23.9443C27.5179 24.9091 26.5465 25.5028 25.3137 25.7625ZM21.8019 23.6475H22.6986C25.351 23.6475 26.696 22.6456 26.696 20.6048C26.696 18.7124 25.3884 17.7848 22.8106 17.7848H21.8019V23.6475ZM40.1452 24.3154C40.1452 21.718 41.1166 19.4917 43.0219 17.6364C44.9272 15.7811 47.2435 14.8534 49.896 14.8534C52.5485 14.8534 54.8274 15.7811 56.6953 17.6735C58.6006 19.5659 59.5346 21.8293 59.5346 24.4638C59.5346 27.1354 58.5633 29.3618 56.658 31.2171C54.7527 33.0724 52.4364 34 49.7092 34C47.3182 34 45.1514 33.1837 43.2461 31.5139C41.1913 29.6586 40.1452 27.2839 40.1452 24.3154ZM42.9845 24.3525C42.9845 26.3933 43.657 28.0631 45.0393 29.3989C46.4216 30.6976 47.9907 31.3655 49.7839 31.3655C51.7266 31.3655 53.3704 30.6976 54.7153 29.3618C56.0602 27.9889 56.7327 26.3562 56.7327 24.4267C56.7327 22.4601 56.0602 20.7904 54.7527 19.4917C53.4451 18.1558 51.8013 17.4879 49.8586 17.4879C47.9159 17.4879 46.2721 18.1558 44.9646 19.4917C43.6196 20.7532 42.9845 22.3859 42.9845 24.3525ZM73.5443 22.3859H81.5765V15.1503H84.3784V33.6289H81.5765V25.0204H73.5443V33.6289H70.7424V15.1503H73.5443V22.3859ZM107.205 17.7848H99.7704V22.2375H107.018V24.872H99.7704V31.0315H107.205V33.666H96.9311V15.1503H107.205V17.7848ZM128.836 26.5417L122.036 29.1763L119.982 33.666H116.956L126.109 14L135 33.6289H131.937L128.836 26.5417ZM128.836 26.5417L126.071 20.2709L123.195 26.5417H128.836Z" fill="#979AAD"/>
</svg>
