<svg height="48" width="96" viewBox="0 0 172.6 176.1" xmlns="http://www.w3.org/2000/svg"><g fill="#979AAD"><path d="M47.3 87.3 36.2 75.1a29.2 29.2 0 0 0 6.9-6.5l11 11.8a10.9 10.9 0 0 1-6.8 7Z"></path><path d="M60.2 72.1a19 19 0 0 1 1.3 12.2 14.4 14.4 0 0 1-5.1 7.8c-5.6 4.1-14.4 3.2-20.9.6A32.7 32.7 0 0 0 50.8 90a17 17 0 0 0 4.5-2.7c4-3.6 5.4-9.9 5-15.2Z"></path><path d="M124.6 137.8a28.3 28.3 0 0 0-14-2.4c-2.7.2-5.5.7-7.5 2.3a13 13 0 0 0-3.9 7.4 22.1 22.1 0 0 0 1 12.4c-3.5-5.3-6.2-12.7-3.6-18.7a12.6 12.6 0 0 1 7-6.9c4.2-1.5 9.2.2 13.5 2a41 41 0 0 1 7.5 3.9Z"></path><path d="M78.7 37.3Q92 50 104.9 63.3C115.4 74 125.6 85 135.7 96c9 10 17.9 20.1 25.7 31.2 4.7 6.6 9 13.4 10.6 21.4.8 4.1 1 8.5-.5 12.3a22.3 22.3 0 0 1-9.6 10.5 25.9 25.9 0 0 1-18.8 4.1 24.9 24.9 0 0 1-7.5-3.2 73.5 73.5 0 0 1-7.3-5.5c-8.5-7-17.1-13.7-25.2-21.1a10.2 10.2 0 0 1 1.2-3 11 11 0 0 1 4.8-4.1q8.2 6.6 16.6 13.1l7.5 5.6a21.2 21.2 0 0 1 3.6-11.5 20.2 20.2 0 0 1 10.9-7.2 24.6 24.6 0 0 1 9.4-.8c-3.4-5.4-7-10.8-10.8-16a330 330 0 0 0-23-27.4 1100 1100 0 0 0-27.9-29Q84 53.6 72.1 42.1a35 35 0 0 0 4-2.6q1.3-1 2.6-2.3ZM142 162a6 6 0 0 0 3.3 2.6 9.6 9.6 0 0 0 6.8-.6 11.6 11.6 0 0 0 6.2-5.6c1.3-2.6 1.6-6.1-.1-8.2a6.2 6.2 0 0 0-3.1-2 10.3 10.3 0 0 0-8.4 1.6 11.9 11.9 0 0 0-4.7 6c-.7 2.1-1 4.5 0 6.2Z"></path><path d="M78.7 34.2A17.3 17.3 0 0 1 60.3 41 18 18 0 0 1 49 34a16.6 16.6 0 0 1-2.6-7.4 9.5 9.5 0 0 0-.8-3.6 6.2 6.2 0 0 0-3.5-2.5c-3-1-6.1-.4-9 .8-3.1 1.3-6 3.2-7.3 6a10.8 10.8 0 0 0-.2 6.7 21.2 21.2 0 0 0 5 8.8c3.5 3.9 7.4 6.9 11.1 10.8a14.4 14.4 0 0 1 3.3 4.8c2.2 6.4-6.4 14.2-12.8 17.5a240.4 240.4 0 0 1-17.6-16.6c-3-3.2-6-6.5-9-10A26.4 26.4 0 0 1 3.2 46a21.6 21.6 0 0 1-2.5-7.8 33.2 33.2 0 0 1 .2-13.5c1.5-5.8 5.2-11 9.7-15.3a33 33 0 0 1 17.2-9A29.5 29.5 0 0 1 51 7c1.2 1 2.3 2.2 3.5 3.4 7.8 8.1 16 15.8 24.1 23.7Z"></path><path d="M27.4 33.8a11 11 0 0 1 3.1-2.6c1.6-1 3.6-1.6 5.1-1.2 1.7.5 2.9 2.2 3.9 4a27.4 27.4 0 0 1 3.8 18.4 95.9 95.9 0 0 1-8-7.4 46.2 46.2 0 0 1-5-6 32 32 0 0 1-3-5.2Z"></path></g></svg>
