<svg enable-background="new 0 0 190 43" viewBox="0 0 190 43" xmlns="http://www.w3.org/2000/svg"><g fill="#979aad"><path d="m68.2 8.5v-.2c0-1.2-1-1.9-2.7-1.9s-2.5.6-2.5 1.5c0 .6.4 1 1.4 1.3l3 .7c1.2.2 2.3.7 3.3 1.5.8.7 1.2 1.8 1.1 2.8 0 3.1-2.4 5-6.2 5-4 0-6.3-1.9-6.3-5.2h3.3c.1 1.7 1 2.4 3 2.4 1.7 0 2.7-.6 2.7-1.7 0-.7-.5-1.2-1.6-1.5l-2.7-.8c-1.2-.2-2.3-.7-3.2-1.4-.8-.8-1.2-1.8-1.2-2.9 0-2.9 2.2-4.6 6-4.6 2.4 0 4.1.7 5 2.1.5.9.8 1.9.9 2.9z"/><path d="m76.7 14.3c0 1.3 1.1 2.3 2.4 2.2.8.1 1.5-.3 1.9-1h3.2c-.6 2.1-2.6 3.5-5.2 3.5-2.9.1-5.4-2.1-5.5-5 0-.2 0-.4 0-.6-.2-2.9 2-5.5 5-5.7h.5c2.1-.1 4 1.2 4.8 3.2.4 1.1.6 2.3.5 3.4zm4.4-2.3c0-1.1-.9-1.9-1.9-1.9-.1 0-.1 0-.2 0-1.1-.1-2.1.8-2.3 1.9z"/><path d="m86.5 11.4c.2-2.5 1.7-3.7 4.8-3.7 1.3-.1 2.6.3 3.7 1.1.8.7 1.1 1.6 1.1 3.1v4.9c0 1.2 0 1.3.4 1.9h-3.2c-.1-.4-.1-.4-.2-.8-.8.8-1.9 1.2-3.1 1.1-2.4 0-3.9-1.3-3.9-3.4s1.3-3.1 4.3-3.6l1.7-.3c.7-.1 1-.3 1-.7 0-.6-.6-1-1.6-1s-1.8.4-1.9 1.3zm6.5 2.2c-.4.2-.8.3-1.2.3l-1.1.2c-1.1.3-1.6.6-1.6 1.3s.6 1.1 1.6 1.1 1.9-.5 2.3-1.4z"/><path d="m104.7 18.7-2-7.9c-.2-.7-.3-1.1-.4-1.4s-.2-.7-.3-1v1.2 1.4 7.8h-2.9v-14.9h4.7l1.9 7.8c.3 1.2.5 2.4.7 3.4 0-.2.1-.3.1-.5l.3-1c0-.3.1-.6.2-1s.2-1 .2-1l1.9-7.8h4.6v14.9h-3v-7.7-1.5c0-.4 0-.8 0-1.1-.2.9-.4 1.5-.5 1.7-.1.4-.2.7-.2.7l-2 7.9z"/><path d="m127.5 13.4c0 3.2-2.6 5.7-5.7 5.7s-5.7-2.6-5.6-5.8c0-3.2 2.6-5.7 5.7-5.7 3.1.1 5.6 2.7 5.6 5.8zm-8.2-.1c0 2 .9 3.2 2.5 3.2s2.5-1.1 2.5-3.1-.9-3.2-2.5-3.2-2.5 1.1-2.5 3.1z"/><path d="m132.8 8v1c.7-.9 1.8-1.4 2.9-1.4 2.3 0 3.7 1.6 3.7 4.1v7h-3.1v-5.8c.1-.7 0-1.3-.3-1.9-.3-.4-.8-.6-1.3-.6s-1 .2-1.3.6c-.4.5-.6 1.1-.5 1.8v6h-3.1v-10.8z"/><path d="m148.1 11.2c-.1-.8-.8-1.2-1.8-1.2s-1.5.4-1.5.9.3.6 1.3.8l1.9.4c.9.1 1.8.4 2.4 1 .5.6.8 1.4.8 2.2 0 2.3-1.8 3.7-4.8 3.7s-4.8-1.4-5-3.8h3c.2 1 .8 1.5 2.1 1.5 1 0 1.6-.4 1.6-1 0-.5-.3-.8-1.2-1l-1.9-.4c-2.4-.5-3.3-1.4-3.3-3.1 0-2.2 1.7-3.5 4.6-3.5s4.4 1.3 4.7 3.5z"/><path d="m159 10.3h-2v4.2c0 1.7.1 1.8.8 1.8h1.1v2.4h-1.9c-1.4 0-2.1-.2-2.5-.7-.5-.5-.6-1.1-.6-2.8v-4.9h-1.5v-2.2h1.5v-3.4h3.2v3.4h1.9z"/><path d="m163.4 14.3c0 1.3 1.1 2.3 2.4 2.2h.1c.8.1 1.5-.3 1.9-1h3.2c-.6 2.1-2.6 3.4-5.1 3.4-2.9.1-5.4-2.1-5.5-5 0-.2 0-.4 0-.6-.2-2.9 2-5.5 5-5.7h.5c2.1-.1 4 1.2 4.8 3.2.4 1.1.6 2.3.5 3.4zm4.4-2.3c0-1.1-.9-1.9-1.9-1.9-.1 0-.1 0-.2 0-1.1-.1-2.1.8-2.3 1.9z"/><path d="m176.4 8-.1 1.9c.6-1.7 1.4-2.2 3.7-2.2v3c-.3 0-.5-.1-.8 0-1-.1-1.9.4-2.3 1.3-.4 1.2-.5 2.5-.4 3.8v3h-3.2v-10.8z"/><path d="m67.5 29.9c-.2-1.5-1.1-2.2-2.7-2.2-1.5 0-2.4.6-2.4 1.6 0 .8.6 1.3 1.9 1.6l1.8.4c.9.1 1.8.5 2.5 1 .6.5.9 1.3.9 2.1 0 2.1-1.7 3.3-4.3 3.3-2.8 0-4.5-1.4-4.8-4.1h1.6c.2 1.7 1.3 2.7 3.2 2.7 1.6 0 2.7-.8 2.7-1.9 0-.8-.6-1.4-1.7-1.6l-2.5-.6c-2-.5-2.9-1.4-2.9-2.8 0-1.9 1.6-3.1 4.1-3.1s3.9 1.2 4.2 3.6z"/><path d="m77.4 37.5h-1.6v-9.6h-3.4v-1.4h8.3v1.4h-3.4v9.6z"/><path d="m93 26.5v7.2c.1 1.1-.2 2.1-1 2.9-1.9 1.5-4.7 1.5-6.6 0-.7-.8-1.1-1.8-1-2.9v-7.2h1.6v7.4c0 1.5 1 2.5 2.7 2.5 1.8 0 2.7-.9 2.7-2.5v-7.4z"/><path d="m97.7 26.5h3.9c1.5-.1 3 .5 3.9 1.8.7 1.1 1 2.3 1 3.6 0 3.4-1.9 5.6-4.9 5.6h-3.8v-11zm3.5 9.6c2.5 0 3.7-1.3 3.7-4.2.1-1-.2-2-.7-2.9-.7-.9-1.8-1.3-2.9-1.2h-2v8.2z"/><path d="m112.3 37.5h-1.6v-11h1.6z"/><path d="m127.1 32.1c0 3.3-2.2 5.6-5.3 5.6-3 0-5.3-2.4-5.3-5.7s2.2-5.7 5.2-5.7 5.4 2.3 5.4 5.8zm-9-.1c0 2.6 1.5 4.4 3.7 4.4s3.7-1.8 3.7-4.3-1.5-4.4-3.7-4.4c-2.2-.1-3.7 1.7-3.7 4.3z"/><path d="m137.8 29.9c-.2-1.5-1.1-2.2-2.7-2.2-1.5 0-2.4.6-2.4 1.6 0 .8.6 1.3 1.9 1.6l1.8.4c.9.1 1.8.5 2.5 1 .6.5.9 1.3.9 2.1 0 2.1-1.7 3.3-4.3 3.3-2.8 0-4.5-1.4-4.8-4.1h1.6c.2 1.7 1.3 2.7 3.2 2.7 1.6 0 2.7-.8 2.7-1.9 0-.8-.6-1.4-1.7-1.6l-2.4-.6c-2-.5-2.9-1.4-2.9-2.8 0-1.9 1.6-3.1 4.1-3.1s3.9 1.2 4.2 3.6z"/><path d="m39 1c-.2-.1-.4-.1-.5 0-.2.1-.3.2-.4.4s-.1.4 0 .6.2.3.4.4c10.4 4 15.7 15.7 11.7 26.2-2.9 7.7-10.2 12.9-18.5 13.1h-.4c-9.9 0-18.3-7.3-19.9-17.1-.1-.4-.4-.6-.8-.6s-.6.3-.6.7c1.7 10.5 10.7 18.3 21.3 18.3h.4c11.9-.2 21.4-10.1 21.2-22-.1-8.9-5.6-16.9-13.9-20z"/><path d="m10 20.9c.2.3.5.6.7.8 2.1 1.8 4.6 2.7 8.7 2.1 3.8-.5 5.2-2.2 7.2-3.8 1.7-1.4 3.5-2.6 5.4-3.6 2.6-1.3 5.7-1 8 .7 2.1 1.6 3.1 4.3 2.5 6.9-.5 3.6-3.8 6-7.3 5.5-2.2-.2-3.9-1.7-5.1-2.7-.3-.3-.6-.5-.8-.7-2.1-1.8-5.2-1.6-7 .4-2 2-2.3 5.2-.7 7.6 1.4 1.8 2.9 2.3 4.7 1.8.3-.1.6-.3.8-.6-.2 0-.3 0-.5 0-1.1-.1-1.7-1.3-1.9-1.9l-1.9-.1c-.1 0-.3-.1-.3-.2-1-1.5-1-3.5.1-4.9.2-.2.4-.2.6 0l.9.7 1.4-.8-.3-1c-.1-.2 0-.5.2-.6 1.8-.9 4.2 1.6 4.5 2.1.1.2.1.4-.1.6l-.4.3 1.2 1.6.3-.2c.2-.2.5-.2.6 0 .8.9 1.7 1.7 2.7 2.4.2.1.3.3.3.5l-.1.6h2.8v-.8c0-.2.1-.4.3-.5.8-.2 1.6-.4 2.4-.5l.4-.1c.2 0 .3 0 .4.2l.6.8 3.3-2.3-.4-.7c-.1-.2-.1-.4.1-.5.3-.4 1.3-1.9 1.6-2.4.1-.2.3-.3.5-.2l.7.2.7-2.9-.7-.3c-.2-.1-.3-.2-.3-.4s0-.3 0-.5c.1-.6.1-1.3 0-1.9 0-.2.1-.4.3-.5l1-.5-.6-2.8h-1.4c-.2 0-.4-.1-.4-.3-.1-.4-.3-.7-.4-1.1-.1-.3-.2-.6-.3-.9-.1-.1-.1-.3 0-.5l.7-1-1.5-2-.5.3c-.2.1-.4.1-.5 0-.6-.3-1.2-.5-1.8-.7h-.4c-.2-.1-.3-.3-.3-.5l.1-1-2-.7-.3.8c-.1.2-.3.3-.5.3-.6 0-1.3 0-1.9 0h-.7c-.2 0-.4-.1-.4-.3l-.1-.4-2.7.6.1.6c.1.2-.1.5-.3.5-.3.1-.7.2-1 .4-.4.2-.9.3-1.4.5-.2 0-.4 0-.5-.2l-.3-.6-2.7 1.1.2.7c0 .1 0 .3-.1.4-.8.8-1.8 1.5-2.9 1.9-.2 0-.4-.1-.4-.2l-.5-.8-2.2.2c-.1.5-.3 1.3-.3 1.5s-.2.3-.4.4c-1.2.1-2.5-.3-3.3-1.2-.2-.2-.2-.4-.1-.6l.8-1.1-1-1.7-1 .1c-.2 0-.3-.1-.4-.2-.5-1.1.2-3.1 1.1-3.8.2-.1.4-.1.6 0l1 .8 1.4-.9-.2-1.2c-.1-.2.1-.4.3-.5.8-.2 1.6-.3 2.4-.3h.6c.2 0 .4.2.5.4l.1.8h2l.2-1.2c0-.2.2-.3.4-.3l1.1-.1c.4 0 .8-.1 1-.1s.4.1.5.3l.4 1 2.5-.6.1-1c0-.2.1-.4.3-.4.6-.3 1.2-.6 1.7-1l.3-.2c.2-.1.4-.1.5 0 .3.3.7.6 1 .9l2-1.6-.3-1.4c-.1-.2 0-.4.2-.5.1-.1.3-.2.4-.4-1.6-.4-3.3-.6-5-.6-10.5 0-19.4 7.6-21 18v.3c0 .2 0 .4-.1.6-.4.4-.5 1.1-.5 1.8z"/></g></svg>