<?xml version="1.0" encoding="UTF-8"?><svg id="Layer_2" xmlns="http://www.w3.org/2000/svg" viewBox="0 0 110.04 46.63"><defs><style>.cls-1{fill:#979aad;}.cls-2{fill:#fff;fill-rule:evenodd;}</style></defs><g id="Layer_1-2"><rect class="cls-1" x="0" y="0" width="110.04" height="46.63" rx="23.31" ry="23.31"/><path class="cls-2" d="m48.44,9.35l5.1.86h0s-.04.06-.04.06c-.87.76-6.99,9.82-9.24,13.26-1.94,2.97-5.19,6.18-13.5,8.62-3.37.99-12.61,2.56-14.85,2.93-.05,0-.1,0-.15-.02-.05-.02-.09-.05-.13-.09-.03-.04-.06-.09-.07-.14-.01-.05-.01-.1,0-.15.09-.4.24-.79.43-1.15.15-.22.33-.41.55-.55,0,0,24.89-15.31,33.76-20.79l-28.56,13.73.4-1.16s24.49-16.24,26.3-15.4Zm-9.72,16.46c2.52-1.73,3.57-3.86,4.21-5.22.03-.07.06-.15.09-.22l-18.25,10.31c3.74-.74,11.28-3.05,13.94-4.88Zm33.88-10.69l4.61-1.41v18.09h-4.61V15.11Zm-6.57,4.04h4.64v12.64h-4.64v-12.64Zm-10.09,12.43c.95.2,1.92.31,2.9.32,1.8,0,3.17-.34,4.11-1.02.45-.31.82-.73,1.06-1.21.25-.48.37-1.02.36-1.56.02-.64-.11-1.27-.37-1.85-.26-.54-.69-.99-1.22-1.28-.76-.44-1.59-.77-2.44-.99l-.5-.13c-.69-.17-1.37-.38-2.02-.65-.15-.06-.29-.17-.38-.3-.09-.13-.14-.29-.14-.46,0-.17.04-.34.14-.48.1-.14.24-.25.41-.3.52-.16,1.06-.23,1.6-.21.76,0,1.52.11,2.25.31.67.16,1.32.43,1.89.81v-3.01c-.64-.35-1.34-.59-2.07-.71-.84-.19-1.7-.28-2.57-.29-1.72.02-3.07.35-4.04.99-.98.64-1.46,1.62-1.46,2.92-.03.65.12,1.3.42,1.88.32.51.77.93,1.3,1.22.77.39,1.57.7,2.4.94.86.26,1.48.46,1.84.6.31.08.6.23.85.44.09.08.16.17.21.28.05.11.07.23.06.34.01.15-.03.3-.12.42-.09.12-.21.22-.36.26-.49.14-.99.21-1.5.18-.88-.01-1.75-.14-2.59-.39-.84-.22-1.65-.57-2.4-1.02v3.07c.74.42,1.55.71,2.4.83Zm10.76-17.12c.41-.4.96-.62,1.54-.62h.23c.29-.01.58.04.85.14.27.1.52.26.73.46.21.2.38.44.49.7.11.26.17.55.17.83,0,.29-.06.57-.18.83-.12.26-.28.5-.49.7-.21.2-.46.35-.73.45-.27.1-.56.15-.86.14h-.23c-.58,0-1.13-.23-1.53-.63-.4-.4-.63-.94-.63-1.51,0-.56.23-1.1.64-1.5Zm18.12,17.45c1.1.01,2.19-.3,3.1-.91l.03,5.36h4.39v-17.37h-4.02l-.08.89c-.99-.74-2.21-1.14-3.45-1.12-3.1,0-6.01,2.28-6.01,6.48,0,4.58,2.88,6.66,6.04,6.66Zm3.12-9.24c-.58-.5-1.34-.76-2.11-.71-1.6,0-2.71,1.48-2.71,3.37s1.09,3.39,2.71,3.39c1.04,0,1.66-.3,2.08-.68l.02-5.36Z"/></g></svg>