<svg xmlns="http://www.w3.org/2000/svg" viewBox="0 0 442.4 156.24"><defs><style>.cls-1{fill:#44a1f5}.cls-2{fill:#046799}.cls-3{fill:#f4805d}.cls-4{fill:#17bfa3}.cls-5{fill:#33435c}</style></defs><title>Solvuu-logo-all-color</title><g id="Layer_2" data-name="Layer 2"><g id="Layer_1-2" data-name="Layer 1"><rect class="cls-1" x="-16.89" y="67.15" width="137.37" height="22" rx="11" ry="11" transform="rotate(45 51.789 78.152)"/><rect class="cls-2" x="21.11" y="13.91" width="61.35" height="22" rx="11" ry="11" transform="rotate(45 51.782 24.909)"/><rect class="cls-2" x="38.04" y="127.02" width="42.43" height="22" rx="11" ry="11" transform="rotate(45 59.262 138.017)"/><rect class="cls-3" x="5.21" y="94.19" width="42.43" height="22" rx="11" ry="11" transform="rotate(45 26.43 105.188)"/><circle class="cls-4" cx="84.69" cy="57.81" r="11"/><path class="cls-5" d="M219.83 61.24c-14.72 0-24.6 9-24.6 22.35v11.66c0 6.49 2.31 12 6.69 16s10.6 6.07 17.91 6.07c14.95 0 24.61-8.65 24.61-22V83.59c0-13.37-9.89-22.35-24.61-22.35zm13.88 34c0 7.8-5.06 12.27-13.88 12.27s-13.77-4.47-13.77-12.27V83.59c0-7.93 5-12.48 13.77-12.48s13.88 4.55 13.88 12.48zm67.75 7.83L286.54 64a2.5 2.5 0 0 0-2.29-1.57h-6.88a2 2 0 0 0-1.7.82 2.13 2.13 0 0 0-.16 2l19.67 49.28v.1a2.42 2.42 0 0 0 2.25 1.49h7.85a2.45 2.45 0 0 0 2.36-1.49l19.8-49.33v-.1a2.25 2.25 0 0 0-.32-2 2 2 0 0 0-1.58-.72h-6.88a2.39 2.39 0 0 0-2.32 1.66zm80.28-40.65h-6.34a2.14 2.14 0 0 0-2.25 2.25v41.08a37.78 37.78 0 0 1-11.4 1.77c-9.55 0-14-4.65-14-14.64V64.67a2.1 2.1 0 0 0-2.14-2.25h-6.34a2.13 2.13 0 0 0-2.27 2.25V93.1c0 15.59 8.78 24.18 24.72 24.18a51.3 51.3 0 0 0 20.7-4.28 2.38 2.38 0 0 0 1.46-2.4V64.67a2.1 2.1 0 0 0-2.14-2.25zm58.52 0h-6.34a2.13 2.13 0 0 0-2.25 2.25v41.08a37.84 37.84 0 0 1-11.41 1.77c-9.54 0-14-4.65-14-14.64V64.67a2.1 2.1 0 0 0-2.14-2.25h-6.35a2.13 2.13 0 0 0-2.24 2.25V93.1c0 15.59 8.78 24.18 24.71 24.18a51.31 51.31 0 0 0 20.7-4.28 2.38 2.38 0 0 0 1.46-2.4V64.67a2.1 2.1 0 0 0-2.14-2.25zm-279.51 9.47c-11.22-2.57-17.3-5.26-17.3-12.13 0-6.61 5.88-10.55 15.69-10.55a35.28 35.28 0 0 1 19.53 6.55 2.09 2.09 0 0 0 3.07-.48l3.4-4.83a2.07 2.07 0 0 0 .45-1.67 2 2 0 0 0-1-1.37c-8.3-6-15.45-8.44-24.67-8.44-16.91 0-27.42 7.88-27.42 20.58 0 15.37 14.58 20.39 25.54 22.84 12.56 2.75 18.53 5.38 18.53 12.85 0 8.55-9.08 11.59-16.85 11.59-7.13-.1-13.32-2.51-20.67-8a2 2 0 0 0-1.59-.45 2.17 2.17 0 0 0-1.45 1l-3.54 4.89a2.12 2.12 0 0 0 .42 3c8.82 7.14 16.5 10.06 26.51 10.06 17.36 0 28.14-8.53 28.14-22.25-.02-15.83-13.84-20.27-26.79-23.19zm102.84-32.35h-6.35a2.05 2.05 0 0 0-2.24 2.14V114a2 2 0 0 0 2.14 2.13h6.34a2.06 2.06 0 0 0 2.25-2.13V41.68a2 2 0 0 0-2.14-2.14z"/></g></g></svg>