<?xml version="1.0" standalone="no"?>
<!DOCTYPE svg PUBLIC "-//W3C//DTD SVG 20010904//EN"
 "http://www.w3.org/TR/2001/REC-SVG-20010904/DTD/svg10.dtd">
<svg version="1.0" xmlns="http://www.w3.org/2000/svg"
 width="4091.000000pt" height="1165.000000pt" viewBox="0 0 4091.000000 1165.000000"
 preserveAspectRatio="xMidYMid meet">

<g transform="translate(0.000000,1165.000000) scale(0.100000,-0.100000)"
fill="#979AAD" stroke="none">
<path d="M5405 11640 c-789 -57 -1515 -255 -2206 -601 -1655 -828 -2819 -2403
-3118 -4219 -180 -1090 -63 -2198 337 -3190 711 -1766 2258 -3080 4109 -3489
945 -209 1944 -180 2863 84 574 165 1122 418 1613 746 1334 891 2238 2285
2501 3855 62 368 70 481 71 989 0 503 -7 608 -60 950 -128 819 -438 1611 -903
2310 -583 877 -1433 1605 -2387 2044 -596 274 -1203 438 -1875 506 -181 19
-764 28 -945 15z m585 -1345 c85 -4 169 -8 185 -10 173 -18 275 -31 305 -40 8
-2 35 -6 60 -9 25 -3 56 -8 70 -11 14 -3 35 -7 48 -9 12 -3 30 -7 40 -10 9 -3
28 -7 42 -10 33 -7 39 -8 210 -50 8 -3 26 -9 40 -14 14 -5 27 -9 30 -9 9 1
294 -94 327 -109 17 -8 36 -14 42 -14 6 0 19 -4 29 -9 16 -8 32 -16 122 -54
35 -15 117 -53 220 -101 30 -14 91 -46 135 -71 44 -24 94 -52 110 -60 17 -9
44 -24 60 -35 17 -11 37 -23 45 -27 8 -3 29 -17 46 -30 17 -13 36 -23 42 -23
7 0 12 -4 12 -10 0 -5 5 -10 11 -10 12 0 93 -54 123 -82 11 -10 23 -18 27 -18
3 0 22 -12 41 -27 20 -16 46 -35 58 -43 12 -8 30 -22 40 -30 9 -8 32 -26 50
-40 18 -14 42 -33 54 -43 24 -21 62 -52 126 -105 54 -44 379 -369 435 -434 22
-25 54 -63 70 -83 17 -21 37 -45 46 -56 8 -10 24 -30 35 -44 10 -15 39 -53 64
-85 63 -81 210 -297 210 -308 0 -3 10 -19 23 -36 12 -17 28 -42 35 -56 7 -14
22 -41 33 -60 19 -31 38 -65 113 -205 26 -50 127 -274 159 -355 5 -14 13 -33
18 -42 5 -10 9 -23 9 -29 0 -6 7 -25 15 -42 18 -40 75 -207 70 -207 -2 0 3
-19 11 -42 9 -24 17 -50 19 -58 1 -8 9 -35 16 -60 7 -25 14 -49 15 -55 2 -5 6
-23 9 -40 3 -16 11 -48 16 -70 17 -72 19 -80 24 -105 3 -14 8 -41 11 -60 2
-19 8 -48 11 -65 4 -16 7 -37 8 -45 1 -8 5 -33 9 -55 8 -54 23 -177 31 -255 6
-57 20 -350 20 -415 0 -111 -17 -409 -29 -510 -14 -114 -19 -149 -32 -230 -2
-11 -5 -36 -8 -55 -7 -43 -14 -76 -20 -98 -3 -9 -7 -33 -10 -52 -3 -19 -8 -45
-11 -58 -3 -12 -7 -30 -9 -40 -2 -9 -12 -46 -21 -82 -9 -36 -18 -69 -20 -75
-10 -46 -18 -74 -26 -95 -5 -14 -11 -34 -13 -45 -6 -30 -55 -176 -72 -212 -8
-17 -14 -38 -14 -46 0 -9 -4 -18 -9 -22 -5 -3 -12 -18 -16 -35 -3 -16 -17 -52
-31 -80 -13 -27 -24 -55 -24 -60 0 -6 -9 -28 -20 -48 -10 -20 -48 -95 -83
-167 -57 -115 -78 -156 -134 -255 -8 -14 -23 -38 -33 -55 -11 -16 -23 -37 -27
-45 -7 -15 -135 -206 -151 -225 -5 -6 -17 -24 -28 -40 -10 -17 -23 -35 -29
-42 -5 -7 -15 -18 -20 -25 -6 -7 -23 -29 -38 -48 -15 -19 -36 -45 -45 -58 -9
-12 -26 -34 -37 -47 -12 -13 -39 -45 -60 -71 -22 -26 -56 -63 -75 -83 -19 -20
-62 -66 -96 -101 -104 -111 -275 -268 -404 -370 -17 -14 -40 -32 -50 -41 -10
-8 -31 -24 -45 -35 -15 -10 -36 -27 -47 -37 -12 -9 -24 -17 -28 -17 -3 0 -15
-8 -26 -18 -22 -19 -216 -149 -254 -170 -14 -7 -32 -19 -40 -26 -8 -7 -26 -18
-40 -24 -14 -7 -43 -23 -65 -36 -79 -47 -411 -210 -502 -247 -67 -27 -79 -32
-95 -40 -10 -5 -23 -9 -29 -9 -6 0 -25 -6 -42 -14 -32 -15 -209 -75 -237 -81
-8 -2 -42 -11 -75 -21 -33 -10 -64 -19 -70 -20 -5 -1 -39 -10 -75 -19 -36 -9
-73 -19 -82 -21 -10 -2 -28 -6 -40 -9 -13 -3 -39 -8 -58 -11 -19 -3 -43 -7
-52 -10 -22 -6 -56 -13 -98 -20 -19 -3 -46 -7 -60 -9 -41 -7 -102 -15 -150
-21 -25 -3 -60 -7 -79 -9 -116 -15 -247 -20 -486 -20 -233 0 -339 5 -480 20
-97 10 -149 17 -168 21 -12 2 -40 6 -62 9 -22 3 -49 7 -60 9 -11 3 -51 11 -90
19 -38 9 -83 17 -100 20 -16 3 -68 15 -115 27 -47 12 -89 23 -95 24 -50 12
-74 19 -95 27 -14 5 -36 11 -49 14 -37 7 -180 56 -210 71 -14 8 -33 14 -41 14
-9 0 -20 4 -25 8 -6 4 -37 18 -70 31 -146 56 -395 174 -510 242 -27 16 -63 36
-80 44 -16 9 -43 25 -60 35 -16 11 -38 23 -47 26 -10 4 -18 10 -18 15 0 5 -4
9 -9 9 -8 0 -169 105 -196 128 -6 5 -24 17 -40 28 -17 10 -35 23 -41 29 -6 5
-22 17 -34 25 -12 8 -39 30 -59 47 -20 18 -39 33 -42 33 -3 0 -17 10 -31 22
-14 13 -42 37 -62 53 -21 17 -59 48 -84 70 -66 57 -348 340 -407 409 -27 32
-59 68 -70 80 -11 12 -30 36 -42 52 -12 16 -29 38 -38 49 -8 11 -36 47 -61 80
-25 33 -51 67 -58 76 -7 8 -21 30 -32 47 -10 18 -22 32 -26 32 -4 0 -8 7 -8
15 0 8 -4 15 -10 15 -5 0 -10 7 -10 15 0 8 -4 15 -10 15 -5 0 -10 7 -10 15 0
8 -4 15 -10 15 -5 0 -10 5 -10 12 0 6 -11 26 -25 44 -14 18 -25 36 -25 40 0 4
-10 21 -23 38 -12 17 -28 42 -35 56 -7 14 -24 45 -38 70 -67 115 -192 374
-243 505 -18 44 -36 89 -41 100 -5 11 -14 38 -21 60 -6 22 -15 45 -19 50 -8
11 -30 75 -35 103 -2 9 -4 18 -4 20 -1 1 -1 3 0 5 0 1 -9 26 -20 55 -11 28
-19 52 -17 52 2 0 -3 21 -11 48 -8 26 -16 55 -19 65 -13 51 -15 64 -20 87 -2
14 -7 31 -10 39 -2 8 -7 30 -10 50 -3 20 -10 56 -16 81 -5 25 -12 59 -14 75
-3 17 -10 57 -15 90 -11 60 -13 77 -25 170 -34 267 -38 773 -9 1000 2 17 6 53
10 80 7 67 15 127 19 145 1 8 6 35 10 60 11 65 11 70 24 130 6 30 14 67 16 83
3 15 7 35 10 45 3 9 7 28 10 42 8 40 15 66 35 140 7 25 15 52 16 60 2 8 10 34
19 58 8 23 13 42 9 42 -3 0 0 7 7 15 7 8 10 15 7 15 -7 0 16 68 37 115 8 17
18 44 22 60 4 17 10 35 14 40 4 6 17 37 30 70 52 139 164 375 242 513 15 26
30 54 34 62 5 8 21 34 36 56 15 23 28 45 28 49 0 3 11 21 25 39 14 18 25 38
25 44 0 7 5 12 10 12 6 0 10 7 10 15 0 8 5 15 10 15 6 0 10 7 10 15 0 8 3 15
8 15 4 0 20 21 37 48 16 26 33 52 37 57 19 24 65 84 83 109 11 15 27 36 35 46
8 10 29 34 45 55 17 20 39 47 50 59 11 13 45 51 75 86 71 80 280 289 360 360
35 30 75 65 89 78 13 13 40 35 59 50 19 15 40 32 46 37 6 6 29 23 51 40 22 16
45 33 50 37 6 5 28 22 50 38 22 16 45 34 52 40 7 5 16 10 22 10 5 0 11 4 13 8
4 12 125 92 137 92 6 0 11 5 11 10 0 6 6 10 13 11 6 0 39 18 72 40 33 21 69
44 80 49 11 6 47 26 80 45 33 19 112 60 175 91 141 69 186 89 348 155 54 23
68 28 107 40 22 6 46 16 53 22 6 5 12 6 12 2 0 -4 6 -3 13 2 14 12 72 32 113
39 15 3 42 11 60 19 19 8 34 12 34 10 0 -3 12 0 28 6 15 6 34 12 42 15 172 42
177 43 210 50 14 3 59 12 100 20 41 9 84 17 95 20 39 8 178 28 280 40 82 10
122 12 300 20 94 3 172 8 174 10 2 2 20 2 40 -1 20 -2 106 -7 191 -10z"/>
<path d="M5637 9664 c-1 -1 -51 -4 -112 -8 -60 -3 -128 -8 -150 -11 -98 -11
-132 -15 -160 -20 -16 -2 -55 -7 -85 -10 -30 -4 -58 -9 -61 -11 -4 -2 -24 -6
-45 -9 -22 -4 -47 -8 -56 -11 -10 -3 -28 -7 -40 -10 -26 -4 -58 -12 -88 -19
-47 -12 -66 -16 -89 -21 -14 -3 -28 -7 -33 -10 -4 -3 -16 -7 -26 -9 -24 -4
-201 -63 -227 -75 -11 -5 -31 -12 -45 -16 -14 -4 -50 -18 -80 -31 -30 -14 -75
-34 -100 -45 -104 -46 -397 -197 -445 -228 -16 -11 -38 -23 -47 -26 -10 -4
-18 -10 -18 -15 0 -5 -4 -9 -10 -9 -11 0 -155 -95 -184 -122 -11 -10 -23 -18
-26 -18 -4 0 -16 -8 -28 -17 -11 -10 -32 -27 -47 -37 -14 -11 -34 -27 -44 -35
-10 -9 -33 -27 -51 -41 -87 -65 -360 -332 -447 -435 -73 -87 -77 -92 -104
-126 -15 -19 -45 -59 -68 -89 -22 -30 -44 -60 -49 -65 -14 -17 -128 -189 -135
-205 -4 -8 -16 -28 -27 -45 -11 -16 -25 -39 -30 -50 -6 -11 -24 -42 -40 -70
-36 -62 -139 -267 -164 -326 -10 -24 -22 -52 -27 -62 -13 -24 -53 -136 -59
-162 -1 -5 -5 -14 -10 -20 -7 -9 -49 -131 -54 -158 -2 -7 -10 -37 -20 -68 -9
-31 -19 -66 -21 -78 -3 -11 -7 -30 -10 -41 -15 -62 -21 -87 -29 -128 -3 -13
-7 -31 -10 -40 -3 -9 -7 -33 -10 -52 -3 -19 -8 -46 -11 -60 -34 -168 -60 -433
-60 -610 1 -102 4 -131 19 -160 30 -56 69 -85 131 -97 22 -4 420 -8 885 -8
930 0 900 -2 926 60 11 27 10 38 -2 76 -9 24 -22 51 -30 60 -8 8 -14 19 -14
22 0 4 -12 26 -27 50 -41 64 -59 96 -93 167 -29 60 -39 82 -68 150 -11 26 -55
158 -58 175 -1 6 -7 30 -14 55 -7 25 -14 54 -16 65 -2 11 -6 31 -9 45 -17 83
-20 135 -20 310 0 107 3 213 7 235 4 22 12 65 18 95 6 30 13 71 16 90 3 19 11
44 17 55 6 11 9 21 8 23 -3 3 57 190 74 227 26 58 86 180 103 210 27 46 115
178 130 193 7 8 25 30 40 50 76 100 191 215 294 293 17 13 36 29 42 35 28 26
282 178 329 196 28 11 56 24 62 29 5 5 15 9 23 9 7 0 32 9 56 20 24 10 58 22
76 25 18 3 37 8 42 11 8 5 32 11 78 20 14 2 36 7 50 10 49 12 66 14 120 20 30
3 685 6 1455 7 770 2 1407 5 1415 8 100 35 104 40 94 96 -8 40 -63 101 -121
132 -12 6 -27 17 -35 24 -15 15 -126 90 -148 100 -8 4 -28 16 -45 27 -16 11
-39 24 -50 30 -11 6 -42 24 -70 40 -48 29 -216 113 -300 151 -100 45 -136 59
-145 59 -6 0 -18 4 -28 9 -46 25 -219 86 -269 95 -11 3 -41 11 -66 20 -25 8
-56 18 -69 20 -20 4 -52 12 -83 20 -5 1 -19 5 -30 9 -11 3 -36 8 -55 11 -19 3
-46 8 -60 11 -50 10 -85 17 -105 20 -11 2 -38 6 -60 9 -22 3 -58 8 -80 11 -22
3 -56 7 -75 10 -96 13 -572 29 -583 19z"/>
<path d="M5235 8095 c-5 -2 -35 -6 -65 -8 -74 -7 -114 -16 -180 -44 -55 -23
-151 -71 -192 -96 -34 -21 -48 -31 -115 -82 -40 -30 -184 -175 -217 -219 -53
-69 -119 -174 -141 -226 -9 -19 -20 -44 -26 -54 -15 -26 -59 -156 -53 -156 3
0 0 -8 -5 -17 -9 -18 -15 -45 -28 -133 -17 -108 -6 -374 18 -437 5 -13 6 -23
4 -23 -3 0 2 -17 10 -37 9 -21 16 -39 16 -40 -3 -12 23 -77 63 -163 27 -57 31
-62 83 -143 82 -127 226 -270 362 -361 29 -20 55 -36 57 -36 2 0 19 -11 38
-24 19 -13 65 -36 103 -51 37 -15 82 -34 98 -41 17 -7 42 -15 55 -18 25 -5 67
-15 85 -20 12 -3 69 -14 105 -20 162 -26 288 -97 338 -191 23 -44 25 -52 25
-145 0 -75 -3 -91 -28 -134 -65 -115 -166 -165 -345 -170 -30 -1 -735 -3
-1566 -4 -831 -2 -1525 -7 -1542 -11 -31 -9 -63 -36 -80 -68 -10 -19 -9 -120
2 -158 3 -11 10 -38 15 -60 6 -22 17 -57 26 -78 8 -20 16 -40 16 -44 1 -5 5
-18 10 -31 5 -13 9 -28 9 -34 0 -5 7 -26 16 -46 9 -21 21 -48 26 -62 25 -62
40 -95 117 -250 45 -91 95 -187 111 -215 16 -27 36 -63 44 -80 9 -16 25 -43
36 -60 11 -16 23 -38 26 -47 4 -10 10 -18 15 -18 5 0 9 -5 9 -10 0 -6 6 -18
13 -26 14 -19 111 -115 129 -129 13 -10 113 -59 113 -56 0 2 13 -3 30 -9 74
-28 40 -27 1180 -17 468 4 1138 10 1490 13 793 6 939 9 954 18 6 4 23 10 38
12 15 3 34 11 42 17 8 7 17 11 20 11 23 -5 208 90 276 141 112 85 228 202 273
278 9 15 20 27 24 27 4 0 8 7 8 15 0 8 3 15 8 15 4 0 12 9 17 19 83 165 105
211 105 223 0 8 4 18 9 23 6 6 15 30 21 55 6 25 13 54 16 65 3 11 7 31 10 44
3 14 7 28 9 31 6 9 20 175 20 230 0 55 -14 221 -20 230 -2 3 -6 17 -9 31 -22
105 -39 152 -100 279 -20 41 -42 84 -49 95 -14 24 -75 112 -91 133 -23 30
-192 198 -216 214 -101 71 -144 97 -210 129 -113 55 -142 67 -190 79 -25 6
-53 13 -62 15 -24 7 -57 14 -88 20 -52 10 -66 13 -110 25 -25 7 -54 14 -65 16
-11 2 -44 15 -73 29 -28 14 -55 25 -59 25 -19 0 -102 105 -116 147 -14 42 -17
145 -5 193 6 28 55 104 80 125 29 25 105 64 137 70 46 9 503 14 1616 20 1084
5 1614 11 1645 18 56 13 90 47 102 99 4 22 6 42 4 46 -2 4 -7 27 -11 52 -4 24
-11 52 -16 62 -5 10 -7 18 -5 18 3 0 1 12 -5 28 -6 15 -13 36 -15 46 -6 32
-56 180 -64 191 -4 6 -10 23 -14 40 -4 16 -19 54 -32 85 -41 90 -193 393 -214
425 -11 17 -24 39 -30 50 -6 11 -19 34 -30 50 -11 17 -23 38 -26 48 -4 9 -10
17 -15 17 -5 0 -9 6 -9 13 0 40 -161 169 -230 185 -8 2 -24 6 -35 9 -22 6
-3513 13 -3530 8z"/>
<path d="M7749 5953 c-83 -34 -86 -100 -9 -218 11 -16 29 -48 39 -70 11 -22
29 -56 40 -75 23 -41 71 -144 71 -154 0 -3 8 -25 19 -49 20 -46 54 -144 66
-192 5 -16 9 -34 11 -40 2 -5 5 -23 9 -40 3 -16 8 -41 11 -55 23 -97 28 -165
28 -330 0 -134 -5 -222 -18 -280 -1 -8 -6 -33 -11 -55 -10 -53 -16 -78 -19
-90 -2 -5 -6 -23 -11 -40 -12 -51 -49 -158 -73 -215 -24 -59 -130 -268 -155
-307 -15 -24 -27 -44 -27 -47 0 -12 -105 -157 -177 -245 -60 -72 -209 -215
-263 -251 -12 -8 -28 -20 -34 -25 -13 -12 -92 -65 -121 -81 -40 -23 -203 -104
-209 -104 -3 0 -30 -11 -59 -25 -30 -13 -69 -27 -87 -30 -18 -3 -41 -10 -51
-16 -11 -5 -19 -7 -19 -5 0 3 -11 1 -26 -4 -14 -6 -37 -12 -52 -15 -15 -3 -38
-7 -52 -10 -14 -3 -43 -8 -65 -11 -22 -3 -51 -7 -65 -9 -89 -13 -315 -16
-1305 -20 -969 -4 -1387 -9 -1460 -19 -28 -3 -75 -24 -76 -33 0 -5 -2 -18 -5
-31 -3 -18 9 -36 55 -80 65 -63 87 -82 96 -82 4 0 21 -10 38 -23 44 -31 67
-45 102 -63 17 -8 53 -29 80 -45 28 -16 97 -52 155 -80 141 -68 183 -87 263
-118 12 -4 33 -13 47 -19 22 -9 56 -22 70 -27 3 -1 12 -5 20 -8 36 -16 190
-65 190 -61 0 3 8 0 18 -5 11 -6 30 -12 43 -15 13 -3 58 -14 99 -25 41 -11 89
-22 105 -25 17 -3 41 -8 55 -11 14 -3 36 -7 50 -10 14 -3 35 -7 46 -9 12 -2
39 -7 60 -10 22 -4 46 -8 54 -11 8 -2 42 -7 75 -10 33 -4 76 -8 95 -11 171
-19 556 -25 725 -11 140 12 228 22 275 32 14 3 45 8 70 11 25 3 53 8 62 10 10
3 30 7 45 10 16 3 36 7 45 10 18 5 47 12 88 20 14 3 34 8 45 11 23 8 31 10 63
17 13 3 37 10 55 15 18 6 77 25 132 42 55 17 104 35 109 40 6 5 16 9 24 9 8 0
30 7 50 16 21 9 48 21 62 26 122 49 331 149 425 203 33 19 69 38 80 44 11 5
37 21 58 35 21 14 40 26 42 26 5 0 187 122 201 135 6 5 22 17 34 25 12 8 30
22 40 30 10 8 30 24 45 34 14 11 35 27 45 35 10 9 38 32 61 51 144 119 324
300 439 439 19 23 42 51 51 61 8 10 24 31 35 45 10 15 31 41 46 58 15 18 30
40 34 50 3 9 9 17 14 17 5 0 11 8 14 18 4 10 14 27 24 38 26 28 102 141 102
152 0 5 6 15 14 21 8 7 22 26 31 44 8 18 25 48 37 67 70 116 168 310 217 433
6 15 16 39 22 55 7 15 15 36 19 47 5 11 15 36 23 55 8 19 27 73 41 120 15 47
31 99 37 117 5 18 12 41 14 53 3 11 7 29 10 40 3 11 7 29 10 40 3 11 7 29 10
40 8 30 15 62 20 90 3 14 7 36 10 50 20 97 30 155 40 240 3 25 8 61 10 80 18
137 26 445 13 492 -14 49 -70 95 -129 106 -34 7 -361 10 -885 10 -697 0 -836
-2 -865 -15z"/>
<path d="M40780 9676 c-238 -67 -571 -302 -856 -606 -317 -338 -541 -745 -599
-1084 -13 -78 -15 -453 -15 -3002 l0 -2914 800 0 800 0 0 3810 0 3810 -42 -1
c-24 0 -63 -6 -88 -13z"/>
<path d="M20035 8731 c-530 -156 -1181 -840 -1383 -1454 -82 -248 -77 -117
-77 -2042 0 -1583 1 -1720 18 -1839 67 -489 234 -823 530 -1061 341 -275 779
-388 1437 -372 257 6 411 18 570 43 148 23 365 65 378 73 9 5 7 139 -8 581
-11 315 -21 575 -23 577 -2 2 -35 -11 -73 -28 -200 -91 -565 -126 -759 -74
-280 76 -435 284 -474 639 -7 61 -11 473 -11 1161 l0 1065 645 0 645 0 0 570
0 570 -645 0 -645 0 0 738 c0 405 -3 767 -7 805 -6 64 -7 67 -32 66 -14 0 -53
-8 -86 -18z"/>
<path d="M37270 8030 l0 -430 770 0 770 0 0 430 0 430 -770 0 -770 0 0 -430z"/>
<path d="M16060 7244 c-537 -32 -999 -173 -1362 -414 -255 -169 -429 -373
-532 -622 -151 -365 -136 -888 34 -1233 118 -239 312 -409 665 -580 195 -96
381 -158 706 -239 559 -138 820 -253 918 -406 50 -77 65 -140 58 -245 -14
-228 -160 -348 -500 -412 -114 -21 -488 -24 -647 -5 -143 18 -340 57 -457 91
-121 35 -604 203 -680 236 -31 14 -57 24 -58 23 -6 -7 -104 -1212 -99 -1219 6
-10 220 -80 329 -108 189 -48 489 -93 840 -127 256 -25 849 -26 1058 -1 503
60 869 179 1172 382 304 203 484 431 589 745 59 179 71 265 70 525 0 200 -3
244 -23 335 -62 288 -167 488 -355 675 -245 243 -562 396 -1096 530 -565 141
-857 247 -967 348 -84 78 -111 174 -79 290 61 225 301 320 806 320 459 0 902
-87 1243 -245 48 -23 89 -39 91 -37 3 4 97 1109 96 1140 -1 48 -702 192 -1135
234 -158 15 -559 26 -685 19z"/>
<path d="M23522 7239 c-559 -72 -1135 -623 -1427 -1363 -55 -141 -118 -382
-135 -516 -19 -152 -8 -1068 14 -1230 75 -540 229 -930 504 -1271 78 -96 275
-288 377 -366 341 -259 749 -423 1225 -493 410 -60 990 -50 1438 26 283 47
565 118 740 184 l82 32 0 599 c0 329 -2 599 -5 599 -3 0 -28 -11 -55 -25 -128
-65 -542 -207 -751 -259 -338 -83 -770 -108 -1071 -62 -457 71 -763 272 -928
610 -53 108 -127 321 -137 393 l-6 43 1582 0 1581 0 0 733 c0 402 -5 785 -10
850 -48 578 -355 1079 -825 1346 -161 92 -341 149 -533 170 -120 13 -1561 13
-1660 0z m1035 -1079 c126 -16 230 -46 328 -94 166 -83 285 -205 370 -380 67
-137 100 -275 120 -503 l7 -73 -1001 0 c-551 0 -1001 3 -1001 6 0 4 12 59 26
122 62 279 163 479 323 646 92 94 174 155 275 201 68 32 191 67 271 78 61 8
203 7 282 -3z"/>
<path d="M28585 7243 c-348 -32 -713 -207 -994 -477 -253 -244 -436 -563 -514
-901 -21 -89 -21 -104 -24 -1942 l-4 -1853 796 0 795 0 0 1288 c0 1350 2 1408
45 1628 112 559 427 897 906 970 192 29 367 7 485 -62 56 -33 171 -155 217
-230 79 -132 129 -299 147 -494 6 -71 10 -680 10 -1607 l0 -1493 805 0 805 0
-3 1873 -3 1872 -21 94 c-92 397 -298 741 -580 968 -266 214 -553 331 -888
363 -101 9 -1879 12 -1980 3z"/>
<path d="M34418 7239 c-209 -17 -486 -83 -649 -153 -236 -102 -463 -291 -687
-570 -317 -394 -495 -795 -541 -1218 -14 -125 -14 -798 0 -948 61 -673 281
-1173 699 -1590 202 -202 413 -353 675 -481 478 -233 1004 -331 1690 -316 387
9 556 29 987 113 126 24 230 44 233 44 3 0 5 277 5 616 0 581 -1 615 -17 610
-10 -3 -88 -19 -173 -36 -85 -17 -198 -42 -251 -55 -341 -87 -784 -105 -1080
-45 -497 101 -865 419 -1019 878 -63 189 -74 272 -74 547 -1 222 2 261 22 352
64 295 183 508 389 703 203 192 440 302 743 345 122 17 394 20 525 5 212 -25
495 -103 654 -181 53 -26 98 -46 100 -43 2 2 30 266 62 586 54 543 57 584 41
596 -39 31 -221 116 -316 147 -124 41 -301 81 -421 95 -106 12 -1450 11 -1597
-1z"/>
<path d="M37270 4590 l0 -2520 768 0 767 0 -3 2520 -2 2520 -765 0 -765 0 0
-2520z"/>
</g>
</svg>
