<svg width="192" height="48" viewBox="0 0 192 48" fill="none" xmlns="http://www.w3.org/2000/svg">
<path d="M34.8206 35.1967C34.4946 35.1971 34.179 35.0821 33.9297 34.8721C33.6484 34.6358 33.4725 34.2974 33.4406 33.9314C33.4088 33.5654 33.5236 33.2018 33.7598 32.9204L38.6672 27.0693C39.5756 26.0142 40.0486 24.6532 39.9904 23.2622C39.9317 21.877 39.3496 20.5656 38.3615 19.593C37.8414 19.072 37.2235 18.6589 36.5433 18.3775C35.8631 18.096 35.1339 17.9517 34.3978 17.9528C33.6619 17.951 32.9329 18.0946 32.2526 18.3754C31.5724 18.6563 30.9544 19.0688 30.4341 19.5892C29.44 20.5599 28.8523 21.8723 28.7901 23.2604C28.7245 24.6449 29.1865 26.0027 30.083 27.0598L32.818 30.1458C32.9393 30.2816 33.0326 30.44 33.0927 30.6119C33.1528 30.7838 33.1784 30.9658 33.168 31.1476C33.1577 31.3294 33.1116 31.5073 33.0324 31.6713C32.9533 31.8353 32.8425 31.982 32.7066 32.1031C32.4322 32.3477 32.0719 32.4733 31.7049 32.4524C31.3379 32.4315 30.9942 32.2659 30.7493 31.9918L27.9728 28.8793C26.6103 27.2839 25.9058 25.2298 26.0023 23.1339C26.0988 21.0484 26.9831 19.0773 28.4768 17.6187C29.2529 16.844 30.1742 16.2299 31.1879 15.8118C32.2017 15.3937 33.288 15.1796 34.3846 15.182C35.4837 15.179 36.5727 15.3932 37.5888 15.8123C38.6049 16.2315 39.5282 16.8473 40.3056 17.6244C41.7923 19.0865 42.6692 21.0581 42.7593 23.1414C42.852 25.2249 42.1512 27.2659 40.7982 28.8529L35.8908 34.7041C35.7606 34.8592 35.5979 34.9838 35.4143 35.0693C35.2307 35.1547 35.0306 35.1988 34.8281 35.1986" fill="#979AAD"/>
<path d="M31.4443 38.9962C31.252 38.9963 31.0617 38.9564 30.8856 38.8791C30.7095 38.8018 30.5514 38.6887 30.4213 38.547L24.1549 31.7105C21.9821 29.168 20.8591 25.8934 21.0142 22.5525C21.1652 19.2287 22.5716 16.086 24.9495 13.7588C26.1887 12.5201 27.6602 11.5384 29.2797 10.8698C30.8992 10.2013 32.6348 9.85916 34.3869 9.86308C36.1429 9.85857 37.8824 10.2015 39.5053 10.872C41.1282 11.5425 42.6024 12.5275 43.8431 13.7701C46.2094 16.1015 47.6042 19.2431 47.7464 22.562C47.8955 25.8854 46.7777 29.1416 44.6189 31.6728L39.1603 38.2185C39.0438 38.3584 38.9009 38.4739 38.7398 38.5585C38.5787 38.6431 38.4025 38.6951 38.2212 38.7116C38.04 38.7281 37.8573 38.7087 37.6835 38.6545C37.5098 38.6004 37.3484 38.5125 37.2087 38.396C37.0684 38.2796 36.9525 38.1367 36.8676 37.9755C36.7826 37.8143 36.7303 37.6379 36.7137 37.4564C36.697 37.2749 36.7163 37.092 36.7705 36.918C36.8247 36.744 36.9126 36.5824 37.0293 36.4424L42.503 29.8873C44.211 27.8861 45.0954 25.3111 44.9775 22.6828C44.8648 20.0593 43.7621 17.576 41.8915 15.7331C40.9063 14.748 39.7361 13.9674 38.4482 13.4362C37.1603 12.905 35.7801 12.6336 34.3869 12.6377C32.995 12.6337 31.6161 12.905 30.3295 13.4359C29.0429 13.9668 27.8739 14.7469 26.8899 15.7312C25.0105 17.571 23.8994 20.0555 23.7812 22.6828C23.6577 25.3066 24.5346 27.8794 26.2349 29.8816L31.4179 35.5346L35.0494 31.3689C35.2911 31.0922 35.6328 30.9226 35.9994 30.8975C36.366 30.8724 36.7276 30.9937 37.0048 31.2349C37.1421 31.3545 37.2544 31.4999 37.3354 31.6629C37.4165 31.8259 37.4646 32.0032 37.477 32.1848C37.4895 32.3664 37.466 32.5487 37.408 32.7212C37.3499 32.8938 37.2585 33.0532 37.1388 33.1903L32.4881 38.5243C32.3598 38.6715 32.2018 38.79 32.0245 38.872C31.8473 38.9539 31.6547 38.9975 31.4594 39L31.4443 38.9962Z" fill="#979AAD"/>
<path d="M36.9459 23.6829C36.9454 24.3579 36.6769 25.005 36.1994 25.4821C35.722 25.9592 35.0746 26.2272 34.3997 26.2272C33.7247 26.2272 33.0774 25.9592 32.5999 25.4821C32.1225 25.005 31.854 24.3579 31.8535 23.6829C31.8535 23.0076 32.1217 22.36 32.5992 21.8825C33.0767 21.405 33.7244 21.1367 34.3997 21.1367C35.075 21.1367 35.7226 21.405 36.2001 21.8825C36.6776 22.36 36.9459 23.0076 36.9459 23.6829Z" fill="#979AAD"/>
<path d="M61.2414 30.5557C60.7983 30.67 60.3419 30.7246 59.8843 30.718C59.5906 30.7479 59.294 30.7066 59.0196 30.5975C58.7453 30.4884 58.5012 30.3148 58.3083 30.0914C57.9452 29.4595 57.7832 28.732 57.8439 28.0058V23.0832C57.8444 23.0796 57.8462 23.0762 57.849 23.0737C57.8518 23.0713 57.8553 23.0699 57.859 23.07H62.1436C62.1476 23.07 62.1514 23.0684 62.1543 23.0655C62.1571 23.0627 62.1587 23.0589 62.1587 23.0549V20.7427C62.1587 20.7387 62.1571 20.7349 62.1543 20.7321C62.1514 20.7292 62.1476 20.7276 62.1436 20.7276H57.859C57.855 20.7276 57.8512 20.726 57.8483 20.7232C57.8455 20.7204 57.8439 20.7165 57.8439 20.7125V18.189C57.8507 17.8294 57.7238 17.4801 57.4877 17.2088C57.2516 16.9375 56.9232 16.7635 56.5661 16.7206C56.3721 16.703 56.1765 16.726 55.9919 16.7882C55.8072 16.8504 55.6376 16.9504 55.4938 17.0818C55.3499 17.2132 55.235 17.3732 55.1565 17.5515C55.0779 17.7297 55.0373 17.9224 55.0373 18.1173V28.0284C55.029 28.7479 55.0987 29.4661 55.2449 30.1706C55.3631 30.7508 55.6087 31.2976 55.964 31.7712C56.3237 32.2264 56.8007 32.5749 57.3438 32.7791C58.0377 33.0303 58.7729 33.1481 59.5106 33.1264C60.1362 33.1367 60.7603 33.0624 61.366 32.9056C61.796 32.7906 62.2183 32.6488 62.6306 32.4809C62.6326 32.4785 62.6336 32.4755 62.6336 32.4724C62.6336 32.4693 62.6326 32.4663 62.6306 32.464L62.1738 30.2669C62.1737 30.2648 62.1731 30.2626 62.1719 30.2608C62.1708 30.2589 62.1693 30.2573 62.1674 30.2562C62.1655 30.255 62.1634 30.2544 62.1612 30.2543C62.159 30.2542 62.1569 30.2547 62.1549 30.2556C61.8558 30.3713 61.5508 30.4714 61.2414 30.5557Z" fill="#979AAD"/>
<path d="M70.3295 20.5993C70.0779 20.5616 69.8306 20.5308 69.5878 20.5069C69.3449 20.483 69.1285 20.4716 68.9385 20.4729C68.0312 20.4645 67.1257 20.5537 66.2375 20.739C65.5523 20.8821 64.8776 21.0714 64.2179 21.3053C64.2169 21.3073 64.2164 21.3096 64.2164 21.3119C64.2164 21.3141 64.2169 21.3164 64.2179 21.3185V32.8321C64.2179 32.8361 64.2195 32.8399 64.2223 32.8427C64.2252 32.8455 64.229 32.8472 64.233 32.8472H67.0095C67.0135 32.8472 67.0173 32.8455 67.0202 32.8427C67.023 32.8399 67.0246 32.8361 67.0246 32.8321V23.1418C67.0234 23.1398 67.0228 23.1375 67.0228 23.1352C67.0228 23.1328 67.0234 23.1305 67.0246 23.1285C67.2615 23.0613 67.5023 23.0083 67.7456 22.97C68.0707 22.9105 68.4004 22.8795 68.7309 22.8775C69.2096 22.8722 69.6877 22.9152 70.1578 23.0059C70.4764 23.0691 70.7914 23.1491 71.1015 23.2456C71.1034 23.2461 71.1054 23.2463 71.1073 23.246C71.1092 23.2458 71.1111 23.245 71.1127 23.2439C71.1143 23.2428 71.1157 23.2414 71.1167 23.2398C71.1177 23.2381 71.1183 23.2362 71.1185 23.2342L71.5979 20.8976C71.5999 20.8952 71.601 20.8922 71.601 20.8891C71.601 20.886 71.5999 20.883 71.5979 20.8806C71.4608 20.8353 71.279 20.7862 71.0525 20.7334C70.826 20.6805 70.585 20.6358 70.3295 20.5993Z" fill="#979AAD"/>
<path d="M80.7767 21.7446C80.3601 21.302 79.8418 20.9677 79.2667 20.7706C78.5119 20.52 77.7194 20.4025 76.9244 20.4233C76.1935 20.4209 75.4639 20.4841 74.7443 20.6121C74.2216 20.698 73.7057 20.8211 73.2004 20.9801C73.1988 20.9824 73.198 20.985 73.198 20.9877C73.198 20.9904 73.1988 20.993 73.2004 20.9952L73.5439 23.2394C73.544 23.2416 73.5446 23.2437 73.5458 23.2456C73.5469 23.2475 73.5484 23.249 73.5503 23.2501C73.5522 23.2513 73.5543 23.2519 73.5565 23.252C73.5586 23.2521 73.5608 23.2517 73.5628 23.2508C73.9883 23.1074 74.4252 23.0007 74.8689 22.9318C75.4591 22.8355 76.0564 22.7894 76.6544 22.794C77.0609 22.783 77.4659 22.847 77.8492 22.9828C78.1362 23.086 78.3932 23.2585 78.5974 23.485C78.8016 23.7116 78.9466 23.9852 79.0195 24.2813C79.0977 24.584 79.1363 24.8955 79.1346 25.2081V25.6724C78.7757 25.5874 78.412 25.5243 78.0455 25.4836C77.7222 25.446 77.3971 25.4264 77.0716 25.4251C76.4294 25.4204 75.7885 25.4836 75.1596 25.6139C74.587 25.7297 74.0406 25.9497 73.5477 26.2631C73.0905 26.5571 72.7126 26.959 72.4473 27.4334C72.1614 27.9759 72.0216 28.5834 72.0415 29.1963C72.0218 29.8266 72.145 30.4532 72.402 31.029C72.6281 31.5081 72.9707 31.9227 73.3986 32.2351C73.8618 32.5611 74.3864 32.7898 74.9406 32.9071C75.5949 33.0522 76.2636 33.1225 76.9338 33.1166C77.9224 33.1267 78.9103 33.0636 79.8896 32.9278C80.7553 32.802 81.4046 32.6906 81.8374 32.5937C81.8406 32.5933 81.8435 32.5917 81.8456 32.5893C81.8477 32.5869 81.8488 32.5837 81.8488 32.5805V25.242C81.855 24.5811 81.7732 23.9222 81.6053 23.2829C81.4579 22.7105 81.1735 22.1826 80.7767 21.7446ZM79.1176 30.7289C79.1177 30.7324 79.1166 30.7357 79.1146 30.7384C79.1125 30.7412 79.1096 30.7432 79.1063 30.744C78.4589 30.8503 77.803 30.8958 77.1471 30.8799C76.557 30.9117 75.9695 30.7811 75.4484 30.5024C75.23 30.3496 75.0568 30.1409 74.9469 29.8982C74.837 29.6554 74.7944 29.3876 74.8236 29.1227C74.8122 28.8237 74.8933 28.5284 75.0558 28.2771C75.2106 28.0518 75.4222 27.8714 75.6692 27.7543C75.9408 27.626 76.2304 27.54 76.528 27.4994C76.8404 27.4531 77.1559 27.4298 77.4717 27.4296C77.7977 27.4275 78.1233 27.4509 78.4457 27.4994C78.669 27.5313 78.8903 27.5767 79.1082 27.6354C79.111 27.6362 79.1135 27.6379 79.1152 27.6403C79.1169 27.6427 79.1177 27.6456 79.1176 27.6486V30.7289Z" fill="#979AAD"/>
<path d="M100.548 20.4236C99.8333 20.4246 99.1253 20.5623 98.4623 20.8294C97.7816 21.1001 97.1656 21.5111 96.6541 22.0355C96.1005 22.6113 95.6702 23.294 95.3895 24.0419C95.0562 24.9386 94.8948 25.8902 94.9139 26.8467C94.907 27.7 95.0344 28.549 95.2914 29.3627C95.5217 30.1005 95.9079 30.7803 96.4239 31.3558C96.9629 31.9402 97.6294 32.3924 98.3717 32.6771C99.2603 33.0115 100.205 33.173 101.154 33.1527C101.564 33.1532 101.975 33.1298 102.383 33.0829C102.784 33.0363 103.161 32.9785 103.515 32.9093C103.828 32.8484 104.137 32.7709 104.442 32.6771C104.657 32.6136 104.867 32.5341 105.07 32.4392C105.072 32.4369 105.072 32.4343 105.072 32.4317C105.072 32.429 105.072 32.4264 105.07 32.4242L104.704 30.1592C104.704 30.157 104.703 30.1549 104.702 30.1531C104.701 30.1512 104.7 30.1496 104.698 30.1484C104.696 30.1473 104.694 30.1467 104.692 30.1466C104.689 30.1465 104.687 30.1469 104.685 30.1479C104.257 30.3157 103.815 30.4452 103.364 30.5348C102.75 30.6646 102.125 30.7279 101.497 30.7235C100.544 30.7893 99.5999 30.5048 98.8417 29.9233C98.5294 29.6365 98.2774 29.2903 98.1005 28.905C97.9235 28.5196 97.8251 28.1028 97.8111 27.679C97.8109 27.6769 97.8111 27.6748 97.8117 27.6727C97.8124 27.6706 97.8134 27.6687 97.8148 27.6671C97.8163 27.6655 97.818 27.6642 97.82 27.6634C97.822 27.6625 97.8241 27.6621 97.8262 27.6621H105.797C105.801 27.6621 105.804 27.6608 105.807 27.6584C105.81 27.6559 105.812 27.6525 105.812 27.6489C105.827 27.4979 105.839 27.328 105.846 27.1393C105.854 26.9505 105.857 26.7731 105.857 26.6183C105.983 24.9519 105.483 23.2985 104.455 21.9808C103.956 21.4527 103.348 21.0398 102.673 20.7708C101.999 20.5019 101.273 20.3834 100.548 20.4236ZM97.8527 25.5953C97.8505 25.5953 97.8484 25.5949 97.8464 25.594C97.8445 25.5931 97.8427 25.5919 97.8413 25.5903C97.8398 25.5886 97.8388 25.5867 97.8382 25.5847C97.8375 25.5826 97.8373 25.5805 97.8376 25.5783C97.8845 25.2279 97.9693 24.8836 98.0905 24.5515C98.209 24.2212 98.3861 23.9149 98.6133 23.6474C98.8419 23.3815 99.1217 23.1644 99.4362 23.0094C99.7896 22.8411 100.177 22.7577 100.569 22.766C100.941 22.7568 101.31 22.8323 101.648 22.9868C101.944 23.1297 102.205 23.3352 102.413 23.5889C102.628 23.8569 102.789 24.1639 102.888 24.493C102.996 24.8453 103.051 25.2117 103.051 25.5802C103.051 25.5842 103.049 25.5881 103.046 25.5909C103.043 25.5937 103.04 25.5953 103.036 25.5953H97.8527Z" fill="#979AAD"/>
<path d="M142.973 22.1637C142.459 21.6049 141.83 21.1655 141.129 20.8764C140.382 20.5693 139.582 20.4152 138.775 20.4234C137.972 20.4144 137.175 20.5685 136.433 20.8764C135.734 21.1694 135.106 21.6083 134.59 22.1637C134.057 22.7438 133.647 23.4256 133.384 24.1682C133.089 25.0056 132.944 25.8887 132.956 26.7766C132.945 27.6682 133.09 28.5549 133.384 29.3964C133.644 30.1412 134.051 30.8265 134.579 31.4123C135.09 31.97 135.714 32.4126 136.41 32.7109C137.158 33.0276 137.963 33.1857 138.775 33.1752C139.59 33.1849 140.399 33.0268 141.151 32.7109C141.852 32.415 142.481 31.9721 142.995 31.4123C143.522 30.8274 143.925 30.1415 144.179 29.3964C144.466 28.5533 144.607 27.6673 144.596 26.7766C144.608 25.8887 144.463 25.0056 144.167 24.1682C143.905 23.4281 143.499 22.7469 142.973 22.1637ZM140.944 29.6758C140.688 30.0086 140.359 30.2782 139.983 30.4637C139.607 30.6492 139.193 30.7457 138.773 30.7457C138.353 30.7457 137.939 30.6492 137.563 30.4637C137.187 30.2782 136.858 30.0086 136.602 29.6758C136.043 28.8169 135.771 27.8022 135.827 26.7785C135.772 25.7656 136.043 24.7618 136.602 23.9152C136.86 23.5857 137.19 23.3192 137.566 23.1359C137.942 22.9526 138.355 22.8573 138.773 22.8573C139.191 22.8573 139.604 22.9526 139.98 23.1359C140.356 23.3192 140.686 23.5857 140.944 23.9152C141.502 24.7619 141.774 25.7656 141.719 26.7785C141.775 27.8021 141.503 28.8168 140.944 29.6758Z" fill="#979AAD"/>
<path d="M152.901 20.5993C152.649 20.5616 152.402 20.5308 152.159 20.5069C151.916 20.483 151.7 20.4716 151.51 20.4729C150.602 20.4645 149.697 20.5537 148.809 20.739C148.124 20.8822 147.449 21.0714 146.789 21.3053C146.788 21.3073 146.788 21.3096 146.788 21.3118C146.788 21.3141 146.788 21.3164 146.789 21.3185V32.8321C146.789 32.8339 146.789 32.8359 146.789 32.8377C146.79 32.8395 146.791 32.8412 146.792 32.8426C146.793 32.8441 146.795 32.8452 146.797 32.846C146.799 32.8468 146.8 32.8472 146.802 32.8471H149.579C149.583 32.8471 149.587 32.8455 149.589 32.8427C149.592 32.8399 149.594 32.8361 149.594 32.8321V23.1418C149.593 23.1398 149.592 23.1375 149.592 23.1351C149.592 23.1328 149.593 23.1305 149.594 23.1285C149.831 23.0613 150.072 23.0083 150.315 22.97C150.64 22.9105 150.97 22.8795 151.3 22.8775C151.779 22.8722 152.257 22.9152 152.727 23.0059C153.046 23.0691 153.361 23.149 153.671 23.2456C153.673 23.2461 153.675 23.2463 153.677 23.246C153.679 23.2457 153.68 23.245 153.682 23.2439C153.684 23.2428 153.685 23.2414 153.686 23.2398C153.687 23.2381 153.688 23.2362 153.688 23.2342L154.169 20.8976C154.171 20.8952 154.172 20.8922 154.172 20.8891C154.172 20.8859 154.171 20.883 154.169 20.8806C154.032 20.8353 153.85 20.7862 153.624 20.7334C153.397 20.6805 153.156 20.6358 152.901 20.5993Z" fill="#979AAD"/>
<path d="M109.27 16.7223C108.913 16.7657 108.585 16.9399 108.35 17.2112C108.114 17.4825 107.987 17.8315 107.994 18.1908V32.8338C107.994 32.8378 107.996 32.8416 107.998 32.8445C108.001 32.8473 108.005 32.8489 108.009 32.8489H110.786C110.789 32.8484 110.793 32.8467 110.795 32.8439C110.797 32.8411 110.799 32.8375 110.799 32.8338V18.1115C110.798 17.9174 110.756 17.7255 110.677 17.5481C110.598 17.3707 110.483 17.2117 110.339 17.0811C110.196 16.9505 110.027 16.8512 109.842 16.7894C109.658 16.7277 109.463 16.7048 109.27 16.7223Z" fill="#979AAD"/>
<path d="M157.121 16.722C156.929 16.7036 156.736 16.7248 156.553 16.7844C156.37 16.8439 156.201 16.9406 156.057 17.0683C155.914 17.196 155.797 17.352 155.716 17.5266C155.635 17.7011 155.591 17.8905 155.587 18.0829V32.8335C155.587 32.8375 155.588 32.8413 155.591 32.8442C155.594 32.847 155.598 32.8486 155.602 32.8486H158.376C158.38 32.8486 158.384 32.847 158.387 32.8442C158.39 32.8413 158.391 32.8375 158.391 32.8335V18.1886C158.398 17.8304 158.272 17.4823 158.038 17.2115C157.803 16.9407 157.477 16.7663 157.121 16.722Z" fill="#979AAD"/>
<path d="M169.193 18.1267V21.1315C169.194 21.1341 169.194 21.1368 169.193 21.1393C169.191 21.1417 169.19 21.1438 169.187 21.1452C169.185 21.1466 169.183 21.1473 169.18 21.1473C169.177 21.1472 169.175 21.1463 169.173 21.1447C168.809 20.9613 168.43 20.8097 168.04 20.6918C167.536 20.5446 167.012 20.474 166.487 20.4822C165.698 20.4669 164.915 20.6214 164.191 20.9352C163.534 21.2278 162.953 21.6676 162.493 22.2206C162.01 22.8112 161.651 23.4928 161.438 24.2251C161.189 25.0712 161.067 25.9497 161.077 26.8317C161.064 27.7272 161.21 28.618 161.508 29.4628C161.77 30.2072 162.189 30.8868 162.736 31.4559C163.282 32.0131 163.943 32.4441 164.673 32.7187C165.496 33.0242 166.369 33.174 167.247 33.1604C168.137 33.163 169.025 33.093 169.903 32.9509C170.608 32.8421 171.305 32.6882 171.991 32.4903C171.993 32.4894 171.996 32.4877 171.998 32.4853C171.999 32.4829 172 32.48 172 32.4771V18.0096C171.964 17.6532 171.792 17.3242 171.522 17.0897C171.251 16.8552 170.901 16.7329 170.543 16.7479C170.185 16.7628 169.846 16.9138 169.595 17.17C169.345 17.4263 169.202 17.7685 169.195 18.1267H169.193ZM169.195 30.5292C169.195 30.5326 169.194 30.536 169.192 30.5388C169.19 30.5415 169.187 30.5434 169.184 30.5443C168.984 30.5896 168.729 30.6311 168.418 30.6689C168.037 30.711 167.653 30.7305 167.27 30.7274C166.81 30.7501 166.352 30.6668 165.93 30.4838C165.507 30.3009 165.133 30.0232 164.835 29.6723C164.205 28.8384 163.893 27.8072 163.954 26.7637C163.9 25.7706 164.146 24.7843 164.66 23.9325C164.911 23.5806 165.249 23.2996 165.641 23.1168C166.033 22.9339 166.465 22.8553 166.896 22.8887C167.342 22.886 167.786 22.9608 168.206 23.1096C168.551 23.2249 168.88 23.3829 169.186 23.5796C169.187 23.5832 169.187 23.5872 169.186 23.5909L169.195 30.5292Z" fill="#979AAD"/>
<path d="M90.9313 22.9225C90.6998 23.7026 90.4557 24.4834 90.199 25.2648C89.9423 26.0462 89.6818 26.8012 89.4175 27.5298C89.1596 28.2508 88.9155 28.9013 88.6852 29.4814C88.6842 29.4839 88.6826 29.486 88.6804 29.4875C88.6782 29.489 88.6756 29.4897 88.6729 29.4897C88.6703 29.4897 88.6677 29.489 88.6655 29.4875C88.6633 29.486 88.6616 29.4839 88.6607 29.4814C88.4317 28.9026 88.1832 28.2521 87.9151 27.5298C87.6471 26.8075 87.3835 26.0525 87.1243 25.2648C86.8726 24.4846 86.6323 23.7039 86.4033 22.9225L86.0428 21.6314C85.9741 21.3731 85.8218 21.1447 85.6098 20.9819C85.3978 20.819 85.138 20.7309 84.8706 20.7311H84.4403C84.2504 20.7315 84.0633 20.7763 83.8938 20.8619C83.7244 20.9475 83.5773 21.0715 83.4643 21.2241C83.3513 21.3767 83.2756 21.5536 83.2432 21.7407C83.2108 21.9277 83.2226 22.1198 83.2776 22.3015C83.82 24.0833 84.4076 25.7744 85.0405 27.375C85.8546 29.4349 86.6486 31.2594 87.4225 32.8487C87.4245 32.8498 87.4268 32.8505 87.4291 32.8505C87.4314 32.8505 87.4337 32.8498 87.4357 32.8487H89.8158C89.8179 32.8497 89.8201 32.8502 89.8224 32.8502C89.8247 32.8502 89.8269 32.8497 89.829 32.8487C90.6041 31.2582 91.3982 29.4336 92.211 27.375C92.8402 25.7744 93.4278 24.0839 93.9739 22.3034C94.029 22.1215 94.0407 21.9293 94.0082 21.7421C93.9757 21.5549 93.8998 21.3779 93.7866 21.2252C93.6735 21.0726 93.5261 20.9486 93.3564 20.8631C93.1867 20.7776 92.9993 20.7331 92.8093 20.733H92.4715C92.2052 20.7328 91.9464 20.8204 91.7348 20.9821C91.5233 21.1438 91.3709 21.3707 91.3013 21.6276C91.188 22.0379 91.0647 22.4695 90.9313 22.9225Z" fill="#979AAD"/>
<path d="M122.981 18.5925C123.291 18.592 123.594 18.6918 123.844 18.8771C124.093 19.0625 124.277 19.3235 124.366 19.6212C124.523 20.1447 124.686 20.6801 124.855 21.2274C125.135 22.1397 125.428 23.0526 125.732 23.9661C126.037 24.8797 126.342 25.7775 126.646 26.6596C126.951 27.5404 127.243 28.3715 127.524 29.1529C127.758 28.3099 127.984 27.3932 128.203 26.4029C128.422 25.4126 128.641 24.3827 128.86 23.3131C129.079 22.2448 129.293 21.1563 129.504 20.0478C129.637 19.3444 129.766 18.6466 129.891 17.9545C129.951 17.6216 130.126 17.3205 130.386 17.1038C130.646 16.8871 130.974 16.7687 131.312 16.7692H131.385C131.599 16.7696 131.811 16.8174 132.004 16.9091C132.197 17.0008 132.368 17.1342 132.504 17.2996C132.639 17.4651 132.737 17.6585 132.789 17.8661C132.841 18.0736 132.846 18.2901 132.805 18.5C132.347 20.8166 131.849 23.0602 131.312 25.2308C130.641 27.9387 129.892 30.5257 129.066 32.992H126.235C125.025 29.84 123.854 26.3985 122.722 22.6676C122.143 24.555 121.557 26.35 120.963 28.0525C120.369 29.755 119.775 31.4015 119.181 32.992H116.365C115.523 30.5257 114.771 27.9387 114.109 25.2308C113.578 23.0589 113.085 20.8141 112.63 18.4963C112.588 18.2867 112.594 18.0707 112.646 17.8636C112.698 17.6565 112.796 17.4635 112.931 17.2985C113.067 17.1334 113.237 17.0003 113.43 16.9089C113.623 16.8174 113.834 16.7697 114.047 16.7692H114.253C114.591 16.7686 114.918 16.8868 115.178 17.1031C115.438 17.3194 115.614 17.6201 115.674 17.9527C115.8 18.6334 115.926 19.3255 116.052 20.0289C116.262 21.1374 116.48 22.2259 116.707 23.2942C116.933 24.3625 117.163 25.3962 117.397 26.3953C117.631 27.3944 117.866 28.3155 118.1 29.1586C118.397 28.3621 118.697 27.5234 119.002 26.6426C119.306 25.7618 119.607 24.864 119.904 23.9492C120.201 23.0357 120.486 22.1265 120.759 21.2218C120.92 20.6857 121.075 20.1604 121.223 19.6458C121.31 19.3442 121.492 19.079 121.743 18.8904C121.994 18.7017 122.299 18.5998 122.612 18.6001L122.981 18.5925Z" fill="#979AAD"/>
</svg>
