<svg width="120" height="40" viewBox="0 0 180 40" fill="none" xmlns="http://www.w3.org/2000/svg">
<g clip-path="url(#clip0)">
<path d="M17.7729 38.9969L1.14648 3.27331H7.45305L17.7729 25.9642L28.5514 2.45876L39.2726 25.9642L49.6497 3.27331H55.9562L39.2726 38.9969L28.5514 15.4915L17.7729 38.9969ZM65.044 38.1824C61.3748 38.1824 58.3551 37.0575 55.9855 34.8078C53.6538 32.5194 52.4883 29.7654 52.4883 26.5459C52.4883 23.3267 53.6538 20.5922 55.9855 18.3423C58.3551 16.0539 61.3748 14.9097 65.044 14.9097C67.5283 14.9097 69.8408 15.5109 71.9812 16.7133V14.9097H77.7146V38.1824H71.9812V36.3787C69.8408 37.5813 67.5283 38.1824 65.044 38.1824ZM60.1135 22.415C58.8521 23.5399 58.2215 24.9169 58.2215 26.5459C58.2215 28.175 58.8521 29.5522 60.1135 30.6769C61.4895 31.8018 63.1329 32.3642 65.044 32.3642C66.955 32.3642 68.5795 31.8018 69.9173 30.6769C71.2933 29.5133 71.9812 28.1364 71.9812 26.5459C71.9812 24.9558 71.2933 23.5982 69.9173 22.4733C68.5795 21.3095 66.955 20.7278 65.044 20.7278C63.1329 20.7278 61.4895 21.2903 60.1135 22.415ZM88.0343 38.1824H82.3012V0.946045H88.0343V38.1824ZM98.3363 38.1824H92.6031V14.9097H98.3363V16.7133C100.438 15.5109 102.732 14.9097 105.216 14.9097C108.924 14.9097 111.943 16.0539 114.275 18.3423C116.644 20.5922 117.829 23.3267 117.829 26.5459V38.1824H112.096V26.7205C112.096 25.0527 111.427 23.6369 110.089 22.4733C108.752 21.3095 107.127 20.7278 105.216 20.7278C103.305 20.7278 101.681 21.3095 100.343 22.4733C99.0052 23.6369 98.3363 25.0527 98.3363 26.7205V38.1824ZM122.389 26.5459V14.9097H128.122V26.3714C128.122 28.0394 128.791 29.455 130.129 30.6187C131.467 31.7824 133.091 32.3642 135.003 32.3642C136.913 32.3642 138.538 31.7824 139.876 30.6187C141.213 29.455 141.882 28.0394 141.882 26.3714V14.9097H147.616V38.1824H141.882V36.3787C139.78 37.5813 137.487 38.1824 135.003 38.1824C131.295 38.1824 128.256 37.0575 125.886 34.8078C123.555 32.5194 122.389 29.7654 122.389 26.5459ZM155.615 20.7278H151.028V14.9097H155.615V6.76423H161.348V14.9097H168.228V20.7278H161.348V26.5459C161.348 28.1364 161.959 29.5133 163.182 30.6769C164.406 31.8018 165.897 32.3642 167.655 32.3642H168.228V38.1824H167.655C164.329 38.1824 161.482 37.0769 159.112 34.866C156.781 32.6164 155.615 29.9013 155.615 26.7205V20.7278Z" fill="#979aad"/>
<path d="M172.663 38.2987C172.013 37.6393 171.688 36.8248 171.688 35.8549C171.688 34.8853 172.013 34.0708 172.663 33.4113C173.351 32.7132 174.173 32.364 175.128 32.364C176.083 32.364 176.886 32.7132 177.537 33.4113C178.224 34.0708 178.568 34.8853 178.568 35.8549C178.568 36.8248 178.224 37.6393 177.537 38.2987C176.886 38.9968 176.083 39.3459 175.128 39.3459C174.173 39.3459 173.351 38.9968 172.663 38.2987Z" fill="#979aad"/>
</g>
<defs>
<clipPath id="clip0">
<rect width="180" height="40" fill="white" transform="translate(0 0.00012207)"/>
</clipPath>
</defs>
</svg>
