<svg width="60" height="20" viewBox="0 0 60 40" xmlns="http://www.w3.org/2000/svg" xmlns:xlink="http://www.w3.org/1999/xlink">
  <defs>
    <path d="M53.078 10c-.446.657-1.144.987-2.091.987-.973 0-1.687-.33-2.139-.988-.451-.659-.676-1.661-.676-3.006 0-1.344.225-2.344.676-2.998.452-.655 1.166-.982 2.139-.982.947 0 1.645.327 2.091.982.447.654.67 1.654.67 2.998 0 1.345-.223 2.347-.67 3.006M50.987 0c1.044 0 1.996.161 2.855.485a6.267 6.267 0 0 1 2.21 1.387 6.254 6.254 0 0 1 1.436 2.195c.341.859.512 1.827.512 2.9 0 1.083-.17 2.058-.512 2.927-.342.87-.819 1.608-1.435 2.212a6.289 6.289 0 0 1-2.21 1.403c-.86.327-1.812.491-2.856.491-1.053 0-2.012-.164-2.876-.49a6.418 6.418 0 0 1-2.23-1.404 6.173 6.173 0 0 1-1.449-2.212c-.34-.869-.51-1.844-.51-2.926 0-1.074.17-2.042.51-2.901a6.16 6.16 0 0 1 1.449-2.195A6.396 6.396 0 0 1 48.11.485C48.975.16 49.934 0 50.987 0ZM25.526.21c1.183 0 2.14.974 2.14 2.176v11.405H23.55V.21ZM11.79.197a1.371 1.371 0 0 1 1.205.966l.007.005 1.585 5.838.391 1.35c.13.436.246.877.353 1.322.071-.436.154-.873.253-1.31.096-.435.207-.89.33-1.362l1.389-5.782.01-.01c.149-.524.64-.935 1.182-1.005h3.104L17.322 13.79h-2.877c-.62 0-1.145-.424-1.308-1.003l-1.87-6.448c-.099-.305-.183-.607-.258-.903a19.608 19.608 0 0 1-.208-.904 22.05 22.05 0 0 1-.21.904c-.075.296-.161.598-.26.903l-.855 2.948-.155.536c-.44 1.515-.856 2.954-.86 2.964a1.366 1.366 0 0 1-1.307 1.003H4.277L0 .21h3.104c.543.07 1.033.48 1.181 1.004l.01.01 1.39 5.782c.123.473.233.927.33 1.363.099.436.182.873.253 1.309.107-.445.223-.886.353-1.323.127-.436.257-.886.39-1.35l1.586-5.837A1.384 1.384 0 0 1 9.809.197Zm25.59 0 .528.012c2.182 0 3.95 1.8 3.95 4.019v9.562h-2.98c-.672 0-1.218-.523-1.283-1.192l-.011-.011v-.105l-.002-.013v-.006l.002-.006v-.332l.001-.686v-.66l.001-.24v-.509l.001-.264v-.544l.001-.277v-.56l.001-.28.001-.83v-.268l.001-.766v-.239a.318.318 0 0 0 .218-.301v-.595c0-.14-.09-.257-.215-.3v-.389a.566.566 0 0 0-.562-.566h-2.268a.561.561 0 0 0-.555.566v.391a.319.319 0 0 0-.212.298v.595c0 .14.09.258.217.301v.22l.001.696v.74l.001.252v.507l.001.253v.503l.001.248v.717l.001.228.001.832v.921l.001.104v.246c-.002.73-.581 1.32-1.296 1.321h-2.972V.197h7.426Z" id="a"/>
  </defs>
  <use fill="#979AAD" xlink:href="#a" transform="translate(-10 14)" fill-rule="evenodd"/>
</svg>
