<svg id="Ahrefs_logo" data-name="Ahrefs logo" xmlns="http://www.w3.org/2000/svg" viewBox="0 0 518 126"><defs><style>.cls-1{fill:#005a9e;}.cls-2{fill:#f80;}</style></defs><title>Ahrefs-Logo-Color-Blue_on_white-RGB</title><path class="cls-1" d="M462,112h28V98H476V84l-14,0V70H448V42h14V28h42V42l-28,0V56h14V70h14V84h14v28l-14,0v14l-42,0ZM448,98h14v14H448Zm56-56h14V56H504ZM392,42H378V28h14V14h14V0h42V14H420V28h14V42H420v84H392ZM364,84V42H350V28H294V42H280v70h14v14h56V112H308V84ZM308,42h28V70H308Zm56,70H350V98h14ZM196,28h28V42h14V28h28V56H224v70H196ZM98,0h28V28h42V42h14v84H154V42H126v84H98Z"/><path class="cls-2" d="M14,70H56V42H14V28H70V42H84v84H14V112H0V84H14ZM28,84v28H56V84ZM0,42H14V56H0Z"/></svg>